<?xml version="1.0" encoding="UTF-8" standalone="no"?>
<!DOCTYPE svg PUBLIC "-//W3C//DTD SVG 1.1//EN"
 "http://www.w3.org/Graphics/SVG/1.1/DTD/svg11.dtd">
<!-- Generated by graphviz version 2.43.0 (0)
 -->
<!-- Title: Settings&lt; CfgItem, Size, Offset &gt; Pages: 1 -->
<!--zoomable 986 -->
<svg id="main" version="1.1" xmlns="http://www.w3.org/2000/svg" xmlns:xlink="http://www.w3.org/1999/xlink" xml:space="preserve" onload="init(evt)">
<style type="text/css"><![CDATA[
.edge:hover path { stroke: red; }
.edge:hover polygon { stroke: red; fill: red; }
]]></style>
<script type="text/javascript"><![CDATA[
var edges = document.getElementsByTagName('g');
if (edges && edges.length) {
  for (var i=0;i<edges.length;i++) {
    if (edges[i].id.substr(0,4)=='edge') {
      edges[i].setAttribute('class','edge');
    }
  }
}
]]></script>
        <defs>
                <circle id="rim" cx="0" cy="0" r="7"/>
                <circle id="rim2" cx="0" cy="0" r="3.5"/>
                <g id="zoomPlus">
                        <use xlink:href="#rim" fill="#404040">
                                <set attributeName="fill" to="#808080" begin="zoomplus.mouseover" end="zoomplus.mouseout"/>
                        </use>
                        <path d="M-4,0h8M0,-4v8" fill="none" stroke="white" stroke-width="1.5" pointer-events="none"/>
                </g>
                <g id="zoomMin">
                        <use xlink:href="#rim" fill="#404040">
                                <set attributeName="fill" to="#808080" begin="zoomminus.mouseover" end="zoomminus.mouseout"/>
                        </use>
                        <path d="M-4,0h8" fill="none" stroke="white" stroke-width="1.5" pointer-events="none"/>
                </g>
                <g id="dirArrow">
                        <path fill="none" stroke="white" stroke-width="1.5" d="M0,-3.0v7 M-2.5,-0.5L0,-3.0L2.5,-0.5"/>
                </g>
               <g id="resetDef">
                       <use xlink:href="#rim2" fill="#404040">
                               <set attributeName="fill" to="#808080" begin="reset.mouseover" end="reset.mouseout"/>
                       </use>
               </g>
        </defs>

<script type="text/javascript">
var viewWidth = 588;
var viewHeight = 986;
var sectionId = 'dynsection-1';
</script>
<script xlink:href="svgpan.js"/>
<svg id="graph" class="graph">
<g id="viewport">
<title>Settings&lt; CfgItem, Size, Offset &gt;</title>
<!-- Node1 -->
<g id="node1" class="node">
<title>Node1</title>
<g id="a_node1"><a xlink:title="Base class template for settings.">
<polygon fill="#bfbfbf" stroke="black" points="164.5,-0.5 164.5,-189.5 283.5,-189.5 283.5,-0.5 164.5,-0.5"/>
<text text-anchor="start" x="172.5" y="-177.5" font-family="Helvetica,sans-Serif" font-size="10.00">Settings&lt; CfgItem,</text>
<text text-anchor="middle" x="224" y="-166.5" font-family="Helvetica,sans-Serif" font-size="10.00"> Size, Offset &gt;</text>
<polyline fill="none" stroke="black" points="164.5,-159.5 283.5,-159.5 "/>
<text text-anchor="middle" x="224" y="-147.5" font-family="Helvetica,sans-Serif" font-size="10.00"> </text>
<polyline fill="none" stroke="black" points="164.5,-140.5 283.5,-140.5 "/>
<text text-anchor="start" x="172.5" y="-128.5" font-family="Helvetica,sans-Serif" font-size="10.00">+ get_SettingsData()</text>
<text text-anchor="start" x="172.5" y="-117.5" font-family="Helvetica,sans-Serif" font-size="10.00">+ get_kvsKey()</text>
<text text-anchor="start" x="172.5" y="-106.5" font-family="Helvetica,sans-Serif" font-size="10.00">+ get_kvsType()</text>
<text text-anchor="start" x="172.5" y="-95.5" font-family="Helvetica,sans-Serif" font-size="10.00">+ get_optKey()</text>
<text text-anchor="start" x="172.5" y="-84.5" font-family="Helvetica,sans-Serif" font-size="10.00">+ get_optKeyStr()</text>
<text text-anchor="start" x="172.5" y="-73.5" font-family="Helvetica,sans-Serif" font-size="10.00">+ get_soCfgFun()</text>
<text text-anchor="start" x="172.5" y="-62.5" font-family="Helvetica,sans-Serif" font-size="10.00">+ get_soCfgFun()</text>
<text text-anchor="start" x="172.5" y="-51.5" font-family="Helvetica,sans-Serif" font-size="10.00">+ get_storeFun()</text>
<text text-anchor="start" x="172.5" y="-40.5" font-family="Helvetica,sans-Serif" font-size="10.00">+ get_storeFun()</text>
<text text-anchor="start" x="172.5" y="-29.5" font-family="Helvetica,sans-Serif" font-size="10.00">+ get_item()</text>
<text text-anchor="start" x="172.5" y="-18.5" font-family="Helvetica,sans-Serif" font-size="10.00"># otok2idx()</text>
<text text-anchor="start" x="172.5" y="-7.5" font-family="Helvetica,sans-Serif" font-size="10.00"># initField()</text>
</a>
</g>
</g>
<!-- Node2 -->
<g id="node2" class="node">
<title>Node2</title>
<g id="a_node2"><a xlink:href="classSettingsBase.html" target="_top" xlink:title=" ">
<polygon fill="none" stroke="black" points="89,-237.5 89,-448.5 231,-448.5 231,-237.5 89,-237.5"/>
<text text-anchor="middle" x="160" y="-436.5" font-family="Helvetica,sans-Serif" font-size="10.00">SettingsBase&lt; CfgItem &gt;</text>
<polyline fill="none" stroke="black" points="89,-429.5 231,-429.5 "/>
<text text-anchor="middle" x="160" y="-417.5" font-family="Helvetica,sans-Serif" font-size="10.00"> </text>
<polyline fill="none" stroke="black" points="89,-410.5 231,-410.5 "/>
<text text-anchor="start" x="97" y="-398.5" font-family="Helvetica,sans-Serif" font-size="10.00">+ get_SettingsData()</text>
<text text-anchor="start" x="97" y="-387.5" font-family="Helvetica,sans-Serif" font-size="10.00">+ get_SettingsData()</text>
<text text-anchor="start" x="97" y="-376.5" font-family="Helvetica,sans-Serif" font-size="10.00">+ get_item()</text>
<text text-anchor="start" x="97" y="-365.5" font-family="Helvetica,sans-Serif" font-size="10.00">+ get_bitMask()</text>
<text text-anchor="start" x="97" y="-354.5" font-family="Helvetica,sans-Serif" font-size="10.00">+ get_kvsKey()</text>
<text text-anchor="start" x="97" y="-343.5" font-family="Helvetica,sans-Serif" font-size="10.00">+ get_kvsKey()</text>
<text text-anchor="start" x="97" y="-332.5" font-family="Helvetica,sans-Serif" font-size="10.00">+ get_kvsType()</text>
<text text-anchor="start" x="97" y="-321.5" font-family="Helvetica,sans-Serif" font-size="10.00">+ get_kvsType()</text>
<text text-anchor="start" x="97" y="-310.5" font-family="Helvetica,sans-Serif" font-size="10.00">+ get_optKey()</text>
<text text-anchor="start" x="97" y="-299.5" font-family="Helvetica,sans-Serif" font-size="10.00">+ get_optKeyStr()</text>
<text text-anchor="start" x="97" y="-288.5" font-family="Helvetica,sans-Serif" font-size="10.00">+ get_optKeyStr()</text>
<text text-anchor="start" x="97" y="-277.5" font-family="Helvetica,sans-Serif" font-size="10.00">+ get_soCfgFun()</text>
<text text-anchor="start" x="97" y="-266.5" font-family="Helvetica,sans-Serif" font-size="10.00">+ get_soCfgFun()</text>
<text text-anchor="start" x="97" y="-255.5" font-family="Helvetica,sans-Serif" font-size="10.00">+ get_storeFun()</text>
<text text-anchor="start" x="97" y="-244.5" font-family="Helvetica,sans-Serif" font-size="10.00">+ get_storeFun()</text>
</a>
</g>
</g>
<!-- Node2&#45;&gt;Node1 -->
<g id="edge1" class="edge">
<title>Node2&#45;&gt;Node1</title>
<path fill="none" stroke="midnightblue" d="M189.75,-227.63C193.06,-214.92 196.4,-202.09 199.63,-189.69"/>
<polygon fill="none" stroke="midnightblue" points="186.37,-226.76 187.23,-237.32 193.14,-228.52 186.37,-226.76"/>
</g>
<!-- Node3 -->
<g id="node3" class="node">
<title>Node3</title>
<g id="a_node3"><a xlink:href="classSettings1stBase.html" target="_top" xlink:title=" ">
<polygon fill="none" stroke="black" points="100.5,-507.5 100.5,-619.5 219.5,-619.5 219.5,-507.5 100.5,-507.5"/>
<text text-anchor="middle" x="160" y="-607.5" font-family="Helvetica,sans-Serif" font-size="10.00">Settings1stBase</text>
<polyline fill="none" stroke="black" points="100.5,-600.5 219.5,-600.5 "/>
<text text-anchor="middle" x="160" y="-588.5" font-family="Helvetica,sans-Serif" font-size="10.00"> </text>
<polyline fill="none" stroke="black" points="100.5,-581.5 219.5,-581.5 "/>
<text text-anchor="start" x="108.5" y="-569.5" font-family="Helvetica,sans-Serif" font-size="10.00">+ get_SettingsData()</text>
<text text-anchor="start" x="108.5" y="-558.5" font-family="Helvetica,sans-Serif" font-size="10.00">+ get_soCfgFun()</text>
<text text-anchor="start" x="108.5" y="-547.5" font-family="Helvetica,sans-Serif" font-size="10.00">+ get_storeFun()</text>
<text text-anchor="start" x="108.5" y="-536.5" font-family="Helvetica,sans-Serif" font-size="10.00">+ get_kvsKey()</text>
<text text-anchor="start" x="108.5" y="-525.5" font-family="Helvetica,sans-Serif" font-size="10.00">+ get_kvsType()</text>
<text text-anchor="start" x="108.5" y="-514.5" font-family="Helvetica,sans-Serif" font-size="10.00">+ get_bitMask()</text>
</a>
</g>
</g>
<!-- Node3&#45;&gt;Node2 -->
<g id="edge2" class="edge">
<title>Node3&#45;&gt;Node2</title>
<path fill="none" stroke="midnightblue" d="M160,-497.01C160,-481.71 160,-465.04 160,-448.51"/>
<polygon fill="none" stroke="midnightblue" points="156.5,-497.36 160,-507.36 163.5,-497.36 156.5,-497.36"/>
</g>
<!-- Node4 -->
<g id="node4" class="node">
<title>Node4</title>
<g id="a_node4"><a xlink:href="structSettingsData.html" target="_top" xlink:title=" ">
<polygon fill="none" stroke="black" points="249,-292.5 249,-393.5 329,-393.5 329,-292.5 249,-292.5"/>
<text text-anchor="middle" x="289" y="-381.5" font-family="Helvetica,sans-Serif" font-size="10.00">SettingsData</text>
<polyline fill="none" stroke="black" points="249,-374.5 329,-374.5 "/>
<text text-anchor="start" x="257" y="-362.5" font-family="Helvetica,sans-Serif" font-size="10.00">+ kvs_key</text>
<text text-anchor="start" x="257" y="-351.5" font-family="Helvetica,sans-Serif" font-size="10.00">+ opt_key</text>
<text text-anchor="start" x="257" y="-340.5" font-family="Helvetica,sans-Serif" font-size="10.00">+ kvs_type</text>
<text text-anchor="start" x="257" y="-329.5" font-family="Helvetica,sans-Serif" font-size="10.00">+ store_fun</text>
<text text-anchor="start" x="257" y="-318.5" font-family="Helvetica,sans-Serif" font-size="10.00">+ id_bit</text>
<polyline fill="none" stroke="black" points="249,-311.5 329,-311.5 "/>
<text text-anchor="middle" x="289" y="-299.5" font-family="Helvetica,sans-Serif" font-size="10.00"> </text>
</a>
</g>
</g>
<!-- Node4&#45;&gt;Node1 -->
<g id="edge3" class="edge">
<title>Node4&#45;&gt;Node1</title>
<path fill="none" stroke="#404040" d="M275.85,-292.22C268.97,-266.2 260.28,-233.31 251.99,-201.93"/>
<polygon fill="none" stroke="#404040" points="251.9,-201.6 246.5,-196.82 248.84,-189.99 254.24,-194.77 251.9,-201.6"/>
<text text-anchor="middle" x="281.5" y="-211" font-family="Helvetica,sans-Serif" font-size="10.00"> #m_data</text>
</g>
<!-- Node5 -->
<g id="node5" class="node">
<title>Node5</title>
<g id="a_node5"><a xlink:href="classUoutWriter.html" target="_top" xlink:title="Abstract class which contains various data builders.">
<polygon fill="none" stroke="black" points="241.5,-496.5 241.5,-630.5 336.5,-630.5 336.5,-496.5 241.5,-496.5"/>
<text text-anchor="middle" x="289" y="-618.5" font-family="Helvetica,sans-Serif" font-size="10.00">UoutWriter</text>
<polyline fill="none" stroke="black" points="241.5,-611.5 336.5,-611.5 "/>
<text text-anchor="start" x="249.5" y="-599.5" font-family="Helvetica,sans-Serif" font-size="10.00"># myTgt</text>
<polyline fill="none" stroke="black" points="241.5,-592.5 336.5,-592.5 "/>
<text text-anchor="start" x="249.5" y="-580.5" font-family="Helvetica,sans-Serif" font-size="10.00">+ UoutWriter()</text>
<text text-anchor="start" x="249.5" y="-569.5" font-family="Helvetica,sans-Serif" font-size="10.00">+ UoutWriter()</text>
<text text-anchor="start" x="249.5" y="-558.5" font-family="Helvetica,sans-Serif" font-size="10.00">+ operator=()</text>
<text text-anchor="start" x="249.5" y="-547.5" font-family="Helvetica,sans-Serif" font-size="10.00">+ tgt()</text>
<text text-anchor="start" x="249.5" y="-536.5" font-family="Helvetica,sans-Serif" font-size="10.00">+ add_tgt_flag()</text>
<text text-anchor="start" x="249.5" y="-525.5" font-family="Helvetica,sans-Serif" font-size="10.00">+ sj()</text>
<text text-anchor="start" x="249.5" y="-514.5" font-family="Helvetica,sans-Serif" font-size="10.00">+ st()</text>
<text text-anchor="start" x="249.5" y="-503.5" font-family="Helvetica,sans-Serif" font-size="10.00">+ so()</text>
</a>
</g>
</g>
<!-- Node5&#45;&gt;Node4 -->
<g id="edge4" class="edge">
<title>Node5&#45;&gt;Node4</title>
<path fill="none" stroke="#404040" d="M289,-496.35C289,-467.57 289,-434.05 289,-405.78"/>
<polygon fill="none" stroke="#404040" points="289,-405.61 285,-399.61 289,-393.61 293,-399.61 289,-405.61"/>
<text text-anchor="middle" x="321" y="-470" font-family="Helvetica,sans-Serif" font-size="10.00"> +so_cfg_fun</text>
</g>
<!-- Node6 -->
<g id="node6" class="node">
<title>Node6</title>
<g id="a_node6"><a xlink:href="classUoutRawWriter.html" target="_top" xlink:title="Abstract class which implements public write methods and operators which then call an abstract privat...">
<polygon fill="none" stroke="black" points="0,-783 0,-873 118,-873 118,-783 0,-783"/>
<text text-anchor="middle" x="59" y="-861" font-family="Helvetica,sans-Serif" font-size="10.00">UoutRawWriter</text>
<polyline fill="none" stroke="black" points="0,-854 118,-854 "/>
<text text-anchor="middle" x="59" y="-842" font-family="Helvetica,sans-Serif" font-size="10.00"> </text>
<polyline fill="none" stroke="black" points="0,-835 118,-835 "/>
<text text-anchor="start" x="8" y="-823" font-family="Helvetica,sans-Serif" font-size="10.00">+ write()</text>
<text text-anchor="start" x="8" y="-812" font-family="Helvetica,sans-Serif" font-size="10.00">+ writeln()</text>
<text text-anchor="start" x="8" y="-801" font-family="Helvetica,sans-Serif" font-size="10.00">+ write()</text>
<text text-anchor="start" x="8" y="-790" font-family="Helvetica,sans-Serif" font-size="10.00"># ~UoutRawWriter()</text>
</a>
</g>
</g>
<!-- Node6&#45;&gt;Node5 -->
<g id="edge5" class="edge">
<title>Node6&#45;&gt;Node5</title>
<path fill="none" stroke="midnightblue" d="M73.4,-772.94C83.97,-741.95 101.06,-704.13 127,-678 161.88,-642.86 188.05,-660.25 228,-631 232.55,-627.67 237.03,-623.96 241.36,-620.04"/>
<polygon fill="none" stroke="midnightblue" points="69.98,-772.15 70.2,-782.74 76.63,-774.33 69.98,-772.15"/>
</g>
<!-- Node7 -->
<g id="node7" class="node">
<title>Node7</title>
<g id="a_node7"><a xlink:href="classUoutBuilderPlaintext.html" target="_top" xlink:title="Print key value pairs as text lines with limited length.">
<polygon fill="none" stroke="black" points="136,-783 136,-873 276,-873 276,-783 136,-783"/>
<text text-anchor="middle" x="206" y="-861" font-family="Helvetica,sans-Serif" font-size="10.00">UoutBuilderPlaintext</text>
<polyline fill="none" stroke="black" points="136,-854 276,-854 "/>
<text text-anchor="middle" x="206" y="-842" font-family="Helvetica,sans-Serif" font-size="10.00"> </text>
<polyline fill="none" stroke="black" points="136,-835 276,-835 "/>
<text text-anchor="start" x="144" y="-823" font-family="Helvetica,sans-Serif" font-size="10.00">+ UoutBuilderPlaintext()</text>
<text text-anchor="start" x="144" y="-812" font-family="Helvetica,sans-Serif" font-size="10.00">+ cli_out_set_x()</text>
<text text-anchor="start" x="144" y="-801" font-family="Helvetica,sans-Serif" font-size="10.00">+ cli_out_x_reply_entry()</text>
<text text-anchor="start" x="144" y="-790" font-family="Helvetica,sans-Serif" font-size="10.00">+ cli_out_close()</text>
</a>
</g>
</g>
<!-- Node7&#45;&gt;Node5 -->
<g id="edge6" class="edge">
<title>Node7&#45;&gt;Node5</title>
<path fill="none" stroke="#404040" d="M219.99,-782.77C232.1,-744.46 249.9,-688.15 264.39,-642.32"/>
<polygon fill="none" stroke="#404040" points="264.48,-642.05 262.47,-635.13 268.1,-630.61 270.1,-637.54 264.48,-642.05"/>
<text text-anchor="middle" x="286.5" y="-652" font-family="Helvetica,sans-Serif" font-size="10.00"> #myStxt</text>
</g>
<!-- Node8 -->
<g id="node8" class="node">
<title>Node8</title>
<g id="a_node8"><a xlink:href="classUoutBuilderJson.html" target="_top" xlink:title="Build JSON output gradually by calling member functions (with key/value parameters).">
<polygon fill="none" stroke="black" points="294,-678.5 294,-977.5 450,-977.5 450,-678.5 294,-678.5"/>
<text text-anchor="middle" x="372" y="-965.5" font-family="Helvetica,sans-Serif" font-size="10.00">UoutBuilderJson</text>
<polyline fill="none" stroke="black" points="294,-958.5 450,-958.5 "/>
<text text-anchor="middle" x="372" y="-946.5" font-family="Helvetica,sans-Serif" font-size="10.00"> </text>
<polyline fill="none" stroke="black" points="294,-939.5 450,-939.5 "/>
<text text-anchor="start" x="302" y="-927.5" font-family="Helvetica,sans-Serif" font-size="10.00">+ UoutBuilderJson()</text>
<text text-anchor="start" x="302" y="-916.5" font-family="Helvetica,sans-Serif" font-size="10.00">+ UoutBuilderJson()</text>
<text text-anchor="start" x="302" y="-905.5" font-family="Helvetica,sans-Serif" font-size="10.00">+ ~UoutBuilderJson()</text>
<text text-anchor="start" x="302" y="-894.5" font-family="Helvetica,sans-Serif" font-size="10.00">+ open_root_object()</text>
<text text-anchor="start" x="302" y="-883.5" font-family="Helvetica,sans-Serif" font-size="10.00">+ close_root_object()</text>
<text text-anchor="start" x="302" y="-872.5" font-family="Helvetica,sans-Serif" font-size="10.00">+ add_object()</text>
<text text-anchor="start" x="302" y="-861.5" font-family="Helvetica,sans-Serif" font-size="10.00">+ add_object()</text>
<text text-anchor="start" x="302" y="-850.5" font-family="Helvetica,sans-Serif" font-size="10.00">+ close_object()</text>
<text text-anchor="start" x="302" y="-839.5" font-family="Helvetica,sans-Serif" font-size="10.00">+ add_key_value_pair_s()</text>
<text text-anchor="start" x="302" y="-828.5" font-family="Helvetica,sans-Serif" font-size="10.00">+ add_key_value_pair_d()</text>
<text text-anchor="start" x="302" y="-817.5" font-family="Helvetica,sans-Serif" font-size="10.00">+ add_key_value_pair_f()</text>
<text text-anchor="start" x="302" y="-806.5" font-family="Helvetica,sans-Serif" font-size="10.00">+ add_array()</text>
<text text-anchor="start" x="302" y="-795.5" font-family="Helvetica,sans-Serif" font-size="10.00">+ close_array()</text>
<text text-anchor="start" x="302" y="-784.5" font-family="Helvetica,sans-Serif" font-size="10.00">+ add_value_d()</text>
<text text-anchor="start" x="302" y="-773.5" font-family="Helvetica,sans-Serif" font-size="10.00">+ add_value_s()</text>
<text text-anchor="start" x="302" y="-762.5" font-family="Helvetica,sans-Serif" font-size="10.00">+ read_json_from_function()</text>
<text text-anchor="start" x="302" y="-751.5" font-family="Helvetica,sans-Serif" font-size="10.00">+ copy_to_buf()</text>
<text text-anchor="start" x="302" y="-740.5" font-family="Helvetica,sans-Serif" font-size="10.00">+ cat_to_buf()</text>
<text text-anchor="start" x="302" y="-729.5" font-family="Helvetica,sans-Serif" font-size="10.00">+ get_json()</text>
<text text-anchor="start" x="302" y="-718.5" font-family="Helvetica,sans-Serif" font-size="10.00">+ writeln_json()</text>
<text text-anchor="start" x="302" y="-707.5" font-family="Helvetica,sans-Serif" font-size="10.00">+ write_json()</text>
<text text-anchor="start" x="302" y="-696.5" font-family="Helvetica,sans-Serif" font-size="10.00">+ write_some_json()</text>
<text text-anchor="start" x="302" y="-685.5" font-family="Helvetica,sans-Serif" font-size="10.00">+ free_buffer()</text>
</a>
</g>
</g>
<!-- Node8&#45;&gt;Node5 -->
<g id="edge7" class="edge">
<title>Node8&#45;&gt;Node5</title>
<path fill="none" stroke="#404040" d="M325.04,-678.49C321.12,-666.09 317.27,-653.9 313.62,-642.38"/>
<polygon fill="none" stroke="#404040" points="313.53,-642.06 307.9,-637.55 309.91,-630.62 315.53,-635.14 313.53,-642.06"/>
<text text-anchor="middle" x="337.5" y="-652" font-family="Helvetica,sans-Serif" font-size="10.00"> #mySj</text>
</g>
<!-- Node9 -->
<g id="node9" class="node">
<title>Node9</title>
<g id="a_node9"><a xlink:href="classUoutPrinter.html" target="_top" xlink:title="Format and print output using the help of UoutWriter.">
<polygon fill="none" stroke="black" points="468.5,-728 468.5,-928 579.5,-928 579.5,-728 468.5,-728"/>
<text text-anchor="middle" x="524" y="-916" font-family="Helvetica,sans-Serif" font-size="10.00">UoutPrinter</text>
<polyline fill="none" stroke="black" points="468.5,-909 579.5,-909 "/>
<text text-anchor="middle" x="524" y="-897" font-family="Helvetica,sans-Serif" font-size="10.00"> </text>
<polyline fill="none" stroke="black" points="468.5,-890 579.5,-890 "/>
<text text-anchor="start" x="476.5" y="-878" font-family="Helvetica,sans-Serif" font-size="10.00">+ UoutPrinter()</text>
<text text-anchor="start" x="476.5" y="-867" font-family="Helvetica,sans-Serif" font-size="10.00">+ print()</text>
<text text-anchor="start" x="476.5" y="-856" font-family="Helvetica,sans-Serif" font-size="10.00">+ print()</text>
<text text-anchor="start" x="476.5" y="-845" font-family="Helvetica,sans-Serif" font-size="10.00">+ print()</text>
<text text-anchor="start" x="476.5" y="-834" font-family="Helvetica,sans-Serif" font-size="10.00">+ print()</text>
<text text-anchor="start" x="476.5" y="-823" font-family="Helvetica,sans-Serif" font-size="10.00">+ print()</text>
<text text-anchor="start" x="476.5" y="-812" font-family="Helvetica,sans-Serif" font-size="10.00">+ print()</text>
<text text-anchor="start" x="476.5" y="-801" font-family="Helvetica,sans-Serif" font-size="10.00">+ print()</text>
<text text-anchor="start" x="476.5" y="-790" font-family="Helvetica,sans-Serif" font-size="10.00">+ x_open()</text>
<text text-anchor="start" x="476.5" y="-779" font-family="Helvetica,sans-Serif" font-size="10.00">+ x_close()</text>
<text text-anchor="start" x="476.5" y="-768" font-family="Helvetica,sans-Serif" font-size="10.00">+ root_open()</text>
<text text-anchor="start" x="476.5" y="-757" font-family="Helvetica,sans-Serif" font-size="10.00">+ root_close()</text>
<text text-anchor="start" x="476.5" y="-746" font-family="Helvetica,sans-Serif" font-size="10.00">+ hasOutput_text()</text>
<text text-anchor="start" x="476.5" y="-735" font-family="Helvetica,sans-Serif" font-size="10.00">+ hasOutput_json()</text>
</a>
</g>
</g>
<!-- Node9&#45;&gt;Node5 -->
<g id="edge8" class="edge">
<title>Node9&#45;&gt;Node5</title>
<path fill="none" stroke="#404040" d="M490.25,-727.77C481.67,-710.13 471.32,-692.72 459,-678 428.56,-641.62 383.56,-612.29 347.5,-592.56"/>
<polygon fill="none" stroke="#404040" points="347.21,-592.4 340.03,-593.1 336.63,-586.75 343.8,-586.05 347.21,-592.4"/>
<text text-anchor="middle" x="460" y="-652" font-family="Helvetica,sans-Serif" font-size="10.00"> #mySo</text>
</g>
</g>
</svg>
        <g id="navigator" transform="translate(0 0)" fill="#404254">
                <rect fill="#f2f5e9" fill-opacity="0.5" stroke="#606060" stroke-width=".5" x="0" y="0" width="60" height="60"/>
                <use id="zoomplus" xlink:href="#zoomPlus" x="17" y="9" onmousedown="handleZoom(evt,'in')"/>
                <use id="zoomminus" xlink:href="#zoomMin" x="42" y="9" onmousedown="handleZoom(evt,'out')"/>
                <use id="reset" xlink:href="#resetDef" x="30" y="36" onmousedown="handleReset()"/>
                <g id="arrowUp" xlink:href="#dirArrow" transform="translate(30 24)" onmousedown="handlePan(0,-1)">
                  <use xlink:href="#rim" fill="#404040">
                        <set attributeName="fill" to="#808080" begin="arrowUp.mouseover" end="arrowUp.mouseout"/>
                  </use>
                  <path fill="none" stroke="white" stroke-width="1.5" d="M0,-3.0v7 M-2.5,-0.5L0,-3.0L2.5,-0.5"/>
                </g>
                <g id="arrowRight" xlink:href="#dirArrow" transform="rotate(90) translate(36 -43)" onmousedown="handlePan(1,0)">
                  <use xlink:href="#rim" fill="#404040">
                        <set attributeName="fill" to="#808080" begin="arrowRight.mouseover" end="arrowRight.mouseout"/>
                  </use>
                  <path fill="none" stroke="white" stroke-width="1.5" d="M0,-3.0v7 M-2.5,-0.5L0,-3.0L2.5,-0.5"/>
                </g>
                <g id="arrowDown" xlink:href="#dirArrow" transform="rotate(180) translate(-30 -48)" onmousedown="handlePan(0,1)">
                  <use xlink:href="#rim" fill="#404040">
                        <set attributeName="fill" to="#808080" begin="arrowDown.mouseover" end="arrowDown.mouseout"/>
                  </use>
                  <path fill="none" stroke="white" stroke-width="1.5" d="M0,-3.0v7 M-2.5,-0.5L0,-3.0L2.5,-0.5"/>
                </g>
                <g id="arrowLeft" xlink:href="#dirArrow" transform="rotate(270) translate(-36 17)" onmousedown="handlePan(-1,0)">
                  <use xlink:href="#rim" fill="#404040">
                        <set attributeName="fill" to="#808080" begin="arrowLeft.mouseover" end="arrowLeft.mouseout"/>
                  </use>
                  <path fill="none" stroke="white" stroke-width="1.5" d="M0,-3.0v7 M-2.5,-0.5L0,-3.0L2.5,-0.5"/>
                </g>
        </g>
        <svg viewBox="0 0 15 15" width="100%" height="30px" preserveAspectRatio="xMaxYMin meet">
         <g id="arrow_out" transform="scale(0.3 0.3)">
          <a xlink:href="classSettings__coll__graph_org.svg" target="_base">
           <rect id="button" ry="5" rx="5" y="6" x="6" height="38" width="38"
                fill="#f2f5e9" fill-opacity="0.5" stroke="#606060" stroke-width="1.0"/>
           <path id="arrow"
             d="M 11.500037,31.436501 C 11.940474,20.09759 22.043105,11.32322 32.158766,21.979434 L 37.068811,17.246167 C 37.068811,17.246167 37.088388,32 37.088388,32 L 22.160133,31.978069 C 22.160133,31.978069 26.997745,27.140456 26.997745,27.140456 C 18.528582,18.264221 13.291696,25.230495 11.500037,31.436501 z"
             style="fill:#404040;"/>
          </a>
         </g>
        </svg>
</svg>
