<?xml version="1.0" encoding="UTF-8" standalone="no"?>
<!DOCTYPE svg PUBLIC "-//W3C//DTD SVG 1.1//EN"
 "http://www.w3.org/Graphics/SVG/1.1/DTD/svg11.dtd">
<!-- Generated by graphviz version 2.43.0 (0)
 -->
<!-- Title: include Pages: 1 -->
<svg width="237pt" height="159pt"
 viewBox="0.00 0.00 237.00 159.00" xmlns="http://www.w3.org/2000/svg" xmlns:xlink="http://www.w3.org/1999/xlink">
<g id="graph0" class="graph" transform="scale(1 1) rotate(0) translate(4 155)">
<title>include</title>
<g id="clust1" class="cluster">
<title>clusterdir_0d3d13e635af87d77e154536d34b33f6</title>
<g id="a_clust1"><a xlink:href="dir_0d3d13e635af87d77e154536d34b33f6.html" target="_top" xlink:title="config_kvs">
<polygon fill="#ddddee" stroke="black" points="49,-56 49,-143 221,-143 221,-56 49,-56"/>
<text text-anchor="middle" x="135" y="-131" font-family="Helvetica,sans-Serif" font-size="10.00">config_kvs</text>
</a>
</g>
</g>
<g id="clust2" class="cluster">
<title>clusterdir_448d5004332ef8de0ecc55171bd7858d</title>
<g id="a_clust2"><a xlink:href="dir_448d5004332ef8de0ecc55171bd7858d.html" target="_top">
<polygon fill="#eeeeff" stroke="black" points="57,-64 57,-116 213,-116 213,-64 57,-64"/>
</a>
</g>
</g>
<!-- dir_448d5004332ef8de0ecc55171bd7858d -->
<g id="node1" class="node">
<title>dir_448d5004332ef8de0ecc55171bd7858d</title>
<text text-anchor="middle" x="178" y="-87.5" font-family="Helvetica,sans-Serif" font-size="10.00">include</text>
</g>
<!-- dir_c999b0683eed430f6c4e221983380c26 -->
<g id="node2" class="node">
<title>dir_c999b0683eed430f6c4e221983380c26</title>
<g id="a_node2"><a xlink:href="dir_c999b0683eed430f6c4e221983380c26.html" target="_top" xlink:title="config_kvs">
<polygon fill="white" stroke="black" points="133,-108 65,-108 65,-72 133,-72 133,-108"/>
<text text-anchor="middle" x="99" y="-87.5" font-family="Helvetica,sans-Serif" font-size="10.00">config_kvs</text>
</a>
</g>
</g>
<!-- dir_415636c0904eea9654b88b95fa324ed7 -->
<g id="node3" class="node">
<title>dir_415636c0904eea9654b88b95fa324ed7</title>
<g id="a_node3"><a xlink:href="dir_415636c0904eea9654b88b95fa324ed7.html" target="_top" xlink:title="uout">
<polygon fill="none" stroke="red" points="54,-36 0,-36 0,0 54,0 54,-36"/>
<text text-anchor="middle" x="27" y="-15.5" font-family="Helvetica,sans-Serif" font-size="10.00">uout</text>
</a>
</g>
</g>
<!-- dir_c999b0683eed430f6c4e221983380c26&#45;&gt;dir_415636c0904eea9654b88b95fa324ed7 -->
<g id="edge1" class="edge">
<title>dir_c999b0683eed430f6c4e221983380c26&#45;&gt;dir_415636c0904eea9654b88b95fa324ed7</title>
<path fill="none" stroke="black" d="M81.2,-71.7C72.4,-63.14 61.62,-52.66 52,-43.3"/>
<polygon fill="black" stroke="black" points="54.2,-40.57 44.59,-36.1 49.32,-45.58 54.2,-40.57"/>
<g id="a_edge1&#45;headlabel"><a xlink:href="dir_000011_000006.html" target="_top" xlink:title="1">
<text text-anchor="middle" x="58.76" y="-38.54" font-family="Helvetica,sans-Serif" font-size="10.00">1</text>
</a>
</g>
</g>
<!-- dir_6203bca8e7b1befb208c21909c855e11 -->
<g id="node4" class="node">
<title>dir_6203bca8e7b1befb208c21909c855e11</title>
<g id="a_node4"><a xlink:href="dir_6203bca8e7b1befb208c21909c855e11.html" target="_top" xlink:title="_test_">
<polygon fill="none" stroke="red" points="126,-36 72,-36 72,0 126,0 126,-36"/>
<text text-anchor="middle" x="99" y="-15.5" font-family="Helvetica,sans-Serif" font-size="10.00">_test_</text>
</a>
</g>
</g>
<!-- dir_c999b0683eed430f6c4e221983380c26&#45;&gt;dir_6203bca8e7b1befb208c21909c855e11 -->
<g id="edge2" class="edge">
<title>dir_c999b0683eed430f6c4e221983380c26&#45;&gt;dir_6203bca8e7b1befb208c21909c855e11</title>
<path fill="none" stroke="black" d="M99,-71.7C99,-63.98 99,-54.71 99,-46.11"/>
<polygon fill="black" stroke="black" points="102.5,-46.1 99,-36.1 95.5,-46.1 102.5,-46.1"/>
<g id="a_edge2&#45;headlabel"><a xlink:href="dir_000011_000021.html" target="_top" xlink:title="2">
<text text-anchor="middle" x="105.34" y="-47.2" font-family="Helvetica,sans-Serif" font-size="10.00">2</text>
</a>
</g>
</g>
<!-- dir_6cc2c7d93d56b76b7b3d581e07ae80af -->
<g id="node5" class="node">
<title>dir_6cc2c7d93d56b76b7b3d581e07ae80af</title>
<g id="a_node5"><a xlink:href="dir_6cc2c7d93d56b76b7b3d581e07ae80af.html" target="_top" xlink:title="utils_misc">
<polygon fill="none" stroke="red" points="210,-36 144,-36 144,0 210,0 210,-36"/>
<text text-anchor="middle" x="177" y="-15.5" font-family="Helvetica,sans-Serif" font-size="10.00">utils_misc</text>
</a>
</g>
</g>
<!-- dir_c999b0683eed430f6c4e221983380c26&#45;&gt;dir_6cc2c7d93d56b76b7b3d581e07ae80af -->
<g id="edge3" class="edge">
<title>dir_c999b0683eed430f6c4e221983380c26&#45;&gt;dir_6cc2c7d93d56b76b7b3d581e07ae80af</title>
<path fill="none" stroke="black" d="M118.28,-71.7C127.92,-63.05 139.73,-52.45 150.23,-43.03"/>
<polygon fill="black" stroke="black" points="152.84,-45.39 157.94,-36.1 148.16,-40.18 152.84,-45.39"/>
<g id="a_edge3&#45;headlabel"><a xlink:href="dir_000011_000000.html" target="_top" xlink:title="2">
<text text-anchor="middle" x="152.06" y="-47.4" font-family="Helvetica,sans-Serif" font-size="10.00">2</text>
</a>
</g>
</g>
</g>
</svg>
