<?xml version="1.0" encoding="UTF-8" standalone="no"?>
<!DOCTYPE svg PUBLIC "-//W3C//DTD SVG 1.1//EN"
 "http://www.w3.org/Graphics/SVG/1.1/DTD/svg11.dtd">
<!-- Generated by graphviz version 2.43.0 (0)
 -->
<!-- Title: so_out.h Pages: 1 -->
<svg width="475pt" height="252pt"
 viewBox="0.00 0.00 474.50 252.00" xmlns="http://www.w3.org/2000/svg" xmlns:xlink="http://www.w3.org/1999/xlink">
<g id="graph0" class="graph" transform="scale(1 1) rotate(0) translate(4 248)">
<title>so_out.h</title>
<!-- Node1 -->
<g id="node1" class="node">
<title>Node1</title>
<g id="a_node1"><a xlink:title="write formatted output to UoutWriter">
<polygon fill="#bfbfbf" stroke="black" points="208.5,-224.5 208.5,-243.5 266.5,-243.5 266.5,-224.5 208.5,-224.5"/>
<text text-anchor="middle" x="237.5" y="-231.5" font-family="Helvetica,sans-Serif" font-size="10.00">so_out.h</text>
</a>
</g>
</g>
<!-- Node2 -->
<g id="node2" class="node">
<title>Node2</title>
<g id="a_node2"><a xlink:href="so__target__desc_8hh.html" target="_top" xlink:title="Provide an output class hierarchy which knows about the required format (text or JSON) and write func...">
<polygon fill="none" stroke="black" points="145,-168.5 145,-187.5 250,-187.5 250,-168.5 145,-168.5"/>
<text text-anchor="middle" x="197.5" y="-175.5" font-family="Helvetica,sans-Serif" font-size="10.00">so_target_desc.hh</text>
</a>
</g>
</g>
<!-- Node1&#45;&gt;Node2 -->
<g id="edge1" class="edge">
<title>Node1&#45;&gt;Node2</title>
<path fill="none" stroke="midnightblue" d="M224.8,-215.86C217.87,-206.5 209.59,-195.33 203.98,-187.75"/>
<polygon fill="midnightblue" stroke="midnightblue" points="222.13,-218.13 230.89,-224.08 227.75,-213.96 222.13,-218.13"/>
</g>
<!-- Node6 -->
<g id="node6" class="node">
<title>Node6</title>
<g id="a_node6"><a xlink:href="uo__types_8h.html" target="_top" xlink:title="API parameter and return types.">
<polygon fill="none" stroke="black" points="243.5,-112.5 243.5,-131.5 313.5,-131.5 313.5,-112.5 243.5,-112.5"/>
<text text-anchor="middle" x="278.5" y="-119.5" font-family="Helvetica,sans-Serif" font-size="10.00">uo_types.h</text>
</a>
</g>
</g>
<!-- Node1&#45;&gt;Node6 -->
<g id="edge10" class="edge">
<title>Node1&#45;&gt;Node6</title>
<path fill="none" stroke="midnightblue" d="M246.61,-214.97C250.54,-206.84 255.01,-197.05 258.5,-188 266.14,-168.17 272.92,-144.09 276.28,-131.54"/>
<polygon fill="midnightblue" stroke="midnightblue" points="243.35,-213.68 242.05,-224.19 249.62,-216.78 243.35,-213.68"/>
</g>
<!-- Node3 -->
<g id="node3" class="node">
<title>Node3</title>
<g id="a_node3"><a xlink:href="settings_8hh.html" target="_top" xlink:title=" ">
<polygon fill="none" stroke="black" points="146,-112.5 146,-131.5 217,-131.5 217,-112.5 146,-112.5"/>
<text text-anchor="middle" x="181.5" y="-119.5" font-family="Helvetica,sans-Serif" font-size="10.00">settings.hh</text>
</a>
</g>
</g>
<!-- Node2&#45;&gt;Node3 -->
<g id="edge2" class="edge">
<title>Node2&#45;&gt;Node3</title>
<path fill="none" stroke="midnightblue" d="M191.99,-158.4C189.31,-149.36 186.22,-138.94 184.09,-131.75"/>
<polygon fill="midnightblue" stroke="midnightblue" points="188.66,-159.49 194.86,-168.08 195.37,-157.5 188.66,-159.49"/>
</g>
<!-- Node2&#45;&gt;Node6 -->
<g id="edge5" class="edge">
<title>Node2&#45;&gt;Node6</title>
<path fill="none" stroke="midnightblue" d="M219.07,-162.62C233.86,-152.76 253.01,-139.99 265.52,-131.65"/>
<polygon fill="midnightblue" stroke="midnightblue" points="216.89,-159.86 210.51,-168.32 220.78,-165.69 216.89,-159.86"/>
</g>
<!-- Node4 -->
<g id="node4" class="node">
<title>Node4</title>
<g id="a_node4"><a xlink:href="comp__settings_8hh.html" target="_top" xlink:title="Settings for shared components.">
<polygon fill="none" stroke="black" points="0,-56.5 0,-75.5 103,-75.5 103,-56.5 0,-56.5"/>
<text text-anchor="middle" x="51.5" y="-63.5" font-family="Helvetica,sans-Serif" font-size="10.00">comp_settings.hh</text>
</a>
</g>
</g>
<!-- Node3&#45;&gt;Node4 -->
<g id="edge3" class="edge">
<title>Node3&#45;&gt;Node4</title>
<path fill="none" stroke="midnightblue" d="M151.41,-108.5C127.04,-98.38 93.36,-84.39 72,-75.52"/>
<polygon fill="midnightblue" stroke="midnightblue" points="150.32,-111.84 160.9,-112.44 153.01,-105.38 150.32,-111.84"/>
</g>
<!-- Node5 -->
<g id="node5" class="node">
<title>Node5</title>
<g id="a_node5"><a xlink:href="settings__template_8hh_source.html" target="_top" xlink:title=" ">
<polygon fill="none" stroke="black" points="121.5,-56.5 121.5,-75.5 241.5,-75.5 241.5,-56.5 121.5,-56.5"/>
<text text-anchor="middle" x="181.5" y="-63.5" font-family="Helvetica,sans-Serif" font-size="10.00">settings_template.hh</text>
</a>
</g>
</g>
<!-- Node3&#45;&gt;Node5 -->
<g id="edge4" class="edge">
<title>Node3&#45;&gt;Node5</title>
<path fill="none" stroke="midnightblue" d="M181.5,-101.8C181.5,-92.91 181.5,-82.78 181.5,-75.75"/>
<polygon fill="midnightblue" stroke="midnightblue" points="178,-102.08 181.5,-112.08 185,-102.08 178,-102.08"/>
</g>
<!-- Node7 -->
<g id="node7" class="node">
<title>Node7</title>
<g id="a_node7"><a xlink:href="cli_8h.html" target="_top" xlink:title="cli framework">
<polygon fill="none" stroke="black" points="260,-56.5 260,-75.5 297,-75.5 297,-56.5 260,-56.5"/>
<text text-anchor="middle" x="278.5" y="-63.5" font-family="Helvetica,sans-Serif" font-size="10.00">cli.h</text>
</a>
</g>
</g>
<!-- Node6&#45;&gt;Node7 -->
<g id="edge6" class="edge">
<title>Node6&#45;&gt;Node7</title>
<path fill="none" stroke="midnightblue" d="M278.5,-101.8C278.5,-92.91 278.5,-82.78 278.5,-75.75"/>
<polygon fill="midnightblue" stroke="midnightblue" points="275,-102.08 278.5,-112.08 282,-102.08 275,-102.08"/>
</g>
<!-- Node8 -->
<g id="node8" class="node">
<title>Node8</title>
<g id="a_node8"><a xlink:href="uo__callbacks_8h.html" target="_top" xlink:title="pub/sub interface to publish asynchronously to MQTT servers, HTTP&#45;client web&#45;sockets,...">
<polygon fill="none" stroke="black" points="315,-56.5 315,-75.5 404,-75.5 404,-56.5 315,-56.5"/>
<text text-anchor="middle" x="359.5" y="-63.5" font-family="Helvetica,sans-Serif" font-size="10.00">uo_callbacks.h</text>
</a>
</g>
</g>
<!-- Node6&#45;&gt;Node8 -->
<g id="edge7" class="edge">
<title>Node6&#45;&gt;Node8</title>
<path fill="none" stroke="midnightblue" d="M300.07,-106.62C314.86,-96.76 334.01,-83.99 346.52,-75.65"/>
<polygon fill="midnightblue" stroke="midnightblue" points="297.89,-103.86 291.51,-112.32 301.78,-109.69 297.89,-103.86"/>
</g>
<!-- Node9 -->
<g id="node9" class="node">
<title>Node9</title>
<g id="a_node9"><a xlink:href="tcp__cli__server__setup_8hh.html" target="_top" xlink:title="Create TCP server for interactive and non&#45;interactive CLI clients.">
<polygon fill="none" stroke="black" points="231,-0.5 231,-19.5 362,-19.5 362,-0.5 231,-0.5"/>
<text text-anchor="middle" x="296.5" y="-7.5" font-family="Helvetica,sans-Serif" font-size="10.00">tcp_cli_server_setup.hh</text>
</a>
</g>
</g>
<!-- Node8&#45;&gt;Node9 -->
<g id="edge8" class="edge">
<title>Node8&#45;&gt;Node9</title>
<path fill="none" stroke="midnightblue" d="M341.46,-49.54C330.23,-39.91 316.18,-27.87 306.81,-19.83"/>
<polygon fill="midnightblue" stroke="midnightblue" points="339.51,-52.47 349.38,-56.32 344.06,-47.16 339.51,-52.47"/>
</g>
<!-- Node10 -->
<g id="node10" class="node">
<title>Node10</title>
<g id="a_node10"><a xlink:href="txtio__setup_8hh_source.html" target="_top" xlink:title=" ">
<polygon fill="none" stroke="black" points="380.5,-0.5 380.5,-19.5 466.5,-19.5 466.5,-0.5 380.5,-0.5"/>
<text text-anchor="middle" x="423.5" y="-7.5" font-family="Helvetica,sans-Serif" font-size="10.00">txtio_setup.hh</text>
</a>
</g>
</g>
<!-- Node8&#45;&gt;Node10 -->
<g id="edge9" class="edge">
<title>Node8&#45;&gt;Node10</title>
<path fill="none" stroke="midnightblue" d="M377.49,-49.82C388.96,-40.15 403.41,-27.95 413.03,-19.83"/>
<polygon fill="midnightblue" stroke="midnightblue" points="375.17,-47.2 369.78,-56.32 379.68,-52.55 375.17,-47.2"/>
</g>
</g>
</svg>
