<?xml version="1.0" encoding="UTF-8" standalone="no"?>
<!DOCTYPE svg PUBLIC "-//W3C//DTD SVG 1.1//EN"
 "http://www.w3.org/Graphics/SVG/1.1/DTD/svg11.dtd">
<!-- Generated by graphviz version 2.43.0 (0)
 -->
<!-- Title: so_target_desc.hh Pages: 1 -->
<svg width="761pt" height="140pt"
 viewBox="0.00 0.00 760.50 140.00" xmlns="http://www.w3.org/2000/svg" xmlns:xlink="http://www.w3.org/1999/xlink">
<g id="graph0" class="graph" transform="scale(1 1) rotate(0) translate(4 136)">
<title>so_target_desc.hh</title>
<!-- Node1 -->
<g id="node1" class="node">
<title>Node1</title>
<g id="a_node1"><a xlink:title="Provide an output class hierarchy which knows about the required format (text or JSON) and write func...">
<polygon fill="#bfbfbf" stroke="black" points="291.5,-112.5 291.5,-131.5 396.5,-131.5 396.5,-112.5 291.5,-112.5"/>
<text text-anchor="middle" x="344" y="-119.5" font-family="Helvetica,sans-Serif" font-size="10.00">so_target_desc.hh</text>
</a>
</g>
</g>
<!-- Node2 -->
<g id="node2" class="node">
<title>Node2</title>
<g id="a_node2"><a xlink:href="so__out_8h.html" target="_top" xlink:title="write formatted output to UoutWriter">
<polygon fill="none" stroke="black" points="0,-56.5 0,-75.5 58,-75.5 58,-56.5 0,-56.5"/>
<text text-anchor="middle" x="29" y="-63.5" font-family="Helvetica,sans-Serif" font-size="10.00">so_out.h</text>
</a>
</g>
</g>
<!-- Node1&#45;&gt;Node2 -->
<g id="edge1" class="edge">
<title>Node1&#45;&gt;Node2</title>
<path fill="none" stroke="midnightblue" d="M291.49,-112.99C236.62,-104.46 148.1,-90.25 72,-76 70.73,-75.76 69.45,-75.52 68.15,-75.27"/>
<polygon fill="midnightblue" stroke="midnightblue" points="68.6,-71.79 58.11,-73.27 67.23,-78.65 68.6,-71.79"/>
</g>
<!-- Node3 -->
<g id="node3" class="node">
<title>Node3</title>
<g id="a_node3"><a xlink:href="so__target__bits_8h.html" target="_top" xlink:title="flags to select output formats and targets">
<polygon fill="none" stroke="black" points="15.5,-0.5 15.5,-19.5 110.5,-19.5 110.5,-0.5 15.5,-0.5"/>
<text text-anchor="middle" x="63" y="-7.5" font-family="Helvetica,sans-Serif" font-size="10.00">so_target_bits.h</text>
</a>
</g>
</g>
<!-- Node1&#45;&gt;Node3 -->
<g id="edge5" class="edge">
<title>Node1&#45;&gt;Node3</title>
<path fill="none" stroke="midnightblue" d="M291.29,-115.95C230.41,-109.29 134.79,-96.02 105,-76 88.15,-64.68 76.55,-44.07 69.89,-29.09"/>
<polygon fill="midnightblue" stroke="midnightblue" points="73.1,-27.7 66.05,-19.8 66.63,-30.37 73.1,-27.7"/>
</g>
<!-- Node4 -->
<g id="node4" class="node">
<title>Node4</title>
<g id="a_node4"><a xlink:href="cli__out_8h.html" target="_top" xlink:title="Textual output for console CLI.">
<polygon fill="none" stroke="black" points="114,-56.5 114,-75.5 172,-75.5 172,-56.5 114,-56.5"/>
<text text-anchor="middle" x="143" y="-63.5" font-family="Helvetica,sans-Serif" font-size="10.00">cli_out.h</text>
</a>
</g>
</g>
<!-- Node1&#45;&gt;Node4 -->
<g id="edge3" class="edge">
<title>Node1&#45;&gt;Node4</title>
<path fill="none" stroke="midnightblue" d="M312.15,-112.44C276.79,-102.94 219.7,-87.61 181.77,-77.42"/>
<polygon fill="midnightblue" stroke="midnightblue" points="182.66,-74.03 172.09,-74.82 180.84,-80.79 182.66,-74.03"/>
</g>
<!-- Node5 -->
<g id="node5" class="node">
<title>Node5</title>
<g id="a_node5"><a xlink:title=" ">
<polygon fill="none" stroke="#bfbfbf" points="139.5,-0.5 139.5,-19.5 192.5,-19.5 192.5,-0.5 139.5,-0.5"/>
<text text-anchor="middle" x="166" y="-7.5" font-family="Helvetica,sans-Serif" font-size="10.00">stdint.h</text>
</a>
</g>
</g>
<!-- Node1&#45;&gt;Node5 -->
<g id="edge9" class="edge">
<title>Node1&#45;&gt;Node5</title>
<path fill="none" stroke="midnightblue" d="M303.94,-112.48C278.03,-105.61 244.51,-94.06 219,-76 201.06,-63.3 185.85,-42.98 176.39,-28.44"/>
<polygon fill="midnightblue" stroke="midnightblue" points="179.3,-26.49 171.03,-19.86 173.36,-30.19 179.3,-26.49"/>
</g>
<!-- Node6 -->
<g id="node6" class="node">
<title>Node6</title>
<g id="a_node6"><a xlink:href="status__json_8hh.html" target="_top" xlink:title="Create JSON output from key/val pairs.">
<polygon fill="none" stroke="black" points="228.5,-56.5 228.5,-75.5 315.5,-75.5 315.5,-56.5 228.5,-56.5"/>
<text text-anchor="middle" x="272" y="-63.5" font-family="Helvetica,sans-Serif" font-size="10.00">status_json.hh</text>
</a>
</g>
</g>
<!-- Node1&#45;&gt;Node6 -->
<g id="edge6" class="edge">
<title>Node1&#45;&gt;Node6</title>
<path fill="none" stroke="midnightblue" d="M332.43,-112.32C321.58,-104.18 305.12,-91.84 292.12,-82.09"/>
<polygon fill="midnightblue" stroke="midnightblue" points="293.88,-79.03 283.78,-75.83 289.68,-84.63 293.88,-79.03"/>
</g>
<!-- Node8 -->
<g id="node8" class="node">
<title>Node8</title>
<g id="a_node8"><a xlink:title=" ">
<polygon fill="none" stroke="#bfbfbf" points="311.5,-0.5 311.5,-19.5 376.5,-19.5 376.5,-0.5 311.5,-0.5"/>
<text text-anchor="middle" x="344" y="-7.5" font-family="Helvetica,sans-Serif" font-size="10.00">functional</text>
</a>
</g>
</g>
<!-- Node1&#45;&gt;Node8 -->
<g id="edge14" class="edge">
<title>Node1&#45;&gt;Node8</title>
<path fill="none" stroke="midnightblue" d="M344,-112.37C344,-94.62 344,-53.67 344,-29.6"/>
<polygon fill="midnightblue" stroke="midnightblue" points="347.5,-29.59 344,-19.59 340.5,-29.59 347.5,-29.59"/>
</g>
<!-- Node9 -->
<g id="node9" class="node">
<title>Node9</title>
<g id="a_node9"><a xlink:title=" ">
<polygon fill="none" stroke="#bfbfbf" points="372,-56.5 372,-75.5 428,-75.5 428,-56.5 372,-56.5"/>
<text text-anchor="middle" x="400" y="-63.5" font-family="Helvetica,sans-Serif" font-size="10.00">unistd.h</text>
</a>
</g>
</g>
<!-- Node1&#45;&gt;Node9 -->
<g id="edge10" class="edge">
<title>Node1&#45;&gt;Node9</title>
<path fill="none" stroke="midnightblue" d="M353,-112.32C361.19,-104.42 373.51,-92.55 383.47,-82.94"/>
<polygon fill="midnightblue" stroke="midnightblue" points="386.07,-85.29 390.84,-75.83 381.21,-80.26 386.07,-85.29"/>
</g>
<!-- Node10 -->
<g id="node10" class="node">
<title>Node10</title>
<g id="a_node10"><a xlink:title=" ">
<polygon fill="none" stroke="#bfbfbf" points="446.5,-56.5 446.5,-75.5 499.5,-75.5 499.5,-56.5 446.5,-56.5"/>
<text text-anchor="middle" x="473" y="-63.5" font-family="Helvetica,sans-Serif" font-size="10.00">string.h</text>
</a>
</g>
</g>
<!-- Node1&#45;&gt;Node10 -->
<g id="edge11" class="edge">
<title>Node1&#45;&gt;Node10</title>
<path fill="none" stroke="midnightblue" d="M364.44,-112.44C385.67,-103.56 419.1,-89.56 443.25,-79.45"/>
<polygon fill="midnightblue" stroke="midnightblue" points="444.78,-82.61 452.66,-75.52 442.08,-76.15 444.78,-82.61"/>
</g>
<!-- Node11 -->
<g id="node11" class="node">
<title>Node11</title>
<g id="a_node11"><a xlink:title=" ">
<polygon fill="none" stroke="#bfbfbf" points="518,-56.5 518,-75.5 574,-75.5 574,-56.5 518,-56.5"/>
<text text-anchor="middle" x="546" y="-63.5" font-family="Helvetica,sans-Serif" font-size="10.00">assert.h</text>
</a>
</g>
</g>
<!-- Node1&#45;&gt;Node11 -->
<g id="edge12" class="edge">
<title>Node1&#45;&gt;Node11</title>
<path fill="none" stroke="midnightblue" d="M376.01,-112.44C411.85,-102.86 469.9,-87.34 508.02,-77.15"/>
<polygon fill="midnightblue" stroke="midnightblue" points="508.97,-80.52 517.73,-74.56 507.16,-73.76 508.97,-80.52"/>
</g>
<!-- Node12 -->
<g id="node12" class="node">
<title>Node12</title>
<g id="a_node12"><a xlink:href="itoa_8h_source.html" target="_top" xlink:title=" ">
<polygon fill="none" stroke="black" points="592.5,-56.5 592.5,-75.5 689.5,-75.5 689.5,-56.5 592.5,-56.5"/>
<text text-anchor="middle" x="641" y="-63.5" font-family="Helvetica,sans-Serif" font-size="10.00">utils_misc/itoa.h</text>
</a>
</g>
</g>
<!-- Node1&#45;&gt;Node12 -->
<g id="edge13" class="edge">
<title>Node1&#45;&gt;Node12</title>
<path fill="none" stroke="midnightblue" d="M391.06,-112.44C443.41,-102.92 527.99,-87.55 584.04,-77.36"/>
<polygon fill="midnightblue" stroke="midnightblue" points="584.95,-80.75 594.16,-75.52 583.69,-73.86 584.95,-80.75"/>
</g>
<!-- Node13 -->
<g id="node13" class="node">
<title>Node13</title>
<g id="a_node13"><a xlink:title=" ">
<polygon fill="none" stroke="#bfbfbf" points="707.5,-56.5 707.5,-75.5 752.5,-75.5 752.5,-56.5 707.5,-56.5"/>
<text text-anchor="middle" x="730" y="-63.5" font-family="Helvetica,sans-Serif" font-size="10.00">utility</text>
</a>
</g>
</g>
<!-- Node1&#45;&gt;Node13 -->
<g id="edge15" class="edge">
<title>Node1&#45;&gt;Node13</title>
<path fill="none" stroke="midnightblue" d="M396.75,-116.91C464.42,-111.09 585.49,-98.75 697.32,-76.08"/>
<polygon fill="midnightblue" stroke="midnightblue" points="698.33,-79.45 707.42,-74 696.92,-72.59 698.33,-79.45"/>
</g>
<!-- Node2&#45;&gt;Node3 -->
<g id="edge2" class="edge">
<title>Node2&#45;&gt;Node3</title>
<path fill="none" stroke="midnightblue" d="M34.61,-56.08C39.37,-48.53 46.32,-37.49 52.15,-28.23"/>
<polygon fill="midnightblue" stroke="midnightblue" points="55.12,-30.08 57.49,-19.75 49.2,-26.35 55.12,-30.08"/>
</g>
<!-- Node4&#45;&gt;Node5 -->
<g id="edge4" class="edge">
<title>Node4&#45;&gt;Node5</title>
<path fill="none" stroke="midnightblue" d="M146.8,-56.08C149.91,-48.77 154.42,-38.18 158.29,-29.1"/>
<polygon fill="midnightblue" stroke="midnightblue" points="161.57,-30.32 162.27,-19.75 155.13,-27.58 161.57,-30.32"/>
</g>
<!-- Node7 -->
<g id="node7" class="node">
<title>Node7</title>
<g id="a_node7"><a xlink:title=" ">
<polygon fill="none" stroke="#bfbfbf" points="240.5,-0.5 240.5,-19.5 293.5,-19.5 293.5,-0.5 240.5,-0.5"/>
<text text-anchor="middle" x="267" y="-7.5" font-family="Helvetica,sans-Serif" font-size="10.00">stdlib.h</text>
</a>
</g>
</g>
<!-- Node6&#45;&gt;Node7 -->
<g id="edge7" class="edge">
<title>Node6&#45;&gt;Node7</title>
<path fill="none" stroke="midnightblue" d="M271.17,-56.08C270.52,-49.01 269.58,-38.86 268.76,-29.99"/>
<polygon fill="midnightblue" stroke="midnightblue" points="272.22,-29.39 267.81,-19.75 265.25,-30.03 272.22,-29.39"/>
</g>
<!-- Node6&#45;&gt;Node8 -->
<g id="edge8" class="edge">
<title>Node6&#45;&gt;Node8</title>
<path fill="none" stroke="midnightblue" d="M283.57,-56.32C294.42,-48.18 310.88,-35.84 323.88,-26.09"/>
<polygon fill="midnightblue" stroke="midnightblue" points="326.32,-28.63 332.22,-19.83 322.12,-23.03 326.32,-28.63"/>
</g>
</g>
</svg>
