<?xml version="1.0" encoding="UTF-8" standalone="no"?>
<!DOCTYPE svg PUBLIC "-//W3C//DTD SVG 1.1//EN"
 "http://www.w3.org/Graphics/SVG/1.1/DTD/svg11.dtd">
<!-- Generated by graphviz version 2.43.0 (0)
 -->
<!-- Title: uo_types.h Pages: 1 -->
<svg width="244pt" height="140pt"
 viewBox="0.00 0.00 243.50 140.00" xmlns="http://www.w3.org/2000/svg" xmlns:xlink="http://www.w3.org/1999/xlink">
<g id="graph0" class="graph" transform="scale(1 1) rotate(0) translate(4 136)">
<title>uo_types.h</title>
<!-- Node1 -->
<g id="node1" class="node">
<title>Node1</title>
<g id="a_node1"><a xlink:title="API parameter and return types.">
<polygon fill="#bfbfbf" stroke="black" points="53.5,-112.5 53.5,-131.5 123.5,-131.5 123.5,-112.5 53.5,-112.5"/>
<text text-anchor="middle" x="88.5" y="-119.5" font-family="Helvetica,sans-Serif" font-size="10.00">uo_types.h</text>
</a>
</g>
</g>
<!-- Node2 -->
<g id="node2" class="node">
<title>Node2</title>
<g id="a_node2"><a xlink:href="cli_8h.html" target="_top" xlink:title="cli framework">
<polygon fill="none" stroke="black" points="30,-56.5 30,-75.5 67,-75.5 67,-56.5 30,-56.5"/>
<text text-anchor="middle" x="48.5" y="-63.5" font-family="Helvetica,sans-Serif" font-size="10.00">cli.h</text>
</a>
</g>
</g>
<!-- Node1&#45;&gt;Node2 -->
<g id="edge1" class="edge">
<title>Node1&#45;&gt;Node2</title>
<path fill="none" stroke="midnightblue" d="M75.8,-103.86C68.87,-94.5 60.59,-83.33 54.98,-75.75"/>
<polygon fill="midnightblue" stroke="midnightblue" points="73.13,-106.13 81.89,-112.08 78.75,-101.96 73.13,-106.13"/>
</g>
<!-- Node3 -->
<g id="node3" class="node">
<title>Node3</title>
<g id="a_node3"><a xlink:href="uo__callbacks_8h.html" target="_top" xlink:title="pub/sub interface to publish asynchronously to MQTT servers, HTTP&#45;client web&#45;sockets,...">
<polygon fill="none" stroke="black" points="85,-56.5 85,-75.5 174,-75.5 174,-56.5 85,-56.5"/>
<text text-anchor="middle" x="129.5" y="-63.5" font-family="Helvetica,sans-Serif" font-size="10.00">uo_callbacks.h</text>
</a>
</g>
</g>
<!-- Node1&#45;&gt;Node3 -->
<g id="edge2" class="edge">
<title>Node1&#45;&gt;Node3</title>
<path fill="none" stroke="midnightblue" d="M101.52,-103.86C108.62,-94.5 117.1,-83.33 122.86,-75.75"/>
<polygon fill="midnightblue" stroke="midnightblue" points="98.53,-102 95.27,-112.08 104.11,-106.24 98.53,-102"/>
</g>
<!-- Node4 -->
<g id="node4" class="node">
<title>Node4</title>
<g id="a_node4"><a xlink:href="tcp__cli__server__setup_8hh.html" target="_top" xlink:title="Create TCP server for interactive and non&#45;interactive CLI clients.">
<polygon fill="none" stroke="black" points="0,-0.5 0,-19.5 131,-19.5 131,-0.5 0,-0.5"/>
<text text-anchor="middle" x="65.5" y="-7.5" font-family="Helvetica,sans-Serif" font-size="10.00">tcp_cli_server_setup.hh</text>
</a>
</g>
</g>
<!-- Node3&#45;&gt;Node4 -->
<g id="edge3" class="edge">
<title>Node3&#45;&gt;Node4</title>
<path fill="none" stroke="midnightblue" d="M111.51,-49.82C100.04,-40.15 85.59,-27.95 75.97,-19.83"/>
<polygon fill="midnightblue" stroke="midnightblue" points="109.32,-52.55 119.22,-56.32 113.83,-47.2 109.32,-52.55"/>
</g>
<!-- Node5 -->
<g id="node5" class="node">
<title>Node5</title>
<g id="a_node5"><a xlink:href="txtio__setup_8hh_source.html" target="_top" xlink:title=" ">
<polygon fill="none" stroke="black" points="149.5,-0.5 149.5,-19.5 235.5,-19.5 235.5,-0.5 149.5,-0.5"/>
<text text-anchor="middle" x="192.5" y="-7.5" font-family="Helvetica,sans-Serif" font-size="10.00">txtio_setup.hh</text>
</a>
</g>
</g>
<!-- Node3&#45;&gt;Node5 -->
<g id="edge4" class="edge">
<title>Node3&#45;&gt;Node5</title>
<path fill="none" stroke="midnightblue" d="M147.54,-49.54C158.77,-39.91 172.82,-27.87 182.19,-19.83"/>
<polygon fill="midnightblue" stroke="midnightblue" points="144.94,-47.16 139.62,-56.32 149.49,-52.47 144.94,-47.16"/>
</g>
</g>
</svg>
