<?xml version="1.0" encoding="UTF-8" standalone="no"?>
<!DOCTYPE svg PUBLIC "-//W3C//DTD SVG 1.1//EN"
 "http://www.w3.org/Graphics/SVG/1.1/DTD/svg11.dtd">
<!-- Generated by graphviz version 2.43.0 (0)
 -->
<!-- Title: /home/bertw/proj/mcu/components&#45;mcu/cli/include/cli/cli.h Pages: 1 -->
<svg width="936pt" height="274pt"
 viewBox="0.00 0.00 935.50 274.00" xmlns="http://www.w3.org/2000/svg" xmlns:xlink="http://www.w3.org/1999/xlink">
<g id="graph0" class="graph" transform="scale(1 1) rotate(0) translate(4 270)">
<title>/home/bertw/proj/mcu/components&#45;mcu/cli/include/cli/cli.h</title>
<!-- Node1 -->
<g id="node1" class="node">
<title>Node1</title>
<g id="a_node1"><a xlink:title="cli framework">
<polygon fill="#bfbfbf" stroke="black" points="555,-224.5 555,-265.5 712,-265.5 712,-224.5 555,-224.5"/>
<text text-anchor="start" x="563" y="-253.5" font-family="Helvetica,sans-Serif" font-size="10.00">/home/bertw/proj/mcu</text>
<text text-anchor="start" x="563" y="-242.5" font-family="Helvetica,sans-Serif" font-size="10.00">/components&#45;mcu/cli/include</text>
<text text-anchor="middle" x="633.5" y="-231.5" font-family="Helvetica,sans-Serif" font-size="10.00">/cli/cli.h</text>
</a>
</g>
</g>
<!-- Node2 -->
<g id="node2" class="node">
<title>Node2</title>
<g id="a_node2"><a xlink:href="uo__types_8h.html" target="_top" xlink:title="API parameter and return types.">
<polygon fill="none" stroke="black" points="503,-168.5 503,-187.5 598,-187.5 598,-168.5 503,-168.5"/>
<text text-anchor="middle" x="550.5" y="-175.5" font-family="Helvetica,sans-Serif" font-size="10.00">uout/uo_types.h</text>
</a>
</g>
</g>
<!-- Node1&#45;&gt;Node2 -->
<g id="edge1" class="edge">
<title>Node1&#45;&gt;Node2</title>
<path fill="none" stroke="midnightblue" d="M608.6,-224.5C596.12,-214.72 581.24,-203.07 569.66,-194.01"/>
<polygon fill="midnightblue" stroke="midnightblue" points="571.58,-191.06 561.55,-187.65 567.26,-196.57 571.58,-191.06"/>
</g>
<!-- Node16 -->
<g id="node16" class="node">
<title>Node16</title>
<g id="a_node16"><a xlink:href="cli__types_8h.html" target="_top" xlink:title="cli framework: vocabulary types">
<polygon fill="none" stroke="black" points="803,-168.5 803,-187.5 872,-187.5 872,-168.5 803,-168.5"/>
<text text-anchor="middle" x="837.5" y="-175.5" font-family="Helvetica,sans-Serif" font-size="10.00">cli_types.h</text>
</a>
</g>
</g>
<!-- Node1&#45;&gt;Node16 -->
<g id="edge24" class="edge">
<title>Node1&#45;&gt;Node16</title>
<path fill="none" stroke="midnightblue" d="M694.71,-224.5C729.25,-213.49 771.26,-200.11 800.74,-190.71"/>
<polygon fill="midnightblue" stroke="midnightblue" points="802.15,-193.94 810.61,-187.57 800.02,-187.27 802.15,-193.94"/>
</g>
<!-- Node3 -->
<g id="node3" class="node">
<title>Node3</title>
<g id="a_node3"><a xlink:href="so__target__bits_8h.html" target="_top" xlink:title="flags to select output formats and targets">
<polygon fill="none" stroke="black" points="0,-0.5 0,-19.5 95,-19.5 95,-0.5 0,-0.5"/>
<text text-anchor="middle" x="47.5" y="-7.5" font-family="Helvetica,sans-Serif" font-size="10.00">so_target_bits.h</text>
</a>
</g>
</g>
<!-- Node2&#45;&gt;Node3 -->
<g id="edge2" class="edge">
<title>Node2&#45;&gt;Node3</title>
<path fill="none" stroke="midnightblue" d="M502.78,-175.73C382.2,-171.41 70.56,-152.88 9.5,-76 -2.92,-60.37 13.01,-40.25 27.87,-26.57"/>
<polygon fill="midnightblue" stroke="midnightblue" points="30.55,-28.88 35.84,-19.7 25.98,-23.58 30.55,-28.88"/>
</g>
<!-- Node4 -->
<g id="node4" class="node">
<title>Node4</title>
<g id="a_node4"><a xlink:href="so__target__desc_8hh.html" target="_top" xlink:title="Provide an output class hierarchy which knows about the required format (text or JSON) and write func...">
<polygon fill="none" stroke="black" points="355,-112.5 355,-131.5 460,-131.5 460,-112.5 355,-112.5"/>
<text text-anchor="middle" x="407.5" y="-119.5" font-family="Helvetica,sans-Serif" font-size="10.00">so_target_desc.hh</text>
</a>
</g>
</g>
<!-- Node2&#45;&gt;Node4 -->
<g id="edge3" class="edge">
<title>Node2&#45;&gt;Node4</title>
<path fill="none" stroke="midnightblue" d="M527.84,-168.44C504.1,-159.48 466.59,-145.31 439.76,-135.18"/>
<polygon fill="midnightblue" stroke="midnightblue" points="440.64,-131.77 430.05,-131.52 438.17,-138.32 440.64,-131.77"/>
</g>
<!-- Node5 -->
<g id="node5" class="node">
<title>Node5</title>
<g id="a_node5"><a xlink:href="so__out_8h.html" target="_top" xlink:title="write formatted output to UoutWriter">
<polygon fill="none" stroke="black" points="18.5,-56.5 18.5,-75.5 76.5,-75.5 76.5,-56.5 18.5,-56.5"/>
<text text-anchor="middle" x="47.5" y="-63.5" font-family="Helvetica,sans-Serif" font-size="10.00">so_out.h</text>
</a>
</g>
</g>
<!-- Node2&#45;&gt;Node5 -->
<g id="edge19" class="edge">
<title>Node2&#45;&gt;Node5</title>
<path fill="none" stroke="midnightblue" d="M511.45,-168.46C417.67,-147.95 180.6,-96.11 86.69,-75.57"/>
<polygon fill="midnightblue" stroke="midnightblue" points="87.26,-72.11 76.74,-73.39 85.76,-78.95 87.26,-72.11"/>
</g>
<!-- Node7 -->
<g id="node7" class="node">
<title>Node7</title>
<g id="a_node7"><a xlink:title=" ">
<polygon fill="none" stroke="#bfbfbf" points="671,-0.5 671,-19.5 724,-19.5 724,-0.5 671,-0.5"/>
<text text-anchor="middle" x="697.5" y="-7.5" font-family="Helvetica,sans-Serif" font-size="10.00">stdint.h</text>
</a>
</g>
</g>
<!-- Node2&#45;&gt;Node7 -->
<g id="edge21" class="edge">
<title>Node2&#45;&gt;Node7</title>
<path fill="none" stroke="midnightblue" d="M598,-171.6C652.97,-162.5 740.99,-138.48 780.5,-76 795.57,-52.16 762.43,-33.47 733.66,-22.37"/>
<polygon fill="midnightblue" stroke="midnightblue" points="734.74,-19.04 724.14,-18.9 732.34,-25.61 734.74,-19.04"/>
</g>
<!-- Node8 -->
<g id="node8" class="node">
<title>Node8</title>
<g id="a_node8"><a xlink:href="status__json_8hh.html" target="_top" xlink:title="Create JSON output from key/val pairs.">
<polygon fill="none" stroke="black" points="424,-56.5 424,-75.5 511,-75.5 511,-56.5 424,-56.5"/>
<text text-anchor="middle" x="467.5" y="-63.5" font-family="Helvetica,sans-Serif" font-size="10.00">status_json.hh</text>
</a>
</g>
</g>
<!-- Node2&#45;&gt;Node8 -->
<g id="edge20" class="edge">
<title>Node2&#45;&gt;Node8</title>
<path fill="none" stroke="midnightblue" d="M543.99,-168.37C530.23,-150.14 498,-107.43 480.08,-83.68"/>
<polygon fill="midnightblue" stroke="midnightblue" points="482.8,-81.47 473.98,-75.59 477.21,-85.68 482.8,-81.47"/>
</g>
<!-- Node11 -->
<g id="node11" class="node">
<title>Node11</title>
<g id="a_node11"><a xlink:title=" ">
<polygon fill="none" stroke="#bfbfbf" points="643.5,-56.5 643.5,-75.5 699.5,-75.5 699.5,-56.5 643.5,-56.5"/>
<text text-anchor="middle" x="671.5" y="-63.5" font-family="Helvetica,sans-Serif" font-size="10.00">unistd.h</text>
</a>
</g>
</g>
<!-- Node2&#45;&gt;Node11 -->
<g id="edge22" class="edge">
<title>Node2&#45;&gt;Node11</title>
<path fill="none" stroke="midnightblue" d="M559.99,-168.37C580.4,-149.81 628.7,-105.91 654.52,-82.44"/>
<polygon fill="midnightblue" stroke="midnightblue" points="657,-84.91 662.05,-75.59 652.3,-79.73 657,-84.91"/>
</g>
<!-- Node12 -->
<g id="node12" class="node">
<title>Node12</title>
<g id="a_node12"><a xlink:title=" ">
<polygon fill="none" stroke="#bfbfbf" points="718,-56.5 718,-75.5 771,-75.5 771,-56.5 718,-56.5"/>
<text text-anchor="middle" x="744.5" y="-63.5" font-family="Helvetica,sans-Serif" font-size="10.00">string.h</text>
</a>
</g>
</g>
<!-- Node2&#45;&gt;Node12 -->
<g id="edge23" class="edge">
<title>Node2&#45;&gt;Node12</title>
<path fill="none" stroke="midnightblue" d="M565.72,-168.37C599.3,-149.33 679.92,-103.62 720.43,-80.65"/>
<polygon fill="midnightblue" stroke="midnightblue" points="722.38,-83.57 729.35,-75.59 718.92,-77.48 722.38,-83.57"/>
</g>
<!-- Node4&#45;&gt;Node3 -->
<g id="edge8" class="edge">
<title>Node4&#45;&gt;Node3</title>
<path fill="none" stroke="midnightblue" d="M354.78,-121.1C295.82,-119.33 198.74,-110.72 123.5,-76 98.76,-64.58 75.79,-42.74 61.72,-27.54"/>
<polygon fill="midnightblue" stroke="midnightblue" points="64.14,-25 54.86,-19.89 58.93,-29.67 64.14,-25"/>
</g>
<!-- Node4&#45;&gt;Node5 -->
<g id="edge4" class="edge">
<title>Node4&#45;&gt;Node5</title>
<path fill="none" stroke="midnightblue" d="M354.89,-114.6C291.86,-106.69 183.16,-92.26 90.5,-76 89.23,-75.78 87.94,-75.55 86.65,-75.31"/>
<polygon fill="midnightblue" stroke="midnightblue" points="87.08,-71.82 76.59,-73.36 85.75,-78.7 87.08,-71.82"/>
</g>
<!-- Node6 -->
<g id="node6" class="node">
<title>Node6</title>
<g id="a_node6"><a xlink:href="cli__out_8h.html" target="_top" xlink:title="Textual output for console CLI.">
<polygon fill="none" stroke="black" points="567.5,-56.5 567.5,-75.5 625.5,-75.5 625.5,-56.5 567.5,-56.5"/>
<text text-anchor="middle" x="596.5" y="-63.5" font-family="Helvetica,sans-Serif" font-size="10.00">cli_out.h</text>
</a>
</g>
</g>
<!-- Node4&#45;&gt;Node6 -->
<g id="edge6" class="edge">
<title>Node4&#45;&gt;Node6</title>
<path fill="none" stroke="midnightblue" d="M437.45,-112.44C469.85,-103.19 521.64,-88.39 557.27,-78.21"/>
<polygon fill="midnightblue" stroke="midnightblue" points="558.66,-81.45 567.31,-75.34 556.74,-74.72 558.66,-81.45"/>
</g>
<!-- Node4&#45;&gt;Node7 -->
<g id="edge12" class="edge">
<title>Node4&#45;&gt;Node7</title>
<path fill="none" stroke="midnightblue" d="M430.5,-112.47C453.32,-103.84 489.19,-89.83 519.5,-76 537.22,-67.92 540.51,-63.47 558.5,-56 592.51,-41.88 632.65,-29.31 661.02,-21.06"/>
<polygon fill="midnightblue" stroke="midnightblue" points="662.27,-24.35 670.91,-18.23 660.34,-17.62 662.27,-24.35"/>
</g>
<!-- Node4&#45;&gt;Node8 -->
<g id="edge9" class="edge">
<title>Node4&#45;&gt;Node8</title>
<path fill="none" stroke="midnightblue" d="M417.14,-112.32C426.01,-104.34 439.37,-92.31 450.11,-82.65"/>
<polygon fill="midnightblue" stroke="midnightblue" points="452.59,-85.13 457.68,-75.83 447.91,-79.92 452.59,-85.13"/>
</g>
<!-- Node10 -->
<g id="node10" class="node">
<title>Node10</title>
<g id="a_node10"><a xlink:title=" ">
<polygon fill="none" stroke="#bfbfbf" points="363,-0.5 363,-19.5 428,-19.5 428,-0.5 363,-0.5"/>
<text text-anchor="middle" x="395.5" y="-7.5" font-family="Helvetica,sans-Serif" font-size="10.00">functional</text>
</a>
</g>
</g>
<!-- Node4&#45;&gt;Node10 -->
<g id="edge17" class="edge">
<title>Node4&#45;&gt;Node10</title>
<path fill="none" stroke="midnightblue" d="M406.56,-112.37C404.62,-94.62 400.15,-53.67 397.53,-29.6"/>
<polygon fill="midnightblue" stroke="midnightblue" points="401,-29.15 396.44,-19.59 394.04,-29.91 401,-29.15"/>
</g>
<!-- Node4&#45;&gt;Node11 -->
<g id="edge13" class="edge">
<title>Node4&#45;&gt;Node11</title>
<path fill="none" stroke="midnightblue" d="M453.71,-112.44C497.51,-104.19 565.38,-91.07 633.24,-76.21"/>
<polygon fill="midnightblue" stroke="midnightblue" points="634.23,-79.57 643.25,-74 632.73,-72.74 634.23,-79.57"/>
</g>
<!-- Node4&#45;&gt;Node12 -->
<g id="edge14" class="edge">
<title>Node4&#45;&gt;Node12</title>
<path fill="none" stroke="midnightblue" d="M460.24,-114.68C518.48,-107.36 615.2,-94.16 707.99,-75.93"/>
<polygon fill="midnightblue" stroke="midnightblue" points="708.7,-79.35 717.83,-73.97 707.34,-72.49 708.7,-79.35"/>
</g>
<!-- Node13 -->
<g id="node13" class="node">
<title>Node13</title>
<g id="a_node13"><a xlink:title=" ">
<polygon fill="none" stroke="#bfbfbf" points="132.5,-56.5 132.5,-75.5 188.5,-75.5 188.5,-56.5 132.5,-56.5"/>
<text text-anchor="middle" x="160.5" y="-63.5" font-family="Helvetica,sans-Serif" font-size="10.00">assert.h</text>
</a>
</g>
</g>
<!-- Node4&#45;&gt;Node13 -->
<g id="edge15" class="edge">
<title>Node4&#45;&gt;Node13</title>
<path fill="none" stroke="midnightblue" d="M365.99,-112.46C325.64,-104.07 262.39,-90.73 198.59,-76.2"/>
<polygon fill="midnightblue" stroke="midnightblue" points="199.29,-72.77 188.76,-73.96 197.73,-79.6 199.29,-72.77"/>
</g>
<!-- Node14 -->
<g id="node14" class="node">
<title>Node14</title>
<g id="a_node14"><a xlink:href="itoa_8h_source.html" target="_top" xlink:title=" ">
<polygon fill="none" stroke="black" points="207,-56.5 207,-75.5 304,-75.5 304,-56.5 207,-56.5"/>
<text text-anchor="middle" x="255.5" y="-63.5" font-family="Helvetica,sans-Serif" font-size="10.00">utils_misc/itoa.h</text>
</a>
</g>
</g>
<!-- Node4&#45;&gt;Node14 -->
<g id="edge16" class="edge">
<title>Node4&#45;&gt;Node14</title>
<path fill="none" stroke="midnightblue" d="M383.42,-112.44C357.96,-103.4 317.61,-89.06 289.04,-78.92"/>
<polygon fill="midnightblue" stroke="midnightblue" points="290.07,-75.57 279.47,-75.52 287.72,-82.16 290.07,-75.57"/>
</g>
<!-- Node15 -->
<g id="node15" class="node">
<title>Node15</title>
<g id="a_node15"><a xlink:title=" ">
<polygon fill="none" stroke="#bfbfbf" points="322,-56.5 322,-75.5 367,-75.5 367,-56.5 322,-56.5"/>
<text text-anchor="middle" x="344.5" y="-63.5" font-family="Helvetica,sans-Serif" font-size="10.00">utility</text>
</a>
</g>
</g>
<!-- Node4&#45;&gt;Node15 -->
<g id="edge18" class="edge">
<title>Node4&#45;&gt;Node15</title>
<path fill="none" stroke="midnightblue" d="M397.38,-112.32C387.97,-104.26 373.76,-92.08 362.43,-82.37"/>
<polygon fill="midnightblue" stroke="midnightblue" points="364.68,-79.68 354.81,-75.83 360.12,-85 364.68,-79.68"/>
</g>
<!-- Node5&#45;&gt;Node3 -->
<g id="edge5" class="edge">
<title>Node5&#45;&gt;Node3</title>
<path fill="none" stroke="midnightblue" d="M47.5,-56.08C47.5,-49.01 47.5,-38.86 47.5,-29.99"/>
<polygon fill="midnightblue" stroke="midnightblue" points="51,-29.75 47.5,-19.75 44,-29.75 51,-29.75"/>
</g>
<!-- Node6&#45;&gt;Node7 -->
<g id="edge7" class="edge">
<title>Node6&#45;&gt;Node7</title>
<path fill="none" stroke="midnightblue" d="M612.73,-56.32C628.85,-47.7 653.8,-34.36 672.46,-24.39"/>
<polygon fill="midnightblue" stroke="midnightblue" points="674.14,-27.46 681.31,-19.65 670.84,-21.28 674.14,-27.46"/>
</g>
<!-- Node9 -->
<g id="node9" class="node">
<title>Node9</title>
<g id="a_node9"><a xlink:title=" ">
<polygon fill="none" stroke="#bfbfbf" points="446,-0.5 446,-19.5 499,-19.5 499,-0.5 446,-0.5"/>
<text text-anchor="middle" x="472.5" y="-7.5" font-family="Helvetica,sans-Serif" font-size="10.00">stdlib.h</text>
</a>
</g>
</g>
<!-- Node8&#45;&gt;Node9 -->
<g id="edge10" class="edge">
<title>Node8&#45;&gt;Node9</title>
<path fill="none" stroke="midnightblue" d="M468.33,-56.08C468.98,-49.01 469.92,-38.86 470.74,-29.99"/>
<polygon fill="midnightblue" stroke="midnightblue" points="474.25,-30.03 471.69,-19.75 467.28,-29.39 474.25,-30.03"/>
</g>
<!-- Node8&#45;&gt;Node10 -->
<g id="edge11" class="edge">
<title>Node8&#45;&gt;Node10</title>
<path fill="none" stroke="midnightblue" d="M455.93,-56.32C445.08,-48.18 428.62,-35.84 415.62,-26.09"/>
<polygon fill="midnightblue" stroke="midnightblue" points="417.38,-23.03 407.28,-19.83 413.18,-28.63 417.38,-23.03"/>
</g>
<!-- Node16&#45;&gt;Node7 -->
<g id="edge25" class="edge">
<title>Node16&#45;&gt;Node7</title>
<path fill="none" stroke="midnightblue" d="M838.41,-168.19C840.15,-146.43 841.59,-89.46 813.5,-56 793.76,-32.48 760.18,-21.21 734.22,-15.83"/>
<polygon fill="midnightblue" stroke="midnightblue" points="734.8,-12.38 724.33,-13.99 733.52,-19.26 734.8,-12.38"/>
</g>
<!-- Node17 -->
<g id="node17" class="node">
<title>Node17</title>
<g id="a_node17"><a xlink:title=" ">
<polygon fill="none" stroke="#bfbfbf" points="865.5,-112.5 865.5,-131.5 927.5,-131.5 927.5,-112.5 865.5,-112.5"/>
<text text-anchor="middle" x="896.5" y="-119.5" font-family="Helvetica,sans-Serif" font-size="10.00">stdbool.h</text>
</a>
</g>
</g>
<!-- Node16&#45;&gt;Node17 -->
<g id="edge26" class="edge">
<title>Node16&#45;&gt;Node17</title>
<path fill="none" stroke="midnightblue" d="M846.98,-168.32C855.7,-160.34 868.84,-148.31 879.4,-138.65"/>
<polygon fill="midnightblue" stroke="midnightblue" points="881.83,-141.17 886.85,-131.83 877.11,-136 881.83,-141.17"/>
</g>
</g>
</svg>
