<?xml version="1.0" encoding="UTF-8" standalone="no"?>
<!DOCTYPE svg PUBLIC "-//W3C//DTD SVG 1.1//EN"
 "http://www.w3.org/Graphics/SVG/1.1/DTD/svg11.dtd">
<!-- Generated by graphviz version 2.43.0 (0)
 -->
<!-- Title: /home/bertw/proj/mcu/components&#45;mcu/config_kvs Pages: 1 -->
<svg width="250pt" height="175pt"
 viewBox="0.00 0.00 250.00 175.00" xmlns="http://www.w3.org/2000/svg" xmlns:xlink="http://www.w3.org/1999/xlink">
<g id="graph0" class="graph" transform="scale(1 1) rotate(0) translate(4 171)">
<title>/home/bertw/proj/mcu/components&#45;mcu/config_kvs</title>
<g id="clust1" class="cluster">
<title>clusterdir_392918f195bdb12205be9304d4cf3357</title>
<g id="a_clust1"><a xlink:href="dir_392918f195bdb12205be9304d4cf3357.html" target="_top" xlink:title="components&#45;mcu">
<polygon fill="#ddddee" stroke="black" points="8,-8 8,-159 234,-159 234,-8 8,-8"/>
<text text-anchor="middle" x="121" y="-147" font-family="Helvetica,sans-Serif" font-size="10.00">components&#45;mcu</text>
</a>
</g>
</g>
<g id="clust2" class="cluster">
<title>clusterdir_3d34bf840d2c4f9941d3458f3b0b8fa5</title>
<g id="a_clust2"><a xlink:href="dir_3d34bf840d2c4f9941d3458f3b0b8fa5.html" target="_top">
<polygon fill="#eeeeff" stroke="black" points="70,-80 70,-132 226,-132 226,-80 70,-80"/>
</a>
</g>
</g>
<!-- dir_38c3863c8bda2a7e5a786aad1cd49034 -->
<g id="node1" class="node">
<title>dir_38c3863c8bda2a7e5a786aad1cd49034</title>
<g id="a_node1"><a xlink:href="dir_38c3863c8bda2a7e5a786aad1cd49034.html" target="_top" xlink:title="uout">
<polygon fill="none" stroke="red" points="70,-52 16,-52 16,-16 70,-16 70,-52"/>
<text text-anchor="middle" x="43" y="-31.5" font-family="Helvetica,sans-Serif" font-size="10.00">uout</text>
</a>
</g>
</g>
<!-- dir_637f746e9861ed257f7550edf4f819cf -->
<g id="node2" class="node">
<title>dir_637f746e9861ed257f7550edf4f819cf</title>
<g id="a_node2"><a xlink:href="dir_637f746e9861ed257f7550edf4f819cf.html" target="_top" xlink:title="_test_">
<polygon fill="none" stroke="red" points="142,-52 88,-52 88,-16 142,-16 142,-52"/>
<text text-anchor="middle" x="115" y="-31.5" font-family="Helvetica,sans-Serif" font-size="10.00">_test_</text>
</a>
</g>
</g>
<!-- dir_7bb9eb202d1b51997ecec3798d30fe15 -->
<g id="node3" class="node">
<title>dir_7bb9eb202d1b51997ecec3798d30fe15</title>
<g id="a_node3"><a xlink:href="dir_7bb9eb202d1b51997ecec3798d30fe15.html" target="_top" xlink:title="utils_misc">
<polygon fill="none" stroke="red" points="226,-52 160,-52 160,-16 226,-16 226,-52"/>
<text text-anchor="middle" x="193" y="-31.5" font-family="Helvetica,sans-Serif" font-size="10.00">utils_misc</text>
</a>
</g>
</g>
<!-- dir_3d34bf840d2c4f9941d3458f3b0b8fa5 -->
<g id="node4" class="node">
<title>dir_3d34bf840d2c4f9941d3458f3b0b8fa5</title>
<text text-anchor="middle" x="184" y="-103.5" font-family="Helvetica,sans-Serif" font-size="10.00">config_kvs</text>
</g>
<!-- dir_6d2dd653d7f6318030e93525998c2bee -->
<g id="node5" class="node">
<title>dir_6d2dd653d7f6318030e93525998c2bee</title>
<g id="a_node5"><a xlink:href="dir_6d2dd653d7f6318030e93525998c2bee.html" target="_top" xlink:title="include">
<polygon fill="white" stroke="red" points="132,-124 78,-124 78,-88 132,-88 132,-124"/>
<text text-anchor="middle" x="105" y="-103.5" font-family="Helvetica,sans-Serif" font-size="10.00">include</text>
</a>
</g>
</g>
<!-- dir_6d2dd653d7f6318030e93525998c2bee&#45;&gt;dir_38c3863c8bda2a7e5a786aad1cd49034 -->
<g id="edge1" class="edge">
<title>dir_6d2dd653d7f6318030e93525998c2bee&#45;&gt;dir_38c3863c8bda2a7e5a786aad1cd49034</title>
<path fill="none" stroke="black" d="M89.67,-87.7C82.24,-79.3 73.18,-69.07 65.02,-59.86"/>
<polygon fill="black" stroke="black" points="67.4,-57.27 58.15,-52.1 62.16,-61.91 67.4,-57.27"/>
<g id="a_edge1&#45;headlabel"><a xlink:href="dir_000017_000051.html" target="_top" xlink:title="1">
<text text-anchor="middle" x="71.91" y="-55.58" font-family="Helvetica,sans-Serif" font-size="10.00">1</text>
</a>
</g>
</g>
<!-- dir_6d2dd653d7f6318030e93525998c2bee&#45;&gt;dir_637f746e9861ed257f7550edf4f819cf -->
<g id="edge2" class="edge">
<title>dir_6d2dd653d7f6318030e93525998c2bee&#45;&gt;dir_637f746e9861ed257f7550edf4f819cf</title>
<path fill="none" stroke="black" d="M107.47,-87.7C108.57,-79.98 109.9,-70.71 111.13,-62.11"/>
<polygon fill="black" stroke="black" points="114.61,-62.5 112.56,-52.1 107.68,-61.51 114.61,-62.5"/>
<g id="a_edge2&#45;headlabel"><a xlink:href="dir_000017_000005.html" target="_top" xlink:title="2">
<text text-anchor="middle" x="116.91" y="-63.96" font-family="Helvetica,sans-Serif" font-size="10.00">2</text>
</a>
</g>
</g>
<!-- dir_6d2dd653d7f6318030e93525998c2bee&#45;&gt;dir_7bb9eb202d1b51997ecec3798d30fe15 -->
<g id="edge3" class="edge">
<title>dir_6d2dd653d7f6318030e93525998c2bee&#45;&gt;dir_7bb9eb202d1b51997ecec3798d30fe15</title>
<path fill="none" stroke="black" d="M126.75,-87.7C137.84,-78.88 151.47,-68.03 163.49,-58.47"/>
<polygon fill="black" stroke="black" points="165.85,-61.07 171.5,-52.1 161.49,-55.59 165.85,-61.07"/>
<g id="a_edge3&#45;headlabel"><a xlink:href="dir_000017_000013.html" target="_top" xlink:title="2">
<text text-anchor="middle" x="164.8" y="-63.03" font-family="Helvetica,sans-Serif" font-size="10.00">2</text>
</a>
</g>
</g>
</g>
</svg>
