<?xml version="1.0" encoding="UTF-8" standalone="no"?>
<!DOCTYPE svg PUBLIC "-//W3C//DTD SVG 1.1//EN"
 "http://www.w3.org/Graphics/SVG/1.1/DTD/svg11.dtd">
<!-- Generated by graphviz version 2.43.0 (0)
 -->
<!-- Title: config_kvs Pages: 1 -->
<svg width="242pt" height="132pt"
 viewBox="0.00 0.00 242.00 132.00" xmlns="http://www.w3.org/2000/svg" xmlns:xlink="http://www.w3.org/1999/xlink">
<g id="graph0" class="graph" transform="scale(1 1) rotate(0) translate(4 128)">
<title>config_kvs</title>
<g id="clust1" class="cluster">
<title>clusterdir_0d3d13e635af87d77e154536d34b33f6</title>
<g id="a_clust1"><a xlink:href="dir_0d3d13e635af87d77e154536d34b33f6.html" target="_top">
<polygon fill="#eeeeff" stroke="black" points="70,-64 70,-116 226,-116 226,-64 70,-64"/>
</a>
</g>
</g>
<!-- dir_0d3d13e635af87d77e154536d34b33f6 -->
<g id="node1" class="node">
<title>dir_0d3d13e635af87d77e154536d34b33f6</title>
<text text-anchor="middle" x="184" y="-87.5" font-family="Helvetica,sans-Serif" font-size="10.00">config_kvs</text>
</g>
<!-- dir_448d5004332ef8de0ecc55171bd7858d -->
<g id="node2" class="node">
<title>dir_448d5004332ef8de0ecc55171bd7858d</title>
<g id="a_node2"><a xlink:href="dir_448d5004332ef8de0ecc55171bd7858d.html" target="_top" xlink:title="include">
<polygon fill="white" stroke="red" points="132,-108 78,-108 78,-72 132,-72 132,-108"/>
<text text-anchor="middle" x="105" y="-87.5" font-family="Helvetica,sans-Serif" font-size="10.00">include</text>
</a>
</g>
</g>
<!-- dir_6203bca8e7b1befb208c21909c855e11 -->
<g id="node3" class="node">
<title>dir_6203bca8e7b1befb208c21909c855e11</title>
<g id="a_node3"><a xlink:href="dir_6203bca8e7b1befb208c21909c855e11.html" target="_top" xlink:title="_test_">
<polygon fill="none" stroke="red" points="54,-36 0,-36 0,0 54,0 54,-36"/>
<text text-anchor="middle" x="27" y="-15.5" font-family="Helvetica,sans-Serif" font-size="10.00">_test_</text>
</a>
</g>
</g>
<!-- dir_448d5004332ef8de0ecc55171bd7858d&#45;&gt;dir_6203bca8e7b1befb208c21909c855e11 -->
<g id="edge2" class="edge">
<title>dir_448d5004332ef8de0ecc55171bd7858d&#45;&gt;dir_6203bca8e7b1befb208c21909c855e11</title>
<path fill="none" stroke="black" d="M85.72,-71.7C76.08,-63.05 64.27,-52.45 53.77,-43.03"/>
<polygon fill="black" stroke="black" points="55.84,-40.18 46.06,-36.1 51.16,-45.39 55.84,-40.18"/>
<g id="a_edge2&#45;headlabel"><a xlink:href="dir_000010_000021.html" target="_top" xlink:title="2">
<text text-anchor="middle" x="60.41" y="-37.97" font-family="Helvetica,sans-Serif" font-size="10.00">2</text>
</a>
</g>
</g>
<!-- dir_6cc2c7d93d56b76b7b3d581e07ae80af -->
<g id="node4" class="node">
<title>dir_6cc2c7d93d56b76b7b3d581e07ae80af</title>
<g id="a_node4"><a xlink:href="dir_6cc2c7d93d56b76b7b3d581e07ae80af.html" target="_top" xlink:title="utils_misc">
<polygon fill="none" stroke="red" points="138,-36 72,-36 72,0 138,0 138,-36"/>
<text text-anchor="middle" x="105" y="-15.5" font-family="Helvetica,sans-Serif" font-size="10.00">utils_misc</text>
</a>
</g>
</g>
<!-- dir_448d5004332ef8de0ecc55171bd7858d&#45;&gt;dir_6cc2c7d93d56b76b7b3d581e07ae80af -->
<g id="edge3" class="edge">
<title>dir_448d5004332ef8de0ecc55171bd7858d&#45;&gt;dir_6cc2c7d93d56b76b7b3d581e07ae80af</title>
<path fill="none" stroke="black" d="M105,-71.7C105,-63.98 105,-54.71 105,-46.11"/>
<polygon fill="black" stroke="black" points="108.5,-46.1 105,-36.1 101.5,-46.1 108.5,-46.1"/>
<g id="a_edge3&#45;headlabel"><a xlink:href="dir_000010_000000.html" target="_top" xlink:title="2">
<text text-anchor="middle" x="111.34" y="-47.2" font-family="Helvetica,sans-Serif" font-size="10.00">2</text>
</a>
</g>
</g>
<!-- dir_415636c0904eea9654b88b95fa324ed7 -->
<g id="node5" class="node">
<title>dir_415636c0904eea9654b88b95fa324ed7</title>
<g id="a_node5"><a xlink:href="dir_415636c0904eea9654b88b95fa324ed7.html" target="_top" xlink:title="uout">
<polygon fill="none" stroke="red" points="210,-36 156,-36 156,0 210,0 210,-36"/>
<text text-anchor="middle" x="183" y="-15.5" font-family="Helvetica,sans-Serif" font-size="10.00">uout</text>
</a>
</g>
</g>
<!-- dir_448d5004332ef8de0ecc55171bd7858d&#45;&gt;dir_415636c0904eea9654b88b95fa324ed7 -->
<g id="edge1" class="edge">
<title>dir_448d5004332ef8de0ecc55171bd7858d&#45;&gt;dir_415636c0904eea9654b88b95fa324ed7</title>
<path fill="none" stroke="black" d="M124.28,-71.7C133.92,-63.05 145.73,-52.45 156.23,-43.03"/>
<polygon fill="black" stroke="black" points="158.84,-45.39 163.94,-36.1 154.16,-40.18 158.84,-45.39"/>
<g id="a_edge1&#45;headlabel"><a xlink:href="dir_000010_000006.html" target="_top" xlink:title="1">
<text text-anchor="middle" x="158.06" y="-47.4" font-family="Helvetica,sans-Serif" font-size="10.00">1</text>
</a>
</g>
</g>
</g>
</svg>
