<?xml version="1.0" encoding="UTF-8" standalone="no"?>
<!DOCTYPE svg PUBLIC "-//W3C//DTD SVG 1.1//EN"
 "http://www.w3.org/Graphics/SVG/1.1/DTD/svg11.dtd">
<!-- Generated by graphviz version 2.43.0 (0)
 -->
<!-- Title: so_target_bits.h Pages: 1 -->
<svg width="474pt" height="308pt"
 viewBox="0.00 0.00 473.50 308.00" xmlns="http://www.w3.org/2000/svg" xmlns:xlink="http://www.w3.org/1999/xlink">
<g id="graph0" class="graph" transform="scale(1 1) rotate(0) translate(4 304)">
<title>so_target_bits.h</title>
<!-- Node1 -->
<g id="node1" class="node">
<title>Node1</title>
<g id="a_node1"><a xlink:title="flags to select output formats and targets">
<polygon fill="#bfbfbf" stroke="black" points="203,-280.5 203,-299.5 298,-299.5 298,-280.5 203,-280.5"/>
<text text-anchor="middle" x="250.5" y="-287.5" font-family="Helvetica,sans-Serif" font-size="10.00">so_target_bits.h</text>
</a>
</g>
</g>
<!-- Node2 -->
<g id="node2" class="node">
<title>Node2</title>
<g id="a_node2"><a xlink:href="so__out_8h.html" target="_top" xlink:title="write formatted output to UoutWriter">
<polygon fill="none" stroke="black" points="221.5,-224.5 221.5,-243.5 279.5,-243.5 279.5,-224.5 221.5,-224.5"/>
<text text-anchor="middle" x="250.5" y="-231.5" font-family="Helvetica,sans-Serif" font-size="10.00">so_out.h</text>
</a>
</g>
</g>
<!-- Node1&#45;&gt;Node2 -->
<g id="edge1" class="edge">
<title>Node1&#45;&gt;Node2</title>
<path fill="none" stroke="midnightblue" d="M250.5,-269.8C250.5,-260.91 250.5,-250.78 250.5,-243.75"/>
<polygon fill="midnightblue" stroke="midnightblue" points="247,-270.08 250.5,-280.08 254,-270.08 247,-270.08"/>
</g>
<!-- Node3 -->
<g id="node3" class="node">
<title>Node3</title>
<g id="a_node3"><a xlink:href="so__target__desc_8hh.html" target="_top" xlink:title="Provide an output class hierarchy which knows about the required format (text or JSON) and write func...">
<polygon fill="none" stroke="black" points="137,-168.5 137,-187.5 242,-187.5 242,-168.5 137,-168.5"/>
<text text-anchor="middle" x="189.5" y="-175.5" font-family="Helvetica,sans-Serif" font-size="10.00">so_target_desc.hh</text>
</a>
</g>
</g>
<!-- Node1&#45;&gt;Node3 -->
<g id="edge12" class="edge">
<title>Node1&#45;&gt;Node3</title>
<path fill="none" stroke="midnightblue" d="M234.61,-273.1C227.12,-264.93 218.53,-254.51 212.5,-244 201.78,-225.31 194.76,-200.77 191.54,-187.84"/>
<polygon fill="midnightblue" stroke="midnightblue" points="232.16,-275.6 241.59,-280.43 237.23,-270.77 232.16,-275.6"/>
</g>
<!-- Node7 -->
<g id="node7" class="node">
<title>Node7</title>
<g id="a_node7"><a xlink:href="uo__types_8h.html" target="_top" xlink:title="API parameter and return types.">
<polygon fill="none" stroke="black" points="243.5,-112.5 243.5,-131.5 313.5,-131.5 313.5,-112.5 243.5,-112.5"/>
<text text-anchor="middle" x="278.5" y="-119.5" font-family="Helvetica,sans-Serif" font-size="10.00">uo_types.h</text>
</a>
</g>
</g>
<!-- Node1&#45;&gt;Node7 -->
<g id="edge13" class="edge">
<title>Node1&#45;&gt;Node7</title>
<path fill="none" stroke="midnightblue" d="M268.61,-273.24C276.31,-265.33 284.44,-255.09 288.5,-244 303.13,-204.01 288.44,-151.79 281.6,-131.54"/>
<polygon fill="midnightblue" stroke="midnightblue" points="266.03,-270.86 261.21,-280.3 270.86,-275.93 266.03,-270.86"/>
</g>
<!-- Node2&#45;&gt;Node3 -->
<g id="edge2" class="edge">
<title>Node2&#45;&gt;Node3</title>
<path fill="none" stroke="midnightblue" d="M233.03,-217.54C222.16,-207.91 208.56,-195.87 199.48,-187.83"/>
<polygon fill="midnightblue" stroke="midnightblue" points="230.89,-220.32 240.7,-224.32 235.53,-215.07 230.89,-220.32"/>
</g>
<!-- Node2&#45;&gt;Node7 -->
<g id="edge11" class="edge">
<title>Node2&#45;&gt;Node7</title>
<path fill="none" stroke="midnightblue" d="M255.16,-214.67C261.29,-190.62 271.78,-149.39 276.31,-131.59"/>
<polygon fill="midnightblue" stroke="midnightblue" points="251.77,-213.81 252.7,-224.37 258.56,-215.54 251.77,-213.81"/>
</g>
<!-- Node4 -->
<g id="node4" class="node">
<title>Node4</title>
<g id="a_node4"><a xlink:href="settings_8hh.html" target="_top" xlink:title=" ">
<polygon fill="none" stroke="black" points="146,-112.5 146,-131.5 217,-131.5 217,-112.5 146,-112.5"/>
<text text-anchor="middle" x="181.5" y="-119.5" font-family="Helvetica,sans-Serif" font-size="10.00">settings.hh</text>
</a>
</g>
</g>
<!-- Node3&#45;&gt;Node4 -->
<g id="edge3" class="edge">
<title>Node3&#45;&gt;Node4</title>
<path fill="none" stroke="midnightblue" d="M186.7,-158.1C185.37,-149.14 183.85,-138.86 182.8,-131.75"/>
<polygon fill="midnightblue" stroke="midnightblue" points="183.25,-158.7 188.18,-168.08 190.18,-157.68 183.25,-158.7"/>
</g>
<!-- Node3&#45;&gt;Node7 -->
<g id="edge6" class="edge">
<title>Node3&#45;&gt;Node7</title>
<path fill="none" stroke="midnightblue" d="M212.74,-162.9C229.06,-153 250.37,-140.07 264.24,-131.65"/>
<polygon fill="midnightblue" stroke="midnightblue" points="210.53,-160.14 203.8,-168.32 214.16,-166.13 210.53,-160.14"/>
</g>
<!-- Node5 -->
<g id="node5" class="node">
<title>Node5</title>
<g id="a_node5"><a xlink:href="comp__settings_8hh.html" target="_top" xlink:title="Settings for shared components.">
<polygon fill="none" stroke="black" points="0,-56.5 0,-75.5 103,-75.5 103,-56.5 0,-56.5"/>
<text text-anchor="middle" x="51.5" y="-63.5" font-family="Helvetica,sans-Serif" font-size="10.00">comp_settings.hh</text>
</a>
</g>
</g>
<!-- Node4&#45;&gt;Node5 -->
<g id="edge4" class="edge">
<title>Node4&#45;&gt;Node5</title>
<path fill="none" stroke="midnightblue" d="M151.41,-108.5C127.04,-98.38 93.36,-84.39 72,-75.52"/>
<polygon fill="midnightblue" stroke="midnightblue" points="150.32,-111.84 160.9,-112.44 153.01,-105.38 150.32,-111.84"/>
</g>
<!-- Node6 -->
<g id="node6" class="node">
<title>Node6</title>
<g id="a_node6"><a xlink:href="settings__template_8hh_source.html" target="_top" xlink:title=" ">
<polygon fill="none" stroke="black" points="121.5,-56.5 121.5,-75.5 241.5,-75.5 241.5,-56.5 121.5,-56.5"/>
<text text-anchor="middle" x="181.5" y="-63.5" font-family="Helvetica,sans-Serif" font-size="10.00">settings_template.hh</text>
</a>
</g>
</g>
<!-- Node4&#45;&gt;Node6 -->
<g id="edge5" class="edge">
<title>Node4&#45;&gt;Node6</title>
<path fill="none" stroke="midnightblue" d="M181.5,-101.8C181.5,-92.91 181.5,-82.78 181.5,-75.75"/>
<polygon fill="midnightblue" stroke="midnightblue" points="178,-102.08 181.5,-112.08 185,-102.08 178,-102.08"/>
</g>
<!-- Node8 -->
<g id="node8" class="node">
<title>Node8</title>
<g id="a_node8"><a xlink:href="cli_8h.html" target="_top" xlink:title="cli framework">
<polygon fill="none" stroke="black" points="260,-56.5 260,-75.5 297,-75.5 297,-56.5 260,-56.5"/>
<text text-anchor="middle" x="278.5" y="-63.5" font-family="Helvetica,sans-Serif" font-size="10.00">cli.h</text>
</a>
</g>
</g>
<!-- Node7&#45;&gt;Node8 -->
<g id="edge7" class="edge">
<title>Node7&#45;&gt;Node8</title>
<path fill="none" stroke="midnightblue" d="M278.5,-101.8C278.5,-92.91 278.5,-82.78 278.5,-75.75"/>
<polygon fill="midnightblue" stroke="midnightblue" points="275,-102.08 278.5,-112.08 282,-102.08 275,-102.08"/>
</g>
<!-- Node9 -->
<g id="node9" class="node">
<title>Node9</title>
<g id="a_node9"><a xlink:href="uo__callbacks_8h.html" target="_top" xlink:title="pub/sub interface to publish asynchronously to MQTT servers, HTTP&#45;client web&#45;sockets,...">
<polygon fill="none" stroke="black" points="315,-56.5 315,-75.5 404,-75.5 404,-56.5 315,-56.5"/>
<text text-anchor="middle" x="359.5" y="-63.5" font-family="Helvetica,sans-Serif" font-size="10.00">uo_callbacks.h</text>
</a>
</g>
</g>
<!-- Node7&#45;&gt;Node9 -->
<g id="edge8" class="edge">
<title>Node7&#45;&gt;Node9</title>
<path fill="none" stroke="midnightblue" d="M300.07,-106.62C314.86,-96.76 334.01,-83.99 346.52,-75.65"/>
<polygon fill="midnightblue" stroke="midnightblue" points="297.89,-103.86 291.51,-112.32 301.78,-109.69 297.89,-103.86"/>
</g>
<!-- Node10 -->
<g id="node10" class="node">
<title>Node10</title>
<g id="a_node10"><a xlink:href="tcp__cli__server__setup_8hh.html" target="_top" xlink:title="Create TCP server for interactive and non&#45;interactive CLI clients.">
<polygon fill="none" stroke="black" points="230,-0.5 230,-19.5 361,-19.5 361,-0.5 230,-0.5"/>
<text text-anchor="middle" x="295.5" y="-7.5" font-family="Helvetica,sans-Serif" font-size="10.00">tcp_cli_server_setup.hh</text>
</a>
</g>
</g>
<!-- Node9&#45;&gt;Node10 -->
<g id="edge9" class="edge">
<title>Node9&#45;&gt;Node10</title>
<path fill="none" stroke="midnightblue" d="M341.51,-49.82C330.04,-40.15 315.59,-27.95 305.97,-19.83"/>
<polygon fill="midnightblue" stroke="midnightblue" points="339.32,-52.55 349.22,-56.32 343.83,-47.2 339.32,-52.55"/>
</g>
<!-- Node11 -->
<g id="node11" class="node">
<title>Node11</title>
<g id="a_node11"><a xlink:href="txtio__setup_8hh_source.html" target="_top" xlink:title=" ">
<polygon fill="none" stroke="black" points="379.5,-0.5 379.5,-19.5 465.5,-19.5 465.5,-0.5 379.5,-0.5"/>
<text text-anchor="middle" x="422.5" y="-7.5" font-family="Helvetica,sans-Serif" font-size="10.00">txtio_setup.hh</text>
</a>
</g>
</g>
<!-- Node9&#45;&gt;Node11 -->
<g id="edge10" class="edge">
<title>Node9&#45;&gt;Node11</title>
<path fill="none" stroke="midnightblue" d="M377.54,-49.54C388.77,-39.91 402.82,-27.87 412.19,-19.83"/>
<polygon fill="midnightblue" stroke="midnightblue" points="374.94,-47.16 369.62,-56.32 379.49,-52.47 374.94,-47.16"/>
</g>
</g>
</svg>
