<?xml version="1.0" encoding="UTF-8" standalone="no"?>
<!DOCTYPE svg PUBLIC "-//W3C//DTD SVG 1.1//EN"
 "http://www.w3.org/Graphics/SVG/1.1/DTD/svg11.dtd">
<!-- Generated by graphviz version 2.43.0 (0)
 -->
<!-- Title: /home/bertw/proj/mcu/components&#45;mcu/uout/include/uout/so_target_bits.h Pages: 1 -->
<!--zoomable 484 -->
<svg id="main" version="1.1" xmlns="http://www.w3.org/2000/svg" xmlns:xlink="http://www.w3.org/1999/xlink" xml:space="preserve" onload="init(evt)">
<style type="text/css"><![CDATA[
.edge:hover path { stroke: red; }
.edge:hover polygon { stroke: red; fill: red; }
]]></style>
<script type="text/javascript"><![CDATA[
var edges = document.getElementsByTagName('g');
if (edges && edges.length) {
  for (var i=0;i<edges.length;i++) {
    if (edges[i].id.substr(0,4)=='edge') {
      edges[i].setAttribute('class','edge');
    }
  }
}
]]></script>
        <defs>
                <circle id="rim" cx="0" cy="0" r="7"/>
                <circle id="rim2" cx="0" cy="0" r="3.5"/>
                <g id="zoomPlus">
                        <use xlink:href="#rim" fill="#404040">
                                <set attributeName="fill" to="#808080" begin="zoomplus.mouseover" end="zoomplus.mouseout"/>
                        </use>
                        <path d="M-4,0h8M0,-4v8" fill="none" stroke="white" stroke-width="1.5" pointer-events="none"/>
                </g>
                <g id="zoomMin">
                        <use xlink:href="#rim" fill="#404040">
                                <set attributeName="fill" to="#808080" begin="zoomminus.mouseover" end="zoomminus.mouseout"/>
                        </use>
                        <path d="M-4,0h8" fill="none" stroke="white" stroke-width="1.5" pointer-events="none"/>
                </g>
                <g id="dirArrow">
                        <path fill="none" stroke="white" stroke-width="1.5" d="M0,-3.0v7 M-2.5,-0.5L0,-3.0L2.5,-0.5"/>
                </g>
               <g id="resetDef">
                       <use xlink:href="#rim2" fill="#404040">
                               <set attributeName="fill" to="#808080" begin="reset.mouseover" end="reset.mouseout"/>
                       </use>
               </g>
        </defs>

<script type="text/javascript">
var viewWidth = 734;
var viewHeight = 484;
var sectionId = 'dynsection-0';
</script>
<script xlink:href="svgpan.js"/>
<svg id="graph" class="graph">
<g id="viewport">
<title>/home/bertw/proj/mcu/components&#45;mcu/uout/include/uout/so_target_bits.h</title>
<!-- Node1 -->
<g id="node1" class="node">
<title>Node1</title>
<g id="a_node1"><a xlink:title="flags to select output formats and targets">
<polygon fill="#bfbfbf" stroke="black" points="250,-423.5 250,-475.5 379,-475.5 379,-423.5 250,-423.5"/>
<text text-anchor="start" x="258" y="-463.5" font-family="Helvetica,sans-Serif" font-size="10.00">/home/bertw/proj/mcu</text>
<text text-anchor="start" x="258" y="-452.5" font-family="Helvetica,sans-Serif" font-size="10.00">/components&#45;mcu/uout</text>
<text text-anchor="start" x="258" y="-441.5" font-family="Helvetica,sans-Serif" font-size="10.00">/include/uout/so_target</text>
<text text-anchor="middle" x="314.5" y="-430.5" font-family="Helvetica,sans-Serif" font-size="10.00">_bits.h</text>
</a>
</g>
</g>
<!-- Node2 -->
<g id="node2" class="node">
<title>Node2</title>
<g id="a_node2"><a xlink:href="so__out_8h.html" target="_top" xlink:title="write formatted output to UoutWriter">
<polygon fill="none" stroke="black" points="250,-345.5 250,-386.5 379,-386.5 379,-345.5 250,-345.5"/>
<text text-anchor="start" x="258" y="-374.5" font-family="Helvetica,sans-Serif" font-size="10.00">/home/bertw/proj/mcu</text>
<text text-anchor="start" x="258" y="-363.5" font-family="Helvetica,sans-Serif" font-size="10.00">/components&#45;mcu/uout</text>
<text text-anchor="middle" x="314.5" y="-352.5" font-family="Helvetica,sans-Serif" font-size="10.00">/include/uout/so_out.h</text>
</a>
</g>
</g>
<!-- Node1&#45;&gt;Node2 -->
<g id="edge1" class="edge">
<title>Node1&#45;&gt;Node2</title>
<path fill="none" stroke="midnightblue" d="M314.5,-413.15C314.5,-404.05 314.5,-394.6 314.5,-386.63"/>
<polygon fill="midnightblue" stroke="midnightblue" points="311,-413.16 314.5,-423.16 318,-413.16 311,-413.16"/>
</g>
<!-- Node3 -->
<g id="node3" class="node">
<title>Node3</title>
<g id="a_node3"><a xlink:href="so__target__desc_8hh.html" target="_top" xlink:title="Provide an output class hierarchy which knows about the required format (text or JSON) and write func...">
<polygon fill="none" stroke="black" points="176,-256.5 176,-308.5 305,-308.5 305,-256.5 176,-256.5"/>
<text text-anchor="start" x="184" y="-296.5" font-family="Helvetica,sans-Serif" font-size="10.00">/home/bertw/proj/mcu</text>
<text text-anchor="start" x="184" y="-285.5" font-family="Helvetica,sans-Serif" font-size="10.00">/components&#45;mcu/uout</text>
<text text-anchor="start" x="184" y="-274.5" font-family="Helvetica,sans-Serif" font-size="10.00">/include/uout/so_target</text>
<text text-anchor="middle" x="240.5" y="-263.5" font-family="Helvetica,sans-Serif" font-size="10.00">_desc.hh</text>
</a>
</g>
</g>
<!-- Node1&#45;&gt;Node3 -->
<g id="edge12" class="edge">
<title>Node1&#45;&gt;Node3</title>
<path fill="none" stroke="midnightblue" d="M264.1,-417.01C254.55,-408.52 245.87,-398.46 240.5,-387 228.9,-362.27 231.07,-330.42 234.76,-308.62"/>
<polygon fill="midnightblue" stroke="midnightblue" points="261.96,-419.78 271.9,-423.47 266.43,-414.4 261.96,-419.78"/>
</g>
<!-- Node7 -->
<g id="node7" class="node">
<title>Node7</title>
<g id="a_node7"><a xlink:href="uo__types_8h.html" target="_top" xlink:title="API parameter and return types.">
<polygon fill="none" stroke="black" points="320.5,-173 320.5,-214 456.5,-214 456.5,-173 320.5,-173"/>
<text text-anchor="start" x="328.5" y="-202" font-family="Helvetica,sans-Serif" font-size="10.00">/home/bertw/proj/mcu</text>
<text text-anchor="start" x="328.5" y="-191" font-family="Helvetica,sans-Serif" font-size="10.00">/components&#45;mcu/uout</text>
<text text-anchor="middle" x="388.5" y="-180" font-family="Helvetica,sans-Serif" font-size="10.00">/include/uout/uo_types.h</text>
</a>
</g>
</g>
<!-- Node1&#45;&gt;Node7 -->
<g id="edge13" class="edge">
<title>Node1&#45;&gt;Node7</title>
<path fill="none" stroke="midnightblue" d="M364.9,-417.01C374.45,-408.52 383.13,-398.46 388.5,-387 415.61,-329.21 402.27,-250.5 393.74,-214.25"/>
<polygon fill="midnightblue" stroke="midnightblue" points="362.57,-414.4 357.1,-423.47 367.04,-419.78 362.57,-414.4"/>
</g>
<!-- Node2&#45;&gt;Node3 -->
<g id="edge2" class="edge">
<title>Node2&#45;&gt;Node3</title>
<path fill="none" stroke="midnightblue" d="M289.7,-337.68C281.17,-328.29 271.66,-317.82 263.3,-308.61"/>
<polygon fill="midnightblue" stroke="midnightblue" points="287.27,-340.22 296.59,-345.27 292.46,-335.51 287.27,-340.22"/>
</g>
<!-- Node2&#45;&gt;Node7 -->
<g id="edge11" class="edge">
<title>Node2&#45;&gt;Node7</title>
<path fill="none" stroke="midnightblue" d="M327.15,-335.85C342.24,-301.1 367.03,-243.97 380,-214.09"/>
<polygon fill="midnightblue" stroke="midnightblue" points="323.76,-334.87 322.99,-345.44 330.18,-337.66 323.76,-334.87"/>
</g>
<!-- Node4 -->
<g id="node4" class="node">
<title>Node4</title>
<g id="a_node4"><a xlink:href="settings_8hh.html" target="_top" xlink:title=" ">
<polygon fill="none" stroke="black" points="155,-167.5 155,-219.5 292,-219.5 292,-167.5 155,-167.5"/>
<text text-anchor="start" x="163" y="-207.5" font-family="Helvetica,sans-Serif" font-size="10.00">/home/bertw/proj/mcu</text>
<text text-anchor="start" x="163" y="-196.5" font-family="Helvetica,sans-Serif" font-size="10.00">/components&#45;mcu/config</text>
<text text-anchor="start" x="163" y="-185.5" font-family="Helvetica,sans-Serif" font-size="10.00">_kvs/include/config_kvs</text>
<text text-anchor="middle" x="223.5" y="-174.5" font-family="Helvetica,sans-Serif" font-size="10.00">/settings.hh</text>
</a>
</g>
</g>
<!-- Node3&#45;&gt;Node4 -->
<g id="edge3" class="edge">
<title>Node3&#45;&gt;Node4</title>
<path fill="none" stroke="midnightblue" d="M233.66,-246.48C231.9,-237.49 230.04,-227.99 228.41,-219.61"/>
<polygon fill="midnightblue" stroke="midnightblue" points="230.23,-247.19 235.58,-256.34 237.1,-245.85 230.23,-247.19"/>
</g>
<!-- Node3&#45;&gt;Node7 -->
<g id="edge6" class="edge">
<title>Node3&#45;&gt;Node7</title>
<path fill="none" stroke="midnightblue" d="M292.09,-251.17C313.02,-238.87 336.59,-225.01 355.19,-214.08"/>
<polygon fill="midnightblue" stroke="midnightblue" points="290.15,-248.25 283.31,-256.34 293.7,-254.29 290.15,-248.25"/>
</g>
<!-- Node5 -->
<g id="node5" class="node">
<title>Node5</title>
<g id="a_node5"><a xlink:href="comp__settings_8hh.html" target="_top" xlink:title="Settings for shared components.">
<polygon fill="none" stroke="black" points="0,-78.5 0,-130.5 137,-130.5 137,-78.5 0,-78.5"/>
<text text-anchor="start" x="8" y="-118.5" font-family="Helvetica,sans-Serif" font-size="10.00">/home/bertw/proj/mcu</text>
<text text-anchor="start" x="8" y="-107.5" font-family="Helvetica,sans-Serif" font-size="10.00">/components&#45;mcu/config</text>
<text text-anchor="start" x="8" y="-96.5" font-family="Helvetica,sans-Serif" font-size="10.00">_kvs/include/config_kvs</text>
<text text-anchor="middle" x="68.5" y="-85.5" font-family="Helvetica,sans-Serif" font-size="10.00">/comp_settings.hh</text>
</a>
</g>
</g>
<!-- Node4&#45;&gt;Node5 -->
<g id="edge4" class="edge">
<title>Node4&#45;&gt;Node5</title>
<path fill="none" stroke="midnightblue" d="M169.79,-162.35C151.34,-152 130.89,-140.52 113.23,-130.61"/>
<polygon fill="midnightblue" stroke="midnightblue" points="168.23,-165.49 178.67,-167.34 171.66,-159.39 168.23,-165.49"/>
</g>
<!-- Node6 -->
<g id="node6" class="node">
<title>Node6</title>
<g id="a_node6"><a xlink:href="settings__template_8hh_source.html" target="_top" xlink:title=" ">
<polygon fill="none" stroke="black" points="155,-78.5 155,-130.5 292,-130.5 292,-78.5 155,-78.5"/>
<text text-anchor="start" x="163" y="-118.5" font-family="Helvetica,sans-Serif" font-size="10.00">/home/bertw/proj/mcu</text>
<text text-anchor="start" x="163" y="-107.5" font-family="Helvetica,sans-Serif" font-size="10.00">/components&#45;mcu/config</text>
<text text-anchor="start" x="163" y="-96.5" font-family="Helvetica,sans-Serif" font-size="10.00">_kvs/include/config_kvs</text>
<text text-anchor="middle" x="223.5" y="-85.5" font-family="Helvetica,sans-Serif" font-size="10.00">/settings_template.hh</text>
</a>
</g>
</g>
<!-- Node4&#45;&gt;Node6 -->
<g id="edge5" class="edge">
<title>Node4&#45;&gt;Node6</title>
<path fill="none" stroke="midnightblue" d="M223.5,-157.19C223.5,-148.28 223.5,-138.9 223.5,-130.61"/>
<polygon fill="midnightblue" stroke="midnightblue" points="220,-157.34 223.5,-167.34 227,-157.34 220,-157.34"/>
</g>
<!-- Node8 -->
<g id="node8" class="node">
<title>Node8</title>
<g id="a_node8"><a xlink:href="cli_8h.html" target="_top" xlink:title="cli framework">
<polygon fill="none" stroke="black" points="310,-84 310,-125 467,-125 467,-84 310,-84"/>
<text text-anchor="start" x="318" y="-113" font-family="Helvetica,sans-Serif" font-size="10.00">/home/bertw/proj/mcu</text>
<text text-anchor="start" x="318" y="-102" font-family="Helvetica,sans-Serif" font-size="10.00">/components&#45;mcu/cli/include</text>
<text text-anchor="middle" x="388.5" y="-91" font-family="Helvetica,sans-Serif" font-size="10.00">/cli/cli.h</text>
</a>
</g>
</g>
<!-- Node7&#45;&gt;Node8 -->
<g id="edge7" class="edge">
<title>Node7&#45;&gt;Node8</title>
<path fill="none" stroke="midnightblue" d="M388.5,-162.44C388.5,-150.1 388.5,-136.16 388.5,-125.16"/>
<polygon fill="midnightblue" stroke="midnightblue" points="385,-162.76 388.5,-172.76 392,-162.76 385,-162.76"/>
</g>
<!-- Node9 -->
<g id="node9" class="node">
<title>Node9</title>
<g id="a_node9"><a xlink:href="uo__callbacks_8h.html" target="_top" xlink:title="pub/sub interface to publish asynchronously to MQTT servers, HTTP&#45;client web&#45;sockets,...">
<polygon fill="none" stroke="black" points="485,-84 485,-125 640,-125 640,-84 485,-84"/>
<text text-anchor="start" x="493" y="-113" font-family="Helvetica,sans-Serif" font-size="10.00">/home/bertw/proj/mcu</text>
<text text-anchor="start" x="493" y="-102" font-family="Helvetica,sans-Serif" font-size="10.00">/components&#45;mcu/uout</text>
<text text-anchor="middle" x="562.5" y="-91" font-family="Helvetica,sans-Serif" font-size="10.00">/include/uout/uo_callbacks.h</text>
</a>
</g>
</g>
<!-- Node7&#45;&gt;Node9 -->
<g id="edge8" class="edge">
<title>Node7&#45;&gt;Node9</title>
<path fill="none" stroke="midnightblue" d="M436.54,-168.48C463.84,-154.83 497.59,-137.96 523.28,-125.11"/>
<polygon fill="midnightblue" stroke="midnightblue" points="434.93,-165.37 427.55,-172.98 438.06,-171.63 434.93,-165.37"/>
</g>
<!-- Node10 -->
<g id="node10" class="node">
<title>Node10</title>
<g id="a_node10"><a xlink:href="tcp__cli__server__setup_8hh.html" target="_top" xlink:title="Create TCP server for interactive and non&#45;interactive CLI clients.">
<polygon fill="none" stroke="black" points="394,-0.5 394,-41.5 555,-41.5 555,-0.5 394,-0.5"/>
<text text-anchor="start" x="402" y="-29.5" font-family="Helvetica,sans-Serif" font-size="10.00">/home/bertw/proj/mcu</text>
<text text-anchor="start" x="402" y="-18.5" font-family="Helvetica,sans-Serif" font-size="10.00">/components&#45;mcu/net/include</text>
<text text-anchor="middle" x="474.5" y="-7.5" font-family="Helvetica,sans-Serif" font-size="10.00">/net/tcp_cli_server_setup.hh</text>
</a>
</g>
</g>
<!-- Node9&#45;&gt;Node10 -->
<g id="edge9" class="edge">
<title>Node9&#45;&gt;Node10</title>
<path fill="none" stroke="midnightblue" d="M533.74,-76.86C521.31,-65.35 507.03,-52.13 495.61,-41.55"/>
<polygon fill="midnightblue" stroke="midnightblue" points="531.48,-79.54 541.2,-83.77 536.24,-74.41 531.48,-79.54"/>
</g>
<!-- Node11 -->
<g id="node11" class="node">
<title>Node11</title>
<g id="a_node11"><a xlink:href="txtio__setup_8hh_source.html" target="_top" xlink:title=" ">
<polygon fill="none" stroke="black" points="573,-0.5 573,-41.5 726,-41.5 726,-0.5 573,-0.5"/>
<text text-anchor="start" x="581" y="-29.5" font-family="Helvetica,sans-Serif" font-size="10.00">/home/bertw/proj/mcu</text>
<text text-anchor="start" x="581" y="-18.5" font-family="Helvetica,sans-Serif" font-size="10.00">/components&#45;mcu/txtio</text>
<text text-anchor="middle" x="649.5" y="-7.5" font-family="Helvetica,sans-Serif" font-size="10.00">/include/txtio/txtio_setup.hh</text>
</a>
</g>
</g>
<!-- Node9&#45;&gt;Node11 -->
<g id="edge10" class="edge">
<title>Node9&#45;&gt;Node11</title>
<path fill="none" stroke="midnightblue" d="M590.93,-76.86C603.22,-65.35 617.34,-52.13 628.63,-41.55"/>
<polygon fill="midnightblue" stroke="midnightblue" points="588.47,-74.38 583.56,-83.77 593.25,-79.49 588.47,-74.38"/>
</g>
</g>
</svg>
        <g id="navigator" transform="translate(0 0)" fill="#404254">
                <rect fill="#f2f5e9" fill-opacity="0.5" stroke="#606060" stroke-width=".5" x="0" y="0" width="60" height="60"/>
                <use id="zoomplus" xlink:href="#zoomPlus" x="17" y="9" onmousedown="handleZoom(evt,'in')"/>
                <use id="zoomminus" xlink:href="#zoomMin" x="42" y="9" onmousedown="handleZoom(evt,'out')"/>
                <use id="reset" xlink:href="#resetDef" x="30" y="36" onmousedown="handleReset()"/>
                <g id="arrowUp" xlink:href="#dirArrow" transform="translate(30 24)" onmousedown="handlePan(0,-1)">
                  <use xlink:href="#rim" fill="#404040">
                        <set attributeName="fill" to="#808080" begin="arrowUp.mouseover" end="arrowUp.mouseout"/>
                  </use>
                  <path fill="none" stroke="white" stroke-width="1.5" d="M0,-3.0v7 M-2.5,-0.5L0,-3.0L2.5,-0.5"/>
                </g>
                <g id="arrowRight" xlink:href="#dirArrow" transform="rotate(90) translate(36 -43)" onmousedown="handlePan(1,0)">
                  <use xlink:href="#rim" fill="#404040">
                        <set attributeName="fill" to="#808080" begin="arrowRight.mouseover" end="arrowRight.mouseout"/>
                  </use>
                  <path fill="none" stroke="white" stroke-width="1.5" d="M0,-3.0v7 M-2.5,-0.5L0,-3.0L2.5,-0.5"/>
                </g>
                <g id="arrowDown" xlink:href="#dirArrow" transform="rotate(180) translate(-30 -48)" onmousedown="handlePan(0,1)">
                  <use xlink:href="#rim" fill="#404040">
                        <set attributeName="fill" to="#808080" begin="arrowDown.mouseover" end="arrowDown.mouseout"/>
                  </use>
                  <path fill="none" stroke="white" stroke-width="1.5" d="M0,-3.0v7 M-2.5,-0.5L0,-3.0L2.5,-0.5"/>
                </g>
                <g id="arrowLeft" xlink:href="#dirArrow" transform="rotate(270) translate(-36 17)" onmousedown="handlePan(-1,0)">
                  <use xlink:href="#rim" fill="#404040">
                        <set attributeName="fill" to="#808080" begin="arrowLeft.mouseover" end="arrowLeft.mouseout"/>
                  </use>
                  <path fill="none" stroke="white" stroke-width="1.5" d="M0,-3.0v7 M-2.5,-0.5L0,-3.0L2.5,-0.5"/>
                </g>
        </g>
        <svg viewBox="0 0 15 15" width="100%" height="30px" preserveAspectRatio="xMaxYMin meet">
         <g id="arrow_out" transform="scale(0.3 0.3)">
          <a xlink:href="so__target__bits_8h__dep__incl_org.svg" target="_base">
           <rect id="button" ry="5" rx="5" y="6" x="6" height="38" width="38"
                fill="#f2f5e9" fill-opacity="0.5" stroke="#606060" stroke-width="1.0"/>
           <path id="arrow"
             d="M 11.500037,31.436501 C 11.940474,20.09759 22.043105,11.32322 32.158766,21.979434 L 37.068811,17.246167 C 37.068811,17.246167 37.088388,32 37.088388,32 L 22.160133,31.978069 C 22.160133,31.978069 26.997745,27.140456 26.997745,27.140456 C 18.528582,18.264221 13.291696,25.230495 11.500037,31.436501 z"
             style="fill:#404040;"/>
          </a>
         </g>
        </svg>
</svg>
