<?xml version="1.0" encoding="UTF-8" standalone="no"?>
<!DOCTYPE svg PUBLIC "-//W3C//DTD SVG 1.1//EN"
 "http://www.w3.org/Graphics/SVG/1.1/DTD/svg11.dtd">
<!-- Generated by graphviz version 2.43.0 (0)
 -->
<!-- Title: stm32_bl.h Pages: 1 -->
<svg width="184pt" height="140pt"
 viewBox="0.00 0.00 183.50 140.00" xmlns="http://www.w3.org/2000/svg" xmlns:xlink="http://www.w3.org/1999/xlink">
<g id="graph0" class="graph" transform="scale(1 1) rotate(0) translate(4 136)">
<title>stm32_bl.h</title>
<!-- Node1 -->
<g id="node1" class="node">
<title>Node1</title>
<g id="a_node1"><a xlink:title="access STM32F103 bootloader">
<polygon fill="#bfbfbf" stroke="black" points="33.5,-112.5 33.5,-131.5 104.5,-131.5 104.5,-112.5 33.5,-112.5"/>
<text text-anchor="middle" x="69" y="-119.5" font-family="Helvetica,sans-Serif" font-size="10.00">stm32_bl.h</text>
</a>
</g>
</g>
<!-- Node2 -->
<g id="node2" class="node">
<title>Node2</title>
<g id="a_node2"><a xlink:title=" ">
<polygon fill="none" stroke="#bfbfbf" points="0,-0.5 0,-19.5 62,-19.5 62,-0.5 0,-0.5"/>
<text text-anchor="middle" x="31" y="-7.5" font-family="Helvetica,sans-Serif" font-size="10.00">stdbool.h</text>
</a>
</g>
</g>
<!-- Node1&#45;&gt;Node2 -->
<g id="edge1" class="edge">
<title>Node1&#45;&gt;Node2</title>
<path fill="none" stroke="midnightblue" d="M63.17,-112.42C57.47,-103.64 48.93,-89.42 44,-76 38.47,-60.96 35.11,-43.06 33.2,-29.85"/>
<polygon fill="midnightblue" stroke="midnightblue" points="36.63,-29.11 31.87,-19.64 29.69,-30.01 36.63,-29.11"/>
</g>
<!-- Node3 -->
<g id="node3" class="node">
<title>Node3</title>
<g id="a_node3"><a xlink:href="int__types_8h_source.html" target="_top" xlink:title=" ">
<polygon fill="none" stroke="black" points="52.5,-56.5 52.5,-75.5 175.5,-75.5 175.5,-56.5 52.5,-56.5"/>
<text text-anchor="middle" x="114" y="-63.5" font-family="Helvetica,sans-Serif" font-size="10.00">utils_misc/int_types.h</text>
</a>
</g>
</g>
<!-- Node1&#45;&gt;Node3 -->
<g id="edge2" class="edge">
<title>Node1&#45;&gt;Node3</title>
<path fill="none" stroke="midnightblue" d="M76.43,-112.08C82.85,-104.38 92.31,-93.03 100.12,-83.65"/>
<polygon fill="midnightblue" stroke="midnightblue" points="102.99,-85.67 106.71,-75.75 97.62,-81.19 102.99,-85.67"/>
</g>
<!-- Node3&#45;&gt;Node2 -->
<g id="edge4" class="edge">
<title>Node3&#45;&gt;Node2</title>
<path fill="none" stroke="midnightblue" d="M100.66,-56.32C87.84,-47.98 68.22,-35.21 53.06,-25.35"/>
<polygon fill="midnightblue" stroke="midnightblue" points="54.59,-22.17 44.3,-19.65 50.78,-28.04 54.59,-22.17"/>
</g>
<!-- Node4 -->
<g id="node4" class="node">
<title>Node4</title>
<g id="a_node4"><a xlink:title=" ">
<polygon fill="none" stroke="#bfbfbf" points="87.5,-0.5 87.5,-19.5 140.5,-19.5 140.5,-0.5 87.5,-0.5"/>
<text text-anchor="middle" x="114" y="-7.5" font-family="Helvetica,sans-Serif" font-size="10.00">stdint.h</text>
</a>
</g>
</g>
<!-- Node3&#45;&gt;Node4 -->
<g id="edge3" class="edge">
<title>Node3&#45;&gt;Node4</title>
<path fill="none" stroke="midnightblue" d="M114,-56.08C114,-49.01 114,-38.86 114,-29.99"/>
<polygon fill="midnightblue" stroke="midnightblue" points="117.5,-29.75 114,-19.75 110.5,-29.75 117.5,-29.75"/>
</g>
</g>
</svg>
