<?xml version="1.0" encoding="UTF-8" standalone="no"?>
<!DOCTYPE svg PUBLIC "-//W3C//DTD SVG 1.1//EN"
 "http://www.w3.org/Graphics/SVG/1.1/DTD/svg11.dtd">
<!-- Generated by graphviz version 2.43.0 (0)
 -->
<!-- Title: uo_types.h Pages: 1 -->
<svg width="796pt" height="196pt"
 viewBox="0.00 0.00 795.51 196.00" xmlns="http://www.w3.org/2000/svg" xmlns:xlink="http://www.w3.org/1999/xlink">
<g id="graph0" class="graph" transform="scale(1 1) rotate(0) translate(4 192)">
<title>uo_types.h</title>
<!-- Node1 -->
<g id="node1" class="node">
<title>Node1</title>
<g id="a_node1"><a xlink:title="API parameter and return types.">
<polygon fill="#bfbfbf" stroke="black" points="379.5,-168.5 379.5,-187.5 449.5,-187.5 449.5,-168.5 379.5,-168.5"/>
<text text-anchor="middle" x="414.5" y="-175.5" font-family="Helvetica,sans-Serif" font-size="10.00">uo_types.h</text>
</a>
</g>
</g>
<!-- Node2 -->
<g id="node2" class="node">
<title>Node2</title>
<g id="a_node2"><a xlink:href="so__target__bits_8h.html" target="_top" xlink:title="flags to select output formats and targets">
<polygon fill="none" stroke="black" points="0,-0.5 0,-19.5 95,-19.5 95,-0.5 0,-0.5"/>
<text text-anchor="middle" x="47.5" y="-7.5" font-family="Helvetica,sans-Serif" font-size="10.00">so_target_bits.h</text>
</a>
</g>
</g>
<!-- Node1&#45;&gt;Node2 -->
<g id="edge1" class="edge">
<title>Node1&#45;&gt;Node2</title>
<path fill="none" stroke="midnightblue" d="M379.28,-173.81C289.12,-164.81 53.98,-135.94 9.5,-76 -2.4,-59.97 13.42,-39.93 28.13,-26.37"/>
<polygon fill="midnightblue" stroke="midnightblue" points="30.72,-28.76 36,-19.58 26.14,-23.47 30.72,-28.76"/>
</g>
<!-- Node3 -->
<g id="node3" class="node">
<title>Node3</title>
<g id="a_node3"><a xlink:href="so__target__desc_8hh.html" target="_top" xlink:title="Provide an output class hierarchy which knows about the required format (text or JSON) and write func...">
<polygon fill="none" stroke="black" points="362,-112.5 362,-131.5 467,-131.5 467,-112.5 362,-112.5"/>
<text text-anchor="middle" x="414.5" y="-119.5" font-family="Helvetica,sans-Serif" font-size="10.00">so_target_desc.hh</text>
</a>
</g>
</g>
<!-- Node1&#45;&gt;Node3 -->
<g id="edge2" class="edge">
<title>Node1&#45;&gt;Node3</title>
<path fill="none" stroke="midnightblue" d="M414.5,-168.08C414.5,-161.01 414.5,-150.86 414.5,-141.99"/>
<polygon fill="midnightblue" stroke="midnightblue" points="418,-141.75 414.5,-131.75 411,-141.75 418,-141.75"/>
</g>
<!-- Node4 -->
<g id="node4" class="node">
<title>Node4</title>
<g id="a_node4"><a xlink:href="so__out_8h.html" target="_top" xlink:title="write formatted output to UoutWriter">
<polygon fill="none" stroke="black" points="18.5,-56.5 18.5,-75.5 76.5,-75.5 76.5,-56.5 18.5,-56.5"/>
<text text-anchor="middle" x="47.5" y="-63.5" font-family="Helvetica,sans-Serif" font-size="10.00">so_out.h</text>
</a>
</g>
</g>
<!-- Node1&#45;&gt;Node4 -->
<g id="edge18" class="edge">
<title>Node1&#45;&gt;Node4</title>
<path fill="none" stroke="midnightblue" d="M386.01,-168.46C320.62,-148.86 159.76,-100.65 85.81,-78.48"/>
<polygon fill="midnightblue" stroke="midnightblue" points="86.56,-75.05 75.97,-75.53 84.55,-81.76 86.56,-75.05"/>
</g>
<!-- Node6 -->
<g id="node6" class="node">
<title>Node6</title>
<g id="a_node6"><a xlink:title=" ">
<polygon fill="none" stroke="#bfbfbf" points="589,-0.5 589,-19.5 642,-19.5 642,-0.5 589,-0.5"/>
<text text-anchor="middle" x="615.5" y="-7.5" font-family="Helvetica,sans-Serif" font-size="10.00">stdint.h</text>
</a>
</g>
</g>
<!-- Node1&#45;&gt;Node6 -->
<g id="edge20" class="edge">
<title>Node1&#45;&gt;Node6</title>
<path fill="none" stroke="midnightblue" d="M449.66,-172.77C533.43,-161.9 740.79,-129.95 780.5,-76 814.61,-29.67 711,-16.34 652.56,-12.52"/>
<polygon fill="midnightblue" stroke="midnightblue" points="652.4,-9.01 642.22,-11.92 651.99,-16 652.4,-9.01"/>
</g>
<!-- Node7 -->
<g id="node7" class="node">
<title>Node7</title>
<g id="a_node7"><a xlink:href="status__json_8hh.html" target="_top" xlink:title="Create JSON output from key/val pairs.">
<polygon fill="none" stroke="black" points="133,-56.5 133,-75.5 220,-75.5 220,-56.5 133,-56.5"/>
<text text-anchor="middle" x="176.5" y="-63.5" font-family="Helvetica,sans-Serif" font-size="10.00">status_json.hh</text>
</a>
</g>
</g>
<!-- Node1&#45;&gt;Node7 -->
<g id="edge19" class="edge">
<title>Node1&#45;&gt;Node7</title>
<path fill="none" stroke="midnightblue" d="M395.82,-168.37C354.11,-149.09 253.21,-102.45 204.17,-79.79"/>
<polygon fill="midnightblue" stroke="midnightblue" points="205.63,-76.61 195.09,-75.59 202.7,-82.96 205.63,-76.61"/>
</g>
<!-- Node10 -->
<g id="node10" class="node">
<title>Node10</title>
<g id="a_node10"><a xlink:title=" ">
<polygon fill="none" stroke="#bfbfbf" points="643.5,-56.5 643.5,-75.5 699.5,-75.5 699.5,-56.5 643.5,-56.5"/>
<text text-anchor="middle" x="671.5" y="-63.5" font-family="Helvetica,sans-Serif" font-size="10.00">unistd.h</text>
</a>
</g>
</g>
<!-- Node1&#45;&gt;Node10 -->
<g id="edge21" class="edge">
<title>Node1&#45;&gt;Node10</title>
<path fill="none" stroke="midnightblue" d="M434.67,-168.37C479.8,-149.05 589.12,-102.26 641.95,-79.65"/>
<polygon fill="midnightblue" stroke="midnightblue" points="643.61,-82.74 651.43,-75.59 640.86,-76.31 643.61,-82.74"/>
</g>
<!-- Node11 -->
<g id="node11" class="node">
<title>Node11</title>
<g id="a_node11"><a xlink:title=" ">
<polygon fill="none" stroke="#bfbfbf" points="718,-56.5 718,-75.5 771,-75.5 771,-56.5 718,-56.5"/>
<text text-anchor="middle" x="744.5" y="-63.5" font-family="Helvetica,sans-Serif" font-size="10.00">string.h</text>
</a>
</g>
</g>
<!-- Node1&#45;&gt;Node11 -->
<g id="edge22" class="edge">
<title>Node1&#45;&gt;Node11</title>
<path fill="none" stroke="midnightblue" d="M442.53,-168.45C471.42,-159.57 517.72,-145.17 557.5,-132 611.33,-114.18 673.45,-92.33 710.81,-79.05"/>
<polygon fill="midnightblue" stroke="midnightblue" points="712.42,-82.19 720.67,-75.54 710.07,-75.6 712.42,-82.19"/>
</g>
<!-- Node3&#45;&gt;Node2 -->
<g id="edge7" class="edge">
<title>Node3&#45;&gt;Node2</title>
<path fill="none" stroke="midnightblue" d="M361.84,-121.39C301.58,-119.95 201.2,-111.68 123.5,-76 98.74,-64.63 75.77,-42.77 61.71,-27.56"/>
<polygon fill="midnightblue" stroke="midnightblue" points="64.13,-25.02 54.86,-19.9 58.92,-29.69 64.13,-25.02"/>
</g>
<!-- Node3&#45;&gt;Node4 -->
<g id="edge3" class="edge">
<title>Node3&#45;&gt;Node4</title>
<path fill="none" stroke="midnightblue" d="M361.86,-114.81C297.61,-107 185.76,-92.56 90.5,-76 89.23,-75.78 87.94,-75.55 86.64,-75.31"/>
<polygon fill="midnightblue" stroke="midnightblue" points="87.07,-71.83 76.59,-73.37 85.75,-78.7 87.07,-71.83"/>
</g>
<!-- Node5 -->
<g id="node5" class="node">
<title>Node5</title>
<g id="a_node5"><a xlink:href="cli__out_8h.html" target="_top" xlink:title="Textual output for console CLI.">
<polygon fill="none" stroke="black" points="455.5,-56.5 455.5,-75.5 513.5,-75.5 513.5,-56.5 455.5,-56.5"/>
<text text-anchor="middle" x="484.5" y="-63.5" font-family="Helvetica,sans-Serif" font-size="10.00">cli_out.h</text>
</a>
</g>
</g>
<!-- Node3&#45;&gt;Node5 -->
<g id="edge5" class="edge">
<title>Node3&#45;&gt;Node5</title>
<path fill="none" stroke="midnightblue" d="M425.75,-112.32C436.3,-104.18 452.3,-91.84 464.94,-82.09"/>
<polygon fill="midnightblue" stroke="midnightblue" points="467.27,-84.71 473.05,-75.83 462.99,-79.17 467.27,-84.71"/>
</g>
<!-- Node3&#45;&gt;Node6 -->
<g id="edge11" class="edge">
<title>Node3&#45;&gt;Node6</title>
<path fill="none" stroke="midnightblue" d="M467.28,-113.88C514.19,-106.52 578.12,-93.63 596.5,-76 608.95,-64.06 613.37,-44.44 614.88,-29.88"/>
<polygon fill="midnightblue" stroke="midnightblue" points="618.39,-29.73 615.56,-19.53 611.41,-29.28 618.39,-29.73"/>
</g>
<!-- Node3&#45;&gt;Node7 -->
<g id="edge8" class="edge">
<title>Node3&#45;&gt;Node7</title>
<path fill="none" stroke="midnightblue" d="M376.79,-112.44C335.36,-103.04 268.74,-87.93 223.83,-77.74"/>
<polygon fill="midnightblue" stroke="midnightblue" points="224.56,-74.32 214.04,-75.52 223.01,-81.14 224.56,-74.32"/>
</g>
<!-- Node9 -->
<g id="node9" class="node">
<title>Node9</title>
<g id="a_node9"><a xlink:title=" ">
<polygon fill="none" stroke="#bfbfbf" points="216,-0.5 216,-19.5 281,-19.5 281,-0.5 216,-0.5"/>
<text text-anchor="middle" x="248.5" y="-7.5" font-family="Helvetica,sans-Serif" font-size="10.00">functional</text>
</a>
</g>
</g>
<!-- Node3&#45;&gt;Node9 -->
<g id="edge16" class="edge">
<title>Node3&#45;&gt;Node9</title>
<path fill="none" stroke="midnightblue" d="M361.87,-117.2C330.56,-112.25 292.25,-101.07 267.5,-76 255.51,-63.85 251.01,-44.58 249.36,-30.17"/>
<polygon fill="midnightblue" stroke="midnightblue" points="252.82,-29.58 248.56,-19.88 245.84,-30.12 252.82,-29.58"/>
</g>
<!-- Node3&#45;&gt;Node10 -->
<g id="edge12" class="edge">
<title>Node3&#45;&gt;Node10</title>
<path fill="none" stroke="midnightblue" d="M455.73,-112.43C499.02,-103.42 569.06,-88.8 629.5,-76 630.77,-75.73 632.07,-75.46 633.37,-75.18"/>
<polygon fill="midnightblue" stroke="midnightblue" points="634.44,-78.53 643.49,-73.02 632.98,-71.68 634.44,-78.53"/>
</g>
<!-- Node3&#45;&gt;Node11 -->
<g id="edge13" class="edge">
<title>Node3&#45;&gt;Node11</title>
<path fill="none" stroke="midnightblue" d="M467.07,-114.46C524.02,-107.03 617.72,-93.84 707.98,-75.94"/>
<polygon fill="midnightblue" stroke="midnightblue" points="708.71,-79.36 717.83,-73.96 707.33,-72.5 708.71,-79.36"/>
</g>
<!-- Node12 -->
<g id="node12" class="node">
<title>Node12</title>
<g id="a_node12"><a xlink:title=" ">
<polygon fill="none" stroke="#bfbfbf" points="531.5,-56.5 531.5,-75.5 587.5,-75.5 587.5,-56.5 531.5,-56.5"/>
<text text-anchor="middle" x="559.5" y="-63.5" font-family="Helvetica,sans-Serif" font-size="10.00">assert.h</text>
</a>
</g>
</g>
<!-- Node3&#45;&gt;Node12 -->
<g id="edge14" class="edge">
<title>Node3&#45;&gt;Node12</title>
<path fill="none" stroke="midnightblue" d="M437.48,-112.44C461.66,-103.44 499.92,-89.19 527.15,-79.05"/>
<polygon fill="midnightblue" stroke="midnightblue" points="528.48,-82.29 536.63,-75.52 526.04,-75.73 528.48,-82.29"/>
</g>
<!-- Node13 -->
<g id="node13" class="node">
<title>Node13</title>
<g id="a_node13"><a xlink:href="itoa_8h_source.html" target="_top" xlink:title=" ">
<polygon fill="none" stroke="black" points="277,-56.5 277,-75.5 374,-75.5 374,-56.5 277,-56.5"/>
<text text-anchor="middle" x="325.5" y="-63.5" font-family="Helvetica,sans-Serif" font-size="10.00">utils_misc/itoa.h</text>
</a>
</g>
</g>
<!-- Node3&#45;&gt;Node13 -->
<g id="edge15" class="edge">
<title>Node3&#45;&gt;Node13</title>
<path fill="none" stroke="midnightblue" d="M400.2,-112.32C386.32,-103.9 365.01,-90.97 348.7,-81.07"/>
<polygon fill="midnightblue" stroke="midnightblue" points="350.13,-77.85 339.76,-75.65 346.5,-83.83 350.13,-77.85"/>
</g>
<!-- Node14 -->
<g id="node14" class="node">
<title>Node14</title>
<g id="a_node14"><a xlink:title=" ">
<polygon fill="none" stroke="#bfbfbf" points="392,-56.5 392,-75.5 437,-75.5 437,-56.5 392,-56.5"/>
<text text-anchor="middle" x="414.5" y="-63.5" font-family="Helvetica,sans-Serif" font-size="10.00">utility</text>
</a>
</g>
</g>
<!-- Node3&#45;&gt;Node14 -->
<g id="edge17" class="edge">
<title>Node3&#45;&gt;Node14</title>
<path fill="none" stroke="midnightblue" d="M414.5,-112.08C414.5,-105.01 414.5,-94.86 414.5,-85.99"/>
<polygon fill="midnightblue" stroke="midnightblue" points="418,-85.75 414.5,-75.75 411,-85.75 418,-85.75"/>
</g>
<!-- Node4&#45;&gt;Node2 -->
<g id="edge4" class="edge">
<title>Node4&#45;&gt;Node2</title>
<path fill="none" stroke="midnightblue" d="M47.5,-56.08C47.5,-49.01 47.5,-38.86 47.5,-29.99"/>
<polygon fill="midnightblue" stroke="midnightblue" points="51,-29.75 47.5,-19.75 44,-29.75 51,-29.75"/>
</g>
<!-- Node5&#45;&gt;Node6 -->
<g id="edge6" class="edge">
<title>Node5&#45;&gt;Node6</title>
<path fill="none" stroke="midnightblue" d="M505.26,-56.44C526.82,-47.56 560.76,-33.56 585.29,-23.45"/>
<polygon fill="midnightblue" stroke="midnightblue" points="586.93,-26.56 594.84,-19.52 584.26,-20.09 586.93,-26.56"/>
</g>
<!-- Node8 -->
<g id="node8" class="node">
<title>Node8</title>
<g id="a_node8"><a xlink:title=" ">
<polygon fill="none" stroke="#bfbfbf" points="145,-0.5 145,-19.5 198,-19.5 198,-0.5 145,-0.5"/>
<text text-anchor="middle" x="171.5" y="-7.5" font-family="Helvetica,sans-Serif" font-size="10.00">stdlib.h</text>
</a>
</g>
</g>
<!-- Node7&#45;&gt;Node8 -->
<g id="edge9" class="edge">
<title>Node7&#45;&gt;Node8</title>
<path fill="none" stroke="midnightblue" d="M175.67,-56.08C175.02,-49.01 174.08,-38.86 173.26,-29.99"/>
<polygon fill="midnightblue" stroke="midnightblue" points="176.72,-29.39 172.31,-19.75 169.75,-30.03 176.72,-29.39"/>
</g>
<!-- Node7&#45;&gt;Node9 -->
<g id="edge10" class="edge">
<title>Node7&#45;&gt;Node9</title>
<path fill="none" stroke="midnightblue" d="M188.07,-56.32C198.92,-48.18 215.38,-35.84 228.38,-26.09"/>
<polygon fill="midnightblue" stroke="midnightblue" points="230.82,-28.63 236.72,-19.83 226.62,-23.03 230.82,-28.63"/>
</g>
</g>
</svg>
