<?xml version="1.0" encoding="UTF-8" standalone="no"?>
<!DOCTYPE svg PUBLIC "-//W3C//DTD SVG 1.1//EN"
 "http://www.w3.org/Graphics/SVG/1.1/DTD/svg11.dtd">
<!-- Generated by graphviz version 2.43.0 (0)
 -->
<!-- Title: uo_callbacks.h Pages: 1 -->
<!--zoomable 252 -->
<svg id="main" version="1.1" xmlns="http://www.w3.org/2000/svg" xmlns:xlink="http://www.w3.org/1999/xlink" xml:space="preserve" onload="init(evt)">
<style type="text/css"><![CDATA[
.edge:hover path { stroke: red; }
.edge:hover polygon { stroke: red; fill: red; }
]]></style>
<script type="text/javascript"><![CDATA[
var edges = document.getElementsByTagName('g');
if (edges && edges.length) {
  for (var i=0;i<edges.length;i++) {
    if (edges[i].id.substr(0,4)=='edge') {
      edges[i].setAttribute('class','edge');
    }
  }
}
]]></script>
        <defs>
                <circle id="rim" cx="0" cy="0" r="7"/>
                <circle id="rim2" cx="0" cy="0" r="3.5"/>
                <g id="zoomPlus">
                        <use xlink:href="#rim" fill="#404040">
                                <set attributeName="fill" to="#808080" begin="zoomplus.mouseover" end="zoomplus.mouseout"/>
                        </use>
                        <path d="M-4,0h8M0,-4v8" fill="none" stroke="white" stroke-width="1.5" pointer-events="none"/>
                </g>
                <g id="zoomMin">
                        <use xlink:href="#rim" fill="#404040">
                                <set attributeName="fill" to="#808080" begin="zoomminus.mouseover" end="zoomminus.mouseout"/>
                        </use>
                        <path d="M-4,0h8" fill="none" stroke="white" stroke-width="1.5" pointer-events="none"/>
                </g>
                <g id="dirArrow">
                        <path fill="none" stroke="white" stroke-width="1.5" d="M0,-3.0v7 M-2.5,-0.5L0,-3.0L2.5,-0.5"/>
                </g>
               <g id="resetDef">
                       <use xlink:href="#rim2" fill="#404040">
                               <set attributeName="fill" to="#808080" begin="reset.mouseover" end="reset.mouseout"/>
                       </use>
               </g>
        </defs>

<script type="text/javascript">
var viewWidth = 834;
var viewHeight = 252;
var sectionId = 'dynsection-0';
</script>
<script xlink:href="svgpan.js"/>
<svg id="graph" class="graph">
<g id="viewport">
<title>uo_callbacks.h</title>
<!-- Node1 -->
<g id="node1" class="node">
<title>Node1</title>
<g id="a_node1"><a xlink:title="pub/sub interface to publish asynchronously to MQTT servers, HTTP&#45;client web&#45;sockets,...">
<polygon fill="#bfbfbf" stroke="black" points="213,-224.5 213,-243.5 302,-243.5 302,-224.5 213,-224.5"/>
<text text-anchor="middle" x="257.5" y="-231.5" font-family="Helvetica,sans-Serif" font-size="10.00">uo_callbacks.h</text>
</a>
</g>
</g>
<!-- Node2 -->
<g id="node2" class="node">
<title>Node2</title>
<g id="a_node2"><a xlink:title=" ">
<polygon fill="none" stroke="#bfbfbf" points="0,-0.5 0,-19.5 53,-19.5 53,-0.5 0,-0.5"/>
<text text-anchor="middle" x="26.5" y="-7.5" font-family="Helvetica,sans-Serif" font-size="10.00">stdint.h</text>
</a>
</g>
</g>
<!-- Node1&#45;&gt;Node2 -->
<g id="edge1" class="edge">
<title>Node1&#45;&gt;Node2</title>
<path fill="none" stroke="midnightblue" d="M238.09,-224.48C203.98,-208.99 131.96,-173.92 79.5,-132 53.2,-110.99 41.13,-107.2 28.5,-76 22.54,-61.28 22.53,-43.12 23.72,-29.74"/>
<polygon fill="midnightblue" stroke="midnightblue" points="27.2,-30.15 24.91,-19.8 20.25,-29.32 27.2,-30.15"/>
</g>
<!-- Node3 -->
<g id="node3" class="node">
<title>Node3</title>
<g id="a_node3"><a xlink:href="uo__types_8h.html" target="_top" xlink:title="API parameter and return types.">
<polygon fill="none" stroke="black" points="210,-168.5 210,-187.5 305,-187.5 305,-168.5 210,-168.5"/>
<text text-anchor="middle" x="257.5" y="-175.5" font-family="Helvetica,sans-Serif" font-size="10.00">uout/uo_types.h</text>
</a>
</g>
</g>
<!-- Node1&#45;&gt;Node3 -->
<g id="edge2" class="edge">
<title>Node1&#45;&gt;Node3</title>
<path fill="none" stroke="midnightblue" d="M257.5,-224.08C257.5,-217.01 257.5,-206.86 257.5,-197.99"/>
<polygon fill="midnightblue" stroke="midnightblue" points="261,-197.75 257.5,-187.75 254,-197.75 261,-197.75"/>
</g>
<!-- Node16 -->
<g id="node16" class="node">
<title>Node16</title>
<g id="a_node16"><a xlink:title=" ">
<polygon fill="none" stroke="#bfbfbf" points="323,-168.5 323,-187.5 392,-187.5 392,-168.5 323,-168.5"/>
<text text-anchor="middle" x="357.5" y="-175.5" font-family="Helvetica,sans-Serif" font-size="10.00">type_traits</text>
</a>
</g>
</g>
<!-- Node1&#45;&gt;Node16 -->
<g id="edge25" class="edge">
<title>Node1&#45;&gt;Node16</title>
<path fill="none" stroke="midnightblue" d="M273.57,-224.32C289.46,-215.74 314.01,-202.49 332.46,-192.52"/>
<polygon fill="midnightblue" stroke="midnightblue" points="334.34,-195.49 341.47,-187.65 331.01,-189.33 334.34,-195.49"/>
</g>
<!-- Node3&#45;&gt;Node2 -->
<g id="edge22" class="edge">
<title>Node3&#45;&gt;Node2</title>
<path fill="none" stroke="midnightblue" d="M214.32,-168.4C165.28,-156.34 86.41,-129.59 42.5,-76 31.81,-62.95 28.1,-43.79 26.89,-29.66"/>
<polygon fill="midnightblue" stroke="midnightblue" points="30.38,-29.41 26.37,-19.61 23.39,-29.77 30.38,-29.41"/>
</g>
<!-- Node4 -->
<g id="node4" class="node">
<title>Node4</title>
<g id="a_node4"><a xlink:href="so__target__bits_8h.html" target="_top" xlink:title="flags to select output formats and targets">
<polygon fill="none" stroke="black" points="169,-0.5 169,-19.5 264,-19.5 264,-0.5 169,-0.5"/>
<text text-anchor="middle" x="216.5" y="-7.5" font-family="Helvetica,sans-Serif" font-size="10.00">so_target_bits.h</text>
</a>
</g>
</g>
<!-- Node3&#45;&gt;Node4 -->
<g id="edge3" class="edge">
<title>Node3&#45;&gt;Node4</title>
<path fill="none" stroke="midnightblue" d="M247.2,-168.3C229.12,-152.25 192.28,-115.99 178.5,-76 175.6,-67.6 175.45,-64.35 178.5,-56 182.56,-44.91 190.69,-34.67 198.39,-26.76"/>
<polygon fill="midnightblue" stroke="midnightblue" points="200.97,-29.14 205.79,-19.7 196.14,-24.07 200.97,-29.14"/>
</g>
<!-- Node5 -->
<g id="node5" class="node">
<title>Node5</title>
<g id="a_node5"><a xlink:href="so__target__desc_8hh.html" target="_top" xlink:title="Provide an output class hierarchy which knows about the required format (text or JSON) and write func...">
<polygon fill="none" stroke="black" points="329,-112.5 329,-131.5 434,-131.5 434,-112.5 329,-112.5"/>
<text text-anchor="middle" x="381.5" y="-119.5" font-family="Helvetica,sans-Serif" font-size="10.00">so_target_desc.hh</text>
</a>
</g>
</g>
<!-- Node3&#45;&gt;Node5 -->
<g id="edge4" class="edge">
<title>Node3&#45;&gt;Node5</title>
<path fill="none" stroke="midnightblue" d="M277.15,-168.44C297.46,-159.6 329.4,-145.69 352.6,-135.59"/>
<polygon fill="midnightblue" stroke="midnightblue" points="354.17,-138.72 361.94,-131.52 351.38,-132.3 354.17,-138.72"/>
</g>
<!-- Node6 -->
<g id="node6" class="node">
<title>Node6</title>
<g id="a_node6"><a xlink:href="so__out_8h.html" target="_top" xlink:title="write formatted output to UoutWriter">
<polygon fill="none" stroke="black" points="187.5,-56.5 187.5,-75.5 245.5,-75.5 245.5,-56.5 187.5,-56.5"/>
<text text-anchor="middle" x="216.5" y="-63.5" font-family="Helvetica,sans-Serif" font-size="10.00">so_out.h</text>
</a>
</g>
</g>
<!-- Node3&#45;&gt;Node6 -->
<g id="edge20" class="edge">
<title>Node3&#45;&gt;Node6</title>
<path fill="none" stroke="midnightblue" d="M254.28,-168.37C247.64,-150.54 232.26,-109.3 223.31,-85.27"/>
<polygon fill="midnightblue" stroke="midnightblue" points="226.47,-83.74 219.7,-75.59 219.92,-86.18 226.47,-83.74"/>
</g>
<!-- Node8 -->
<g id="node8" class="node">
<title>Node8</title>
<g id="a_node8"><a xlink:href="status__json_8hh.html" target="_top" xlink:title="Create JSON output from key/val pairs.">
<polygon fill="none" stroke="black" points="302,-56.5 302,-75.5 389,-75.5 389,-56.5 302,-56.5"/>
<text text-anchor="middle" x="345.5" y="-63.5" font-family="Helvetica,sans-Serif" font-size="10.00">status_json.hh</text>
</a>
</g>
</g>
<!-- Node3&#45;&gt;Node8 -->
<g id="edge21" class="edge">
<title>Node3&#45;&gt;Node8</title>
<path fill="none" stroke="midnightblue" d="M264.41,-168.37C278.99,-150.14 313.16,-107.43 332.16,-83.68"/>
<polygon fill="midnightblue" stroke="midnightblue" points="335.11,-85.59 338.63,-75.59 329.65,-81.21 335.11,-85.59"/>
</g>
<!-- Node11 -->
<g id="node11" class="node">
<title>Node11</title>
<g id="a_node11"><a xlink:title=" ">
<polygon fill="none" stroke="#bfbfbf" points="698.5,-56.5 698.5,-75.5 754.5,-75.5 754.5,-56.5 698.5,-56.5"/>
<text text-anchor="middle" x="726.5" y="-63.5" font-family="Helvetica,sans-Serif" font-size="10.00">unistd.h</text>
</a>
</g>
</g>
<!-- Node3&#45;&gt;Node11 -->
<g id="edge23" class="edge">
<title>Node3&#45;&gt;Node11</title>
<path fill="none" stroke="midnightblue" d="M294.12,-168.45C368.47,-151.08 542.44,-110.41 688.5,-76 688.6,-75.98 688.7,-75.95 688.8,-75.93"/>
<polygon fill="midnightblue" stroke="midnightblue" points="689.35,-79.4 698.28,-73.69 687.74,-72.58 689.35,-79.4"/>
</g>
<!-- Node12 -->
<g id="node12" class="node">
<title>Node12</title>
<g id="a_node12"><a xlink:title=" ">
<polygon fill="none" stroke="#bfbfbf" points="773,-56.5 773,-75.5 826,-75.5 826,-56.5 773,-56.5"/>
<text text-anchor="middle" x="799.5" y="-63.5" font-family="Helvetica,sans-Serif" font-size="10.00">string.h</text>
</a>
</g>
</g>
<!-- Node3&#45;&gt;Node12 -->
<g id="edge24" class="edge">
<title>Node3&#45;&gt;Node12</title>
<path fill="none" stroke="midnightblue" d="M305.26,-169.01C355.83,-160.41 437.95,-146.07 508.5,-132 619.18,-109.93 648.93,-102.9 762.96,-76.08"/>
<polygon fill="midnightblue" stroke="midnightblue" points="763.85,-79.47 772.78,-73.77 762.25,-72.65 763.85,-79.47"/>
</g>
<!-- Node5&#45;&gt;Node2 -->
<g id="edge13" class="edge">
<title>Node5&#45;&gt;Node2</title>
<path fill="none" stroke="midnightblue" d="M328.85,-119.01C250.18,-115.14 106.67,-104.32 64.5,-76 48.26,-65.09 38.02,-44.72 32.32,-29.68"/>
<polygon fill="midnightblue" stroke="midnightblue" points="35.51,-28.2 28.94,-19.88 28.89,-30.48 35.51,-28.2"/>
</g>
<!-- Node5&#45;&gt;Node4 -->
<g id="edge9" class="edge">
<title>Node5&#45;&gt;Node4</title>
<path fill="none" stroke="midnightblue" d="M361.3,-112.46C342.75,-104.24 314.83,-90.88 292.5,-76 270.31,-61.21 247.4,-40.78 232.61,-26.79"/>
<polygon fill="midnightblue" stroke="midnightblue" points="234.93,-24.16 225.29,-19.76 230.08,-29.21 234.93,-24.16"/>
</g>
<!-- Node5&#45;&gt;Node6 -->
<g id="edge5" class="edge">
<title>Node5&#45;&gt;Node6</title>
<path fill="none" stroke="midnightblue" d="M355.36,-112.44C327.48,-103.32 283.15,-88.81 252.1,-78.65"/>
<polygon fill="midnightblue" stroke="midnightblue" points="253.12,-75.3 242.52,-75.52 250.94,-81.95 253.12,-75.3"/>
</g>
<!-- Node7 -->
<g id="node7" class="node">
<title>Node7</title>
<g id="a_node7"><a xlink:href="cli__out_8h.html" target="_top" xlink:title="Textual output for console CLI.">
<polygon fill="none" stroke="black" points="73.5,-56.5 73.5,-75.5 131.5,-75.5 131.5,-56.5 73.5,-56.5"/>
<text text-anchor="middle" x="102.5" y="-63.5" font-family="Helvetica,sans-Serif" font-size="10.00">cli_out.h</text>
</a>
</g>
</g>
<!-- Node5&#45;&gt;Node7 -->
<g id="edge7" class="edge">
<title>Node5&#45;&gt;Node7</title>
<path fill="none" stroke="midnightblue" d="M337.29,-112.44C283.39,-102.01 193.11,-84.54 141.62,-74.57"/>
<polygon fill="midnightblue" stroke="midnightblue" points="142.04,-71.09 131.56,-72.62 140.71,-77.96 142.04,-71.09"/>
</g>
<!-- Node5&#45;&gt;Node8 -->
<g id="edge10" class="edge">
<title>Node5&#45;&gt;Node8</title>
<path fill="none" stroke="midnightblue" d="M375.56,-112.08C370.52,-104.53 363.16,-93.49 356.99,-84.23"/>
<polygon fill="midnightblue" stroke="midnightblue" points="359.79,-82.13 351.33,-75.75 353.97,-86.01 359.79,-82.13"/>
</g>
<!-- Node10 -->
<g id="node10" class="node">
<title>Node10</title>
<g id="a_node10"><a xlink:title=" ">
<polygon fill="none" stroke="#bfbfbf" points="385,-0.5 385,-19.5 450,-19.5 450,-0.5 385,-0.5"/>
<text text-anchor="middle" x="417.5" y="-7.5" font-family="Helvetica,sans-Serif" font-size="10.00">functional</text>
</a>
</g>
</g>
<!-- Node5&#45;&gt;Node10 -->
<g id="edge18" class="edge">
<title>Node5&#45;&gt;Node10</title>
<path fill="none" stroke="midnightblue" d="M384.68,-112.41C387.99,-103.38 393.27,-88.75 397.5,-76 402.67,-60.41 408.12,-42.58 412.03,-29.54"/>
<polygon fill="midnightblue" stroke="midnightblue" points="415.41,-30.45 414.9,-19.87 408.7,-28.46 415.41,-30.45"/>
</g>
<!-- Node5&#45;&gt;Node11 -->
<g id="edge14" class="edge">
<title>Node5&#45;&gt;Node11</title>
<path fill="none" stroke="midnightblue" d="M434.15,-114.7C495.49,-107.03 599.75,-92.98 688.5,-76 688.6,-75.98 688.7,-75.96 688.8,-75.94"/>
<polygon fill="midnightblue" stroke="midnightblue" points="689.26,-79.42 698.34,-73.96 687.83,-72.57 689.26,-79.42"/>
</g>
<!-- Node5&#45;&gt;Node12 -->
<g id="edge15" class="edge">
<title>Node5&#45;&gt;Node12</title>
<path fill="none" stroke="midnightblue" d="M434.03,-116.95C506.01,-110.93 639.47,-98.08 762.85,-75.89"/>
<polygon fill="midnightblue" stroke="midnightblue" points="763.64,-79.3 772.85,-74.07 762.38,-72.42 763.64,-79.3"/>
</g>
<!-- Node13 -->
<g id="node13" class="node">
<title>Node13</title>
<g id="a_node13"><a xlink:title=" ">
<polygon fill="none" stroke="#bfbfbf" points="445.5,-56.5 445.5,-75.5 501.5,-75.5 501.5,-56.5 445.5,-56.5"/>
<text text-anchor="middle" x="473.5" y="-63.5" font-family="Helvetica,sans-Serif" font-size="10.00">assert.h</text>
</a>
</g>
</g>
<!-- Node5&#45;&gt;Node13 -->
<g id="edge16" class="edge">
<title>Node5&#45;&gt;Node13</title>
<path fill="none" stroke="midnightblue" d="M396.28,-112.32C410.77,-103.82 433.07,-90.73 449.99,-80.8"/>
<polygon fill="midnightblue" stroke="midnightblue" points="451.9,-83.74 458.76,-75.65 448.36,-77.7 451.9,-83.74"/>
</g>
<!-- Node14 -->
<g id="node14" class="node">
<title>Node14</title>
<g id="a_node14"><a xlink:href="itoa_8h_source.html" target="_top" xlink:title=" ">
<polygon fill="none" stroke="black" points="520,-56.5 520,-75.5 617,-75.5 617,-56.5 520,-56.5"/>
<text text-anchor="middle" x="568.5" y="-63.5" font-family="Helvetica,sans-Serif" font-size="10.00">utils_misc/itoa.h</text>
</a>
</g>
</g>
<!-- Node5&#45;&gt;Node14 -->
<g id="edge17" class="edge">
<title>Node5&#45;&gt;Node14</title>
<path fill="none" stroke="midnightblue" d="M411.13,-112.44C443,-103.24 493.83,-88.56 529.06,-78.39"/>
<polygon fill="midnightblue" stroke="midnightblue" points="530.37,-81.65 539.01,-75.52 528.43,-74.93 530.37,-81.65"/>
</g>
<!-- Node15 -->
<g id="node15" class="node">
<title>Node15</title>
<g id="a_node15"><a xlink:title=" ">
<polygon fill="none" stroke="#bfbfbf" points="635,-56.5 635,-75.5 680,-75.5 680,-56.5 635,-56.5"/>
<text text-anchor="middle" x="657.5" y="-63.5" font-family="Helvetica,sans-Serif" font-size="10.00">utility</text>
</a>
</g>
</g>
<!-- Node5&#45;&gt;Node15 -->
<g id="edge19" class="edge">
<title>Node5&#45;&gt;Node15</title>
<path fill="none" stroke="midnightblue" d="M434.14,-112.73C481.53,-104.96 553.25,-92.4 624.75,-75.99"/>
<polygon fill="midnightblue" stroke="midnightblue" points="625.89,-79.32 634.84,-73.65 624.31,-72.5 625.89,-79.32"/>
</g>
<!-- Node6&#45;&gt;Node4 -->
<g id="edge6" class="edge">
<title>Node6&#45;&gt;Node4</title>
<path fill="none" stroke="midnightblue" d="M216.5,-56.08C216.5,-49.01 216.5,-38.86 216.5,-29.99"/>
<polygon fill="midnightblue" stroke="midnightblue" points="220,-29.75 216.5,-19.75 213,-29.75 220,-29.75"/>
</g>
<!-- Node7&#45;&gt;Node2 -->
<g id="edge8" class="edge">
<title>Node7&#45;&gt;Node2</title>
<path fill="none" stroke="midnightblue" d="M90.29,-56.32C78.72,-48.11 61.12,-35.6 47.34,-25.81"/>
<polygon fill="midnightblue" stroke="midnightblue" points="49.11,-22.77 38.93,-19.83 45.06,-28.48 49.11,-22.77"/>
</g>
<!-- Node9 -->
<g id="node9" class="node">
<title>Node9</title>
<g id="a_node9"><a xlink:title=" ">
<polygon fill="none" stroke="#bfbfbf" points="314,-0.5 314,-19.5 367,-19.5 367,-0.5 314,-0.5"/>
<text text-anchor="middle" x="340.5" y="-7.5" font-family="Helvetica,sans-Serif" font-size="10.00">stdlib.h</text>
</a>
</g>
</g>
<!-- Node8&#45;&gt;Node9 -->
<g id="edge11" class="edge">
<title>Node8&#45;&gt;Node9</title>
<path fill="none" stroke="midnightblue" d="M344.67,-56.08C344.02,-49.01 343.08,-38.86 342.26,-29.99"/>
<polygon fill="midnightblue" stroke="midnightblue" points="345.72,-29.39 341.31,-19.75 338.75,-30.03 345.72,-29.39"/>
</g>
<!-- Node8&#45;&gt;Node10 -->
<g id="edge12" class="edge">
<title>Node8&#45;&gt;Node10</title>
<path fill="none" stroke="midnightblue" d="M357.07,-56.32C367.92,-48.18 384.38,-35.84 397.38,-26.09"/>
<polygon fill="midnightblue" stroke="midnightblue" points="399.82,-28.63 405.72,-19.83 395.62,-23.03 399.82,-28.63"/>
</g>
</g>
</svg>
        <g id="navigator" transform="translate(0 0)" fill="#404254">
                <rect fill="#f2f5e9" fill-opacity="0.5" stroke="#606060" stroke-width=".5" x="0" y="0" width="60" height="60"/>
                <use id="zoomplus" xlink:href="#zoomPlus" x="17" y="9" onmousedown="handleZoom(evt,'in')"/>
                <use id="zoomminus" xlink:href="#zoomMin" x="42" y="9" onmousedown="handleZoom(evt,'out')"/>
                <use id="reset" xlink:href="#resetDef" x="30" y="36" onmousedown="handleReset()"/>
                <g id="arrowUp" xlink:href="#dirArrow" transform="translate(30 24)" onmousedown="handlePan(0,-1)">
                  <use xlink:href="#rim" fill="#404040">
                        <set attributeName="fill" to="#808080" begin="arrowUp.mouseover" end="arrowUp.mouseout"/>
                  </use>
                  <path fill="none" stroke="white" stroke-width="1.5" d="M0,-3.0v7 M-2.5,-0.5L0,-3.0L2.5,-0.5"/>
                </g>
                <g id="arrowRight" xlink:href="#dirArrow" transform="rotate(90) translate(36 -43)" onmousedown="handlePan(1,0)">
                  <use xlink:href="#rim" fill="#404040">
                        <set attributeName="fill" to="#808080" begin="arrowRight.mouseover" end="arrowRight.mouseout"/>
                  </use>
                  <path fill="none" stroke="white" stroke-width="1.5" d="M0,-3.0v7 M-2.5,-0.5L0,-3.0L2.5,-0.5"/>
                </g>
                <g id="arrowDown" xlink:href="#dirArrow" transform="rotate(180) translate(-30 -48)" onmousedown="handlePan(0,1)">
                  <use xlink:href="#rim" fill="#404040">
                        <set attributeName="fill" to="#808080" begin="arrowDown.mouseover" end="arrowDown.mouseout"/>
                  </use>
                  <path fill="none" stroke="white" stroke-width="1.5" d="M0,-3.0v7 M-2.5,-0.5L0,-3.0L2.5,-0.5"/>
                </g>
                <g id="arrowLeft" xlink:href="#dirArrow" transform="rotate(270) translate(-36 17)" onmousedown="handlePan(-1,0)">
                  <use xlink:href="#rim" fill="#404040">
                        <set attributeName="fill" to="#808080" begin="arrowLeft.mouseover" end="arrowLeft.mouseout"/>
                  </use>
                  <path fill="none" stroke="white" stroke-width="1.5" d="M0,-3.0v7 M-2.5,-0.5L0,-3.0L2.5,-0.5"/>
                </g>
        </g>
        <svg viewBox="0 0 15 15" width="100%" height="30px" preserveAspectRatio="xMaxYMin meet">
         <g id="arrow_out" transform="scale(0.3 0.3)">
          <a xlink:href="uo__callbacks_8h__incl_org.svg" target="_base">
           <rect id="button" ry="5" rx="5" y="6" x="6" height="38" width="38"
                fill="#f2f5e9" fill-opacity="0.5" stroke="#606060" stroke-width="1.0"/>
           <path id="arrow"
             d="M 11.500037,31.436501 C 11.940474,20.09759 22.043105,11.32322 32.158766,21.979434 L 37.068811,17.246167 C 37.068811,17.246167 37.088388,32 37.088388,32 L 22.160133,31.978069 C 22.160133,31.978069 26.997745,27.140456 26.997745,27.140456 C 18.528582,18.264221 13.291696,25.230495 11.500037,31.436501 z"
             style="fill:#404040;"/>
          </a>
         </g>
        </svg>
</svg>
