<?xml version="1.0" encoding="UTF-8" standalone="no"?>
<!DOCTYPE svg PUBLIC "-//W3C//DTD SVG 1.1//EN"
 "http://www.w3.org/Graphics/SVG/1.1/DTD/svg11.dtd">
<!-- Generated by graphviz version 2.43.0 (0)
 -->
<!-- Title: UoutWriterBuilder Pages: 1 -->
<svg width="588pt" height="585pt"
 viewBox="0.00 0.00 587.50 585.00" xmlns="http://www.w3.org/2000/svg" xmlns:xlink="http://www.w3.org/1999/xlink">
<g id="graph0" class="graph" transform="scale(1 1) rotate(0) translate(4 581)">
<title>UoutWriterBuilder</title>
<!-- Node1 -->
<g id="node1" class="node">
<title>Node1</title>
<g id="a_node1"><a xlink:title="Build data without an actual data sink for passing to external builder functions expecting a UoutWrit...">
<polygon fill="#bfbfbf" stroke="black" points="227.5,-0.5 227.5,-57.5 350.5,-57.5 350.5,-0.5 227.5,-0.5"/>
<text text-anchor="middle" x="289" y="-45.5" font-family="Helvetica,sans-Serif" font-size="10.00">UoutWriterBuilder</text>
<polyline fill="none" stroke="black" points="227.5,-38.5 350.5,-38.5 "/>
<text text-anchor="middle" x="289" y="-26.5" font-family="Helvetica,sans-Serif" font-size="10.00"> </text>
<polyline fill="none" stroke="black" points="227.5,-19.5 350.5,-19.5 "/>
<text text-anchor="start" x="235.5" y="-7.5" font-family="Helvetica,sans-Serif" font-size="10.00">+ UoutWriterBuilder()</text>
</a>
</g>
</g>
<!-- Node2 -->
<g id="node2" class="node">
<title>Node2</title>
<g id="a_node2"><a xlink:href="classUoutWriter.html" target="_top" xlink:title="Abstract class which contains various data builders.">
<polygon fill="none" stroke="black" points="241.5,-95.5 241.5,-229.5 336.5,-229.5 336.5,-95.5 241.5,-95.5"/>
<text text-anchor="middle" x="289" y="-217.5" font-family="Helvetica,sans-Serif" font-size="10.00">UoutWriter</text>
<polyline fill="none" stroke="black" points="241.5,-210.5 336.5,-210.5 "/>
<text text-anchor="start" x="249.5" y="-198.5" font-family="Helvetica,sans-Serif" font-size="10.00"># myTgt</text>
<polyline fill="none" stroke="black" points="241.5,-191.5 336.5,-191.5 "/>
<text text-anchor="start" x="249.5" y="-179.5" font-family="Helvetica,sans-Serif" font-size="10.00">+ UoutWriter()</text>
<text text-anchor="start" x="249.5" y="-168.5" font-family="Helvetica,sans-Serif" font-size="10.00">+ UoutWriter()</text>
<text text-anchor="start" x="249.5" y="-157.5" font-family="Helvetica,sans-Serif" font-size="10.00">+ operator=()</text>
<text text-anchor="start" x="249.5" y="-146.5" font-family="Helvetica,sans-Serif" font-size="10.00">+ tgt()</text>
<text text-anchor="start" x="249.5" y="-135.5" font-family="Helvetica,sans-Serif" font-size="10.00">+ add_tgt_flag()</text>
<text text-anchor="start" x="249.5" y="-124.5" font-family="Helvetica,sans-Serif" font-size="10.00">+ sj()</text>
<text text-anchor="start" x="249.5" y="-113.5" font-family="Helvetica,sans-Serif" font-size="10.00">+ st()</text>
<text text-anchor="start" x="249.5" y="-102.5" font-family="Helvetica,sans-Serif" font-size="10.00">+ so()</text>
</a>
</g>
</g>
<!-- Node2&#45;&gt;Node1 -->
<g id="edge1" class="edge">
<title>Node2&#45;&gt;Node1</title>
<path fill="none" stroke="midnightblue" d="M289,-85.12C289,-75.36 289,-65.92 289,-57.7"/>
<polygon fill="none" stroke="midnightblue" points="285.5,-85.36 289,-95.36 292.5,-85.36 285.5,-85.36"/>
</g>
<!-- Node3 -->
<g id="node3" class="node">
<title>Node3</title>
<g id="a_node3"><a xlink:href="classUoutRawWriter.html" target="_top" xlink:title="Abstract class which implements public write methods and operators which then call an abstract privat...">
<polygon fill="none" stroke="black" points="0,-382 0,-472 118,-472 118,-382 0,-382"/>
<text text-anchor="middle" x="59" y="-460" font-family="Helvetica,sans-Serif" font-size="10.00">UoutRawWriter</text>
<polyline fill="none" stroke="black" points="0,-453 118,-453 "/>
<text text-anchor="middle" x="59" y="-441" font-family="Helvetica,sans-Serif" font-size="10.00"> </text>
<polyline fill="none" stroke="black" points="0,-434 118,-434 "/>
<text text-anchor="start" x="8" y="-422" font-family="Helvetica,sans-Serif" font-size="10.00">+ write()</text>
<text text-anchor="start" x="8" y="-411" font-family="Helvetica,sans-Serif" font-size="10.00">+ writeln()</text>
<text text-anchor="start" x="8" y="-400" font-family="Helvetica,sans-Serif" font-size="10.00">+ write()</text>
<text text-anchor="start" x="8" y="-389" font-family="Helvetica,sans-Serif" font-size="10.00"># ~UoutRawWriter()</text>
</a>
</g>
</g>
<!-- Node3&#45;&gt;Node2 -->
<g id="edge2" class="edge">
<title>Node3&#45;&gt;Node2</title>
<path fill="none" stroke="midnightblue" d="M75.63,-372.26C86.81,-342.04 103.78,-304.91 127,-277 158.63,-238.98 205.93,-207.82 241.27,-187.84"/>
<polygon fill="none" stroke="midnightblue" points="72.28,-371.21 72.2,-381.81 78.87,-373.58 72.28,-371.21"/>
</g>
<!-- Node4 -->
<g id="node4" class="node">
<title>Node4</title>
<g id="a_node4"><a xlink:href="classUoutBuilderPlaintext.html" target="_top" xlink:title="Print key value pairs as text lines with limited length.">
<polygon fill="none" stroke="black" points="136,-382 136,-472 276,-472 276,-382 136,-382"/>
<text text-anchor="middle" x="206" y="-460" font-family="Helvetica,sans-Serif" font-size="10.00">UoutBuilderPlaintext</text>
<polyline fill="none" stroke="black" points="136,-453 276,-453 "/>
<text text-anchor="middle" x="206" y="-441" font-family="Helvetica,sans-Serif" font-size="10.00"> </text>
<polyline fill="none" stroke="black" points="136,-434 276,-434 "/>
<text text-anchor="start" x="144" y="-422" font-family="Helvetica,sans-Serif" font-size="10.00">+ UoutBuilderPlaintext()</text>
<text text-anchor="start" x="144" y="-411" font-family="Helvetica,sans-Serif" font-size="10.00">+ cli_out_set_x()</text>
<text text-anchor="start" x="144" y="-400" font-family="Helvetica,sans-Serif" font-size="10.00">+ cli_out_x_reply_entry()</text>
<text text-anchor="start" x="144" y="-389" font-family="Helvetica,sans-Serif" font-size="10.00">+ cli_out_close()</text>
</a>
</g>
</g>
<!-- Node4&#45;&gt;Node2 -->
<g id="edge3" class="edge">
<title>Node4&#45;&gt;Node2</title>
<path fill="none" stroke="#404040" d="M219.99,-381.77C232.1,-343.46 249.9,-287.15 264.39,-241.32"/>
<polygon fill="none" stroke="#404040" points="264.48,-241.05 262.47,-234.13 268.1,-229.61 270.1,-236.54 264.48,-241.05"/>
<text text-anchor="middle" x="286.5" y="-251" font-family="Helvetica,sans-Serif" font-size="10.00"> #myStxt</text>
</g>
<!-- Node5 -->
<g id="node5" class="node">
<title>Node5</title>
<g id="a_node5"><a xlink:href="classUoutBuilderJson.html" target="_top" xlink:title="Build JSON output gradually by calling member functions (with key/value parameters).">
<polygon fill="none" stroke="black" points="294,-277.5 294,-576.5 450,-576.5 450,-277.5 294,-277.5"/>
<text text-anchor="middle" x="372" y="-564.5" font-family="Helvetica,sans-Serif" font-size="10.00">UoutBuilderJson</text>
<polyline fill="none" stroke="black" points="294,-557.5 450,-557.5 "/>
<text text-anchor="middle" x="372" y="-545.5" font-family="Helvetica,sans-Serif" font-size="10.00"> </text>
<polyline fill="none" stroke="black" points="294,-538.5 450,-538.5 "/>
<text text-anchor="start" x="302" y="-526.5" font-family="Helvetica,sans-Serif" font-size="10.00">+ UoutBuilderJson()</text>
<text text-anchor="start" x="302" y="-515.5" font-family="Helvetica,sans-Serif" font-size="10.00">+ UoutBuilderJson()</text>
<text text-anchor="start" x="302" y="-504.5" font-family="Helvetica,sans-Serif" font-size="10.00">+ ~UoutBuilderJson()</text>
<text text-anchor="start" x="302" y="-493.5" font-family="Helvetica,sans-Serif" font-size="10.00">+ open_root_object()</text>
<text text-anchor="start" x="302" y="-482.5" font-family="Helvetica,sans-Serif" font-size="10.00">+ close_root_object()</text>
<text text-anchor="start" x="302" y="-471.5" font-family="Helvetica,sans-Serif" font-size="10.00">+ add_object()</text>
<text text-anchor="start" x="302" y="-460.5" font-family="Helvetica,sans-Serif" font-size="10.00">+ add_object()</text>
<text text-anchor="start" x="302" y="-449.5" font-family="Helvetica,sans-Serif" font-size="10.00">+ close_object()</text>
<text text-anchor="start" x="302" y="-438.5" font-family="Helvetica,sans-Serif" font-size="10.00">+ add_key_value_pair_s()</text>
<text text-anchor="start" x="302" y="-427.5" font-family="Helvetica,sans-Serif" font-size="10.00">+ add_key_value_pair_d()</text>
<text text-anchor="start" x="302" y="-416.5" font-family="Helvetica,sans-Serif" font-size="10.00">+ add_key_value_pair_f()</text>
<text text-anchor="start" x="302" y="-405.5" font-family="Helvetica,sans-Serif" font-size="10.00">+ add_array()</text>
<text text-anchor="start" x="302" y="-394.5" font-family="Helvetica,sans-Serif" font-size="10.00">+ close_array()</text>
<text text-anchor="start" x="302" y="-383.5" font-family="Helvetica,sans-Serif" font-size="10.00">+ add_value_d()</text>
<text text-anchor="start" x="302" y="-372.5" font-family="Helvetica,sans-Serif" font-size="10.00">+ add_value_s()</text>
<text text-anchor="start" x="302" y="-361.5" font-family="Helvetica,sans-Serif" font-size="10.00">+ read_json_from_function()</text>
<text text-anchor="start" x="302" y="-350.5" font-family="Helvetica,sans-Serif" font-size="10.00">+ copy_to_buf()</text>
<text text-anchor="start" x="302" y="-339.5" font-family="Helvetica,sans-Serif" font-size="10.00">+ cat_to_buf()</text>
<text text-anchor="start" x="302" y="-328.5" font-family="Helvetica,sans-Serif" font-size="10.00">+ get_json()</text>
<text text-anchor="start" x="302" y="-317.5" font-family="Helvetica,sans-Serif" font-size="10.00">+ writeln_json()</text>
<text text-anchor="start" x="302" y="-306.5" font-family="Helvetica,sans-Serif" font-size="10.00">+ write_json()</text>
<text text-anchor="start" x="302" y="-295.5" font-family="Helvetica,sans-Serif" font-size="10.00">+ write_some_json()</text>
<text text-anchor="start" x="302" y="-284.5" font-family="Helvetica,sans-Serif" font-size="10.00">+ free_buffer()</text>
</a>
</g>
</g>
<!-- Node5&#45;&gt;Node2 -->
<g id="edge4" class="edge">
<title>Node5&#45;&gt;Node2</title>
<path fill="none" stroke="#404040" d="M325.04,-277.49C321.12,-265.09 317.27,-252.9 313.62,-241.38"/>
<polygon fill="none" stroke="#404040" points="313.53,-241.06 307.9,-236.55 309.91,-229.62 315.53,-234.14 313.53,-241.06"/>
<text text-anchor="middle" x="337.5" y="-251" font-family="Helvetica,sans-Serif" font-size="10.00"> #mySj</text>
</g>
<!-- Node6 -->
<g id="node6" class="node">
<title>Node6</title>
<g id="a_node6"><a xlink:href="classUoutPrinter.html" target="_top" xlink:title="Format and print output using the help of UoutWriter.">
<polygon fill="none" stroke="black" points="468.5,-327 468.5,-527 579.5,-527 579.5,-327 468.5,-327"/>
<text text-anchor="middle" x="524" y="-515" font-family="Helvetica,sans-Serif" font-size="10.00">UoutPrinter</text>
<polyline fill="none" stroke="black" points="468.5,-508 579.5,-508 "/>
<text text-anchor="middle" x="524" y="-496" font-family="Helvetica,sans-Serif" font-size="10.00"> </text>
<polyline fill="none" stroke="black" points="468.5,-489 579.5,-489 "/>
<text text-anchor="start" x="476.5" y="-477" font-family="Helvetica,sans-Serif" font-size="10.00">+ UoutPrinter()</text>
<text text-anchor="start" x="476.5" y="-466" font-family="Helvetica,sans-Serif" font-size="10.00">+ print()</text>
<text text-anchor="start" x="476.5" y="-455" font-family="Helvetica,sans-Serif" font-size="10.00">+ print()</text>
<text text-anchor="start" x="476.5" y="-444" font-family="Helvetica,sans-Serif" font-size="10.00">+ print()</text>
<text text-anchor="start" x="476.5" y="-433" font-family="Helvetica,sans-Serif" font-size="10.00">+ print()</text>
<text text-anchor="start" x="476.5" y="-422" font-family="Helvetica,sans-Serif" font-size="10.00">+ print()</text>
<text text-anchor="start" x="476.5" y="-411" font-family="Helvetica,sans-Serif" font-size="10.00">+ print()</text>
<text text-anchor="start" x="476.5" y="-400" font-family="Helvetica,sans-Serif" font-size="10.00">+ print()</text>
<text text-anchor="start" x="476.5" y="-389" font-family="Helvetica,sans-Serif" font-size="10.00">+ x_open()</text>
<text text-anchor="start" x="476.5" y="-378" font-family="Helvetica,sans-Serif" font-size="10.00">+ x_close()</text>
<text text-anchor="start" x="476.5" y="-367" font-family="Helvetica,sans-Serif" font-size="10.00">+ root_open()</text>
<text text-anchor="start" x="476.5" y="-356" font-family="Helvetica,sans-Serif" font-size="10.00">+ root_close()</text>
<text text-anchor="start" x="476.5" y="-345" font-family="Helvetica,sans-Serif" font-size="10.00">+ hasOutput_text()</text>
<text text-anchor="start" x="476.5" y="-334" font-family="Helvetica,sans-Serif" font-size="10.00">+ hasOutput_json()</text>
</a>
</g>
</g>
<!-- Node6&#45;&gt;Node2 -->
<g id="edge5" class="edge">
<title>Node6&#45;&gt;Node2</title>
<path fill="none" stroke="#404040" d="M490.25,-326.77C481.67,-309.13 471.32,-291.72 459,-277 428.56,-240.62 383.56,-211.29 347.5,-191.56"/>
<polygon fill="none" stroke="#404040" points="347.21,-191.4 340.03,-192.1 336.63,-185.75 343.8,-185.05 347.21,-191.4"/>
<text text-anchor="middle" x="460" y="-251" font-family="Helvetica,sans-Serif" font-size="10.00"> #mySo</text>
</g>
</g>
</svg>
