<?xml version="1.0" encoding="UTF-8" standalone="no"?>
<!DOCTYPE svg PUBLIC "-//W3C//DTD SVG 1.1//EN"
 "http://www.w3.org/Graphics/SVG/1.1/DTD/svg11.dtd">
<!-- Generated by graphviz version 2.43.0 (0)
 -->
<!-- Title: JsmnBase Pages: 1 -->
<svg width="168pt" height="248pt"
 viewBox="0.00 0.00 168.00 248.00" xmlns="http://www.w3.org/2000/svg" xmlns:xlink="http://www.w3.org/1999/xlink">
<g id="graph0" class="graph" transform="scale(1 1) rotate(0) translate(4 244)">
<title>JsmnBase</title>
<!-- Node1 -->
<g id="node1" class="node">
<title>Node1</title>
<g id="a_node1"><a xlink:title=" ">
<polygon fill="#bfbfbf" stroke="black" points="13,-94.5 13,-239.5 147,-239.5 147,-94.5 13,-94.5"/>
<text text-anchor="middle" x="80" y="-227.5" font-family="Helvetica,sans-Serif" font-size="10.00">JsmnBase</text>
<polyline fill="none" stroke="black" points="13,-220.5 147,-220.5 "/>
<text text-anchor="middle" x="80" y="-208.5" font-family="Helvetica,sans-Serif" font-size="10.00"> </text>
<polyline fill="none" stroke="black" points="13,-201.5 147,-201.5 "/>
<text text-anchor="start" x="21" y="-189.5" font-family="Helvetica,sans-Serif" font-size="10.00">+ JsmnBase()</text>
<text text-anchor="start" x="21" y="-178.5" font-family="Helvetica,sans-Serif" font-size="10.00">+ ~JsmnBase()</text>
<text text-anchor="start" x="21" y="-167.5" font-family="Helvetica,sans-Serif" font-size="10.00">+ operator bool()</text>
<text text-anchor="start" x="21" y="-156.5" font-family="Helvetica,sans-Serif" font-size="10.00">+ get_json()</text>
<text text-anchor="start" x="21" y="-145.5" font-family="Helvetica,sans-Serif" font-size="10.00">+ begin()</text>
<text text-anchor="start" x="21" y="-134.5" font-family="Helvetica,sans-Serif" font-size="10.00">+ end()</text>
<text text-anchor="start" x="21" y="-123.5" font-family="Helvetica,sans-Serif" font-size="10.00">+ skip_value()</text>
<text text-anchor="start" x="21" y="-112.5" font-family="Helvetica,sans-Serif" font-size="10.00">+ skip_key_and_value()</text>
<text text-anchor="start" x="21" y="-101.5" font-family="Helvetica,sans-Serif" font-size="10.00"># JsmnBase()</text>
</a>
</g>
</g>
<!-- Node2 -->
<g id="node2" class="node">
<title>Node2</title>
<g id="a_node2"><a xlink:href="classJsmn.html" target="_top" xlink:title=" ">
<polygon fill="none" stroke="black" points="0,-0.5 0,-57.5 160,-57.5 160,-0.5 0,-0.5"/>
<text text-anchor="middle" x="80" y="-45.5" font-family="Helvetica,sans-Serif" font-size="10.00">Jsmn&lt; JSON_MAX_TOKENS &gt;</text>
<polyline fill="none" stroke="black" points="0,-38.5 160,-38.5 "/>
<text text-anchor="middle" x="80" y="-26.5" font-family="Helvetica,sans-Serif" font-size="10.00"> </text>
<polyline fill="none" stroke="black" points="0,-19.5 160,-19.5 "/>
<text text-anchor="start" x="8" y="-7.5" font-family="Helvetica,sans-Serif" font-size="10.00">+ Jsmn()</text>
</a>
</g>
</g>
<!-- Node1&#45;&gt;Node2 -->
<g id="edge1" class="edge">
<title>Node1&#45;&gt;Node2</title>
<path fill="none" stroke="midnightblue" d="M80,-84.39C80,-74.86 80,-65.71 80,-57.71"/>
<polygon fill="none" stroke="midnightblue" points="76.5,-84.42 80,-94.42 83.5,-84.42 76.5,-84.42"/>
</g>
</g>
</svg>
