<?xml version="1.0" encoding="UTF-8" standalone="no"?>
<!DOCTYPE svg PUBLIC "-//W3C//DTD SVG 1.1//EN"
 "http://www.w3.org/Graphics/SVG/1.1/DTD/svg11.dtd">
<!-- Generated by graphviz version 2.43.0 (0)
 -->
<!-- Title: Weather_Provider Pages: 1 -->
<svg width="336pt" height="215pt"
 viewBox="0.00 0.00 336.00 215.00" xmlns="http://www.w3.org/2000/svg" xmlns:xlink="http://www.w3.org/1999/xlink">
<g id="graph0" class="graph" transform="scale(1 1) rotate(0) translate(4 211)">
<title>Weather_Provider</title>
<!-- Node1 -->
<g id="node1" class="node">
<title>Node1</title>
<g id="a_node1"><a xlink:title=" ">
<polygon fill="#bfbfbf" stroke="black" points="100.5,-138.5 100.5,-206.5 232.5,-206.5 232.5,-138.5 100.5,-138.5"/>
<text text-anchor="middle" x="166.5" y="-194.5" font-family="Helvetica,sans-Serif" font-size="10.00">Weather_Provider</text>
<polyline fill="none" stroke="black" points="100.5,-187.5 232.5,-187.5 "/>
<text text-anchor="middle" x="166.5" y="-175.5" font-family="Helvetica,sans-Serif" font-size="10.00"> </text>
<polyline fill="none" stroke="black" points="100.5,-168.5 232.5,-168.5 "/>
<text text-anchor="start" x="108.5" y="-156.5" font-family="Helvetica,sans-Serif" font-size="10.00">+ fetch_weather_data()</text>
<text text-anchor="start" x="108.5" y="-145.5" font-family="Helvetica,sans-Serif" font-size="10.00">+ ~Weather_Provider()</text>
</a>
</g>
</g>
<!-- Node2 -->
<g id="node2" class="node">
<title>Node2</title>
<g id="a_node2"><a xlink:href="classWeather__Provider__Owm.html" target="_top" xlink:title=" ">
<polygon fill="none" stroke="black" points="0,-0.5 0,-101.5 161,-101.5 161,-0.5 0,-0.5"/>
<text text-anchor="middle" x="80.5" y="-89.5" font-family="Helvetica,sans-Serif" font-size="10.00">Weather_Provider_Owm</text>
<polyline fill="none" stroke="black" points="0,-82.5 161,-82.5 "/>
<text text-anchor="middle" x="80.5" y="-70.5" font-family="Helvetica,sans-Serif" font-size="10.00"> </text>
<polyline fill="none" stroke="black" points="0,-63.5 161,-63.5 "/>
<text text-anchor="start" x="8" y="-51.5" font-family="Helvetica,sans-Serif" font-size="10.00">+ fetch_weather_data()</text>
<text text-anchor="start" x="8" y="-40.5" font-family="Helvetica,sans-Serif" font-size="10.00">+ get_url()</text>
<text text-anchor="start" x="8" y="-29.5" font-family="Helvetica,sans-Serif" font-size="10.00">+ set_url()</text>
<text text-anchor="start" x="8" y="-18.5" font-family="Helvetica,sans-Serif" font-size="10.00">+ ~Weather_Provider_Owm()</text>
<text text-anchor="start" x="8" y="-7.5" font-family="Helvetica,sans-Serif" font-size="10.00">+ fetch_owm_data()</text>
</a>
</g>
</g>
<!-- Node1&#45;&gt;Node2 -->
<g id="edge1" class="edge">
<title>Node1&#45;&gt;Node2</title>
<path fill="none" stroke="midnightblue" d="M136.64,-130.02C130.06,-120.86 123.02,-111.08 116.23,-101.65"/>
<polygon fill="none" stroke="midnightblue" points="133.86,-132.14 142.54,-138.21 139.54,-128.05 133.86,-132.14"/>
</g>
<!-- Node3 -->
<g id="node3" class="node">
<title>Node3</title>
<g id="a_node3"><a xlink:href="classWeather__Provider__Random.html" target="_top" xlink:title=" ">
<polygon fill="none" stroke="black" points="179,-22.5 179,-79.5 328,-79.5 328,-22.5 179,-22.5"/>
<text text-anchor="middle" x="253.5" y="-67.5" font-family="Helvetica,sans-Serif" font-size="10.00">Weather_Provider_Random</text>
<polyline fill="none" stroke="black" points="179,-60.5 328,-60.5 "/>
<text text-anchor="middle" x="253.5" y="-48.5" font-family="Helvetica,sans-Serif" font-size="10.00"> </text>
<polyline fill="none" stroke="black" points="179,-41.5 328,-41.5 "/>
<text text-anchor="start" x="187" y="-29.5" font-family="Helvetica,sans-Serif" font-size="10.00">+ fetch_weather_data()</text>
</a>
</g>
</g>
<!-- Node1&#45;&gt;Node3 -->
<g id="edge2" class="edge">
<title>Node1&#45;&gt;Node3</title>
<path fill="none" stroke="midnightblue" d="M196.87,-129.79C208.9,-113.26 222.41,-94.7 233.22,-79.86"/>
<polygon fill="none" stroke="midnightblue" points="193.79,-128.07 190.73,-138.21 199.45,-132.19 193.79,-128.07"/>
</g>
</g>
</svg>
