<?xml version="1.0" encoding="UTF-8" standalone="no"?>
<!DOCTYPE svg PUBLIC "-//W3C//DTD SVG 1.1//EN"
 "http://www.w3.org/Graphics/SVG/1.1/DTD/svg11.dtd">
<!-- Generated by graphviz version 2.43.0 (0)
 -->
<!-- Title: UoutWriter Pages: 1 -->
<svg width="588pt" height="490pt"
 viewBox="0.00 0.00 587.50 490.00" xmlns="http://www.w3.org/2000/svg" xmlns:xlink="http://www.w3.org/1999/xlink">
<g id="graph0" class="graph" transform="scale(1 1) rotate(0) translate(4 486)">
<title>UoutWriter</title>
<!-- Node1 -->
<g id="node1" class="node">
<title>Node1</title>
<g id="a_node1"><a xlink:title="Abstract class which contains various data builders.">
<polygon fill="#bfbfbf" stroke="black" points="241.5,-0.5 241.5,-134.5 336.5,-134.5 336.5,-0.5 241.5,-0.5"/>
<text text-anchor="middle" x="289" y="-122.5" font-family="Helvetica,sans-Serif" font-size="10.00">UoutWriter</text>
<polyline fill="none" stroke="black" points="241.5,-115.5 336.5,-115.5 "/>
<text text-anchor="start" x="249.5" y="-103.5" font-family="Helvetica,sans-Serif" font-size="10.00"># myTgt</text>
<polyline fill="none" stroke="black" points="241.5,-96.5 336.5,-96.5 "/>
<text text-anchor="start" x="249.5" y="-84.5" font-family="Helvetica,sans-Serif" font-size="10.00">+ UoutWriter()</text>
<text text-anchor="start" x="249.5" y="-73.5" font-family="Helvetica,sans-Serif" font-size="10.00">+ UoutWriter()</text>
<text text-anchor="start" x="249.5" y="-62.5" font-family="Helvetica,sans-Serif" font-size="10.00">+ operator=()</text>
<text text-anchor="start" x="249.5" y="-51.5" font-family="Helvetica,sans-Serif" font-size="10.00">+ tgt()</text>
<text text-anchor="start" x="249.5" y="-40.5" font-family="Helvetica,sans-Serif" font-size="10.00">+ add_tgt_flag()</text>
<text text-anchor="start" x="249.5" y="-29.5" font-family="Helvetica,sans-Serif" font-size="10.00">+ sj()</text>
<text text-anchor="start" x="249.5" y="-18.5" font-family="Helvetica,sans-Serif" font-size="10.00">+ st()</text>
<text text-anchor="start" x="249.5" y="-7.5" font-family="Helvetica,sans-Serif" font-size="10.00">+ so()</text>
</a>
</g>
</g>
<!-- Node2 -->
<g id="node2" class="node">
<title>Node2</title>
<g id="a_node2"><a xlink:href="classUoutRawWriter.html" target="_top" xlink:title="Abstract class which implements public write methods and operators which then call an abstract privat...">
<polygon fill="none" stroke="black" points="0,-287 0,-377 118,-377 118,-287 0,-287"/>
<text text-anchor="middle" x="59" y="-365" font-family="Helvetica,sans-Serif" font-size="10.00">UoutRawWriter</text>
<polyline fill="none" stroke="black" points="0,-358 118,-358 "/>
<text text-anchor="middle" x="59" y="-346" font-family="Helvetica,sans-Serif" font-size="10.00"> </text>
<polyline fill="none" stroke="black" points="0,-339 118,-339 "/>
<text text-anchor="start" x="8" y="-327" font-family="Helvetica,sans-Serif" font-size="10.00">+ write()</text>
<text text-anchor="start" x="8" y="-316" font-family="Helvetica,sans-Serif" font-size="10.00">+ writeln()</text>
<text text-anchor="start" x="8" y="-305" font-family="Helvetica,sans-Serif" font-size="10.00">+ write()</text>
<text text-anchor="start" x="8" y="-294" font-family="Helvetica,sans-Serif" font-size="10.00"># ~UoutRawWriter()</text>
</a>
</g>
</g>
<!-- Node2&#45;&gt;Node1 -->
<g id="edge1" class="edge">
<title>Node2&#45;&gt;Node1</title>
<path fill="none" stroke="midnightblue" d="M75.63,-277.26C86.81,-247.04 103.78,-209.91 127,-182 158.63,-143.98 205.93,-112.82 241.27,-92.84"/>
<polygon fill="none" stroke="midnightblue" points="72.28,-276.21 72.2,-286.81 78.87,-278.58 72.28,-276.21"/>
</g>
<!-- Node3 -->
<g id="node3" class="node">
<title>Node3</title>
<g id="a_node3"><a xlink:href="classUoutBuilderPlaintext.html" target="_top" xlink:title="Print key value pairs as text lines with limited length.">
<polygon fill="none" stroke="black" points="136,-287 136,-377 276,-377 276,-287 136,-287"/>
<text text-anchor="middle" x="206" y="-365" font-family="Helvetica,sans-Serif" font-size="10.00">UoutBuilderPlaintext</text>
<polyline fill="none" stroke="black" points="136,-358 276,-358 "/>
<text text-anchor="middle" x="206" y="-346" font-family="Helvetica,sans-Serif" font-size="10.00"> </text>
<polyline fill="none" stroke="black" points="136,-339 276,-339 "/>
<text text-anchor="start" x="144" y="-327" font-family="Helvetica,sans-Serif" font-size="10.00">+ UoutBuilderPlaintext()</text>
<text text-anchor="start" x="144" y="-316" font-family="Helvetica,sans-Serif" font-size="10.00">+ cli_out_set_x()</text>
<text text-anchor="start" x="144" y="-305" font-family="Helvetica,sans-Serif" font-size="10.00">+ cli_out_x_reply_entry()</text>
<text text-anchor="start" x="144" y="-294" font-family="Helvetica,sans-Serif" font-size="10.00">+ cli_out_close()</text>
</a>
</g>
</g>
<!-- Node3&#45;&gt;Node1 -->
<g id="edge2" class="edge">
<title>Node3&#45;&gt;Node1</title>
<path fill="none" stroke="#404040" d="M219.99,-286.77C232.1,-248.46 249.9,-192.15 264.39,-146.32"/>
<polygon fill="none" stroke="#404040" points="264.48,-146.05 262.47,-139.13 268.1,-134.61 270.1,-141.54 264.48,-146.05"/>
<text text-anchor="middle" x="286.5" y="-156" font-family="Helvetica,sans-Serif" font-size="10.00"> #myStxt</text>
</g>
<!-- Node4 -->
<g id="node4" class="node">
<title>Node4</title>
<g id="a_node4"><a xlink:href="classUoutBuilderJson.html" target="_top" xlink:title="Build JSON output gradually by calling member functions (with key/value parameters).">
<polygon fill="none" stroke="black" points="294,-182.5 294,-481.5 450,-481.5 450,-182.5 294,-182.5"/>
<text text-anchor="middle" x="372" y="-469.5" font-family="Helvetica,sans-Serif" font-size="10.00">UoutBuilderJson</text>
<polyline fill="none" stroke="black" points="294,-462.5 450,-462.5 "/>
<text text-anchor="middle" x="372" y="-450.5" font-family="Helvetica,sans-Serif" font-size="10.00"> </text>
<polyline fill="none" stroke="black" points="294,-443.5 450,-443.5 "/>
<text text-anchor="start" x="302" y="-431.5" font-family="Helvetica,sans-Serif" font-size="10.00">+ UoutBuilderJson()</text>
<text text-anchor="start" x="302" y="-420.5" font-family="Helvetica,sans-Serif" font-size="10.00">+ UoutBuilderJson()</text>
<text text-anchor="start" x="302" y="-409.5" font-family="Helvetica,sans-Serif" font-size="10.00">+ ~UoutBuilderJson()</text>
<text text-anchor="start" x="302" y="-398.5" font-family="Helvetica,sans-Serif" font-size="10.00">+ open_root_object()</text>
<text text-anchor="start" x="302" y="-387.5" font-family="Helvetica,sans-Serif" font-size="10.00">+ close_root_object()</text>
<text text-anchor="start" x="302" y="-376.5" font-family="Helvetica,sans-Serif" font-size="10.00">+ add_object()</text>
<text text-anchor="start" x="302" y="-365.5" font-family="Helvetica,sans-Serif" font-size="10.00">+ add_object()</text>
<text text-anchor="start" x="302" y="-354.5" font-family="Helvetica,sans-Serif" font-size="10.00">+ close_object()</text>
<text text-anchor="start" x="302" y="-343.5" font-family="Helvetica,sans-Serif" font-size="10.00">+ add_key_value_pair_s()</text>
<text text-anchor="start" x="302" y="-332.5" font-family="Helvetica,sans-Serif" font-size="10.00">+ add_key_value_pair_d()</text>
<text text-anchor="start" x="302" y="-321.5" font-family="Helvetica,sans-Serif" font-size="10.00">+ add_key_value_pair_f()</text>
<text text-anchor="start" x="302" y="-310.5" font-family="Helvetica,sans-Serif" font-size="10.00">+ add_array()</text>
<text text-anchor="start" x="302" y="-299.5" font-family="Helvetica,sans-Serif" font-size="10.00">+ close_array()</text>
<text text-anchor="start" x="302" y="-288.5" font-family="Helvetica,sans-Serif" font-size="10.00">+ add_value_d()</text>
<text text-anchor="start" x="302" y="-277.5" font-family="Helvetica,sans-Serif" font-size="10.00">+ add_value_s()</text>
<text text-anchor="start" x="302" y="-266.5" font-family="Helvetica,sans-Serif" font-size="10.00">+ read_json_from_function()</text>
<text text-anchor="start" x="302" y="-255.5" font-family="Helvetica,sans-Serif" font-size="10.00">+ copy_to_buf()</text>
<text text-anchor="start" x="302" y="-244.5" font-family="Helvetica,sans-Serif" font-size="10.00">+ cat_to_buf()</text>
<text text-anchor="start" x="302" y="-233.5" font-family="Helvetica,sans-Serif" font-size="10.00">+ get_json()</text>
<text text-anchor="start" x="302" y="-222.5" font-family="Helvetica,sans-Serif" font-size="10.00">+ writeln_json()</text>
<text text-anchor="start" x="302" y="-211.5" font-family="Helvetica,sans-Serif" font-size="10.00">+ write_json()</text>
<text text-anchor="start" x="302" y="-200.5" font-family="Helvetica,sans-Serif" font-size="10.00">+ write_some_json()</text>
<text text-anchor="start" x="302" y="-189.5" font-family="Helvetica,sans-Serif" font-size="10.00">+ free_buffer()</text>
</a>
</g>
</g>
<!-- Node4&#45;&gt;Node1 -->
<g id="edge3" class="edge">
<title>Node4&#45;&gt;Node1</title>
<path fill="none" stroke="#404040" d="M325.04,-182.49C321.12,-170.09 317.27,-157.9 313.62,-146.38"/>
<polygon fill="none" stroke="#404040" points="313.53,-146.06 307.9,-141.55 309.91,-134.62 315.53,-139.14 313.53,-146.06"/>
<text text-anchor="middle" x="337.5" y="-156" font-family="Helvetica,sans-Serif" font-size="10.00"> #mySj</text>
</g>
<!-- Node5 -->
<g id="node5" class="node">
<title>Node5</title>
<g id="a_node5"><a xlink:href="classUoutPrinter.html" target="_top" xlink:title="Format and print output using the help of UoutWriter.">
<polygon fill="none" stroke="black" points="468.5,-232 468.5,-432 579.5,-432 579.5,-232 468.5,-232"/>
<text text-anchor="middle" x="524" y="-420" font-family="Helvetica,sans-Serif" font-size="10.00">UoutPrinter</text>
<polyline fill="none" stroke="black" points="468.5,-413 579.5,-413 "/>
<text text-anchor="middle" x="524" y="-401" font-family="Helvetica,sans-Serif" font-size="10.00"> </text>
<polyline fill="none" stroke="black" points="468.5,-394 579.5,-394 "/>
<text text-anchor="start" x="476.5" y="-382" font-family="Helvetica,sans-Serif" font-size="10.00">+ UoutPrinter()</text>
<text text-anchor="start" x="476.5" y="-371" font-family="Helvetica,sans-Serif" font-size="10.00">+ print()</text>
<text text-anchor="start" x="476.5" y="-360" font-family="Helvetica,sans-Serif" font-size="10.00">+ print()</text>
<text text-anchor="start" x="476.5" y="-349" font-family="Helvetica,sans-Serif" font-size="10.00">+ print()</text>
<text text-anchor="start" x="476.5" y="-338" font-family="Helvetica,sans-Serif" font-size="10.00">+ print()</text>
<text text-anchor="start" x="476.5" y="-327" font-family="Helvetica,sans-Serif" font-size="10.00">+ print()</text>
<text text-anchor="start" x="476.5" y="-316" font-family="Helvetica,sans-Serif" font-size="10.00">+ print()</text>
<text text-anchor="start" x="476.5" y="-305" font-family="Helvetica,sans-Serif" font-size="10.00">+ print()</text>
<text text-anchor="start" x="476.5" y="-294" font-family="Helvetica,sans-Serif" font-size="10.00">+ x_open()</text>
<text text-anchor="start" x="476.5" y="-283" font-family="Helvetica,sans-Serif" font-size="10.00">+ x_close()</text>
<text text-anchor="start" x="476.5" y="-272" font-family="Helvetica,sans-Serif" font-size="10.00">+ root_open()</text>
<text text-anchor="start" x="476.5" y="-261" font-family="Helvetica,sans-Serif" font-size="10.00">+ root_close()</text>
<text text-anchor="start" x="476.5" y="-250" font-family="Helvetica,sans-Serif" font-size="10.00">+ hasOutput_text()</text>
<text text-anchor="start" x="476.5" y="-239" font-family="Helvetica,sans-Serif" font-size="10.00">+ hasOutput_json()</text>
</a>
</g>
</g>
<!-- Node5&#45;&gt;Node1 -->
<g id="edge4" class="edge">
<title>Node5&#45;&gt;Node1</title>
<path fill="none" stroke="#404040" d="M490.25,-231.77C481.67,-214.13 471.32,-196.72 459,-182 428.56,-145.62 383.56,-116.29 347.5,-96.56"/>
<polygon fill="none" stroke="#404040" points="347.21,-96.4 340.03,-97.1 336.63,-90.75 343.8,-90.05 347.21,-96.4"/>
<text text-anchor="middle" x="460" y="-156" font-family="Helvetica,sans-Serif" font-size="10.00"> #mySo</text>
</g>
</g>
</svg>
