<?xml version="1.0" encoding="UTF-8" standalone="no"?>
<!DOCTYPE svg PUBLIC "-//W3C//DTD SVG 1.1//EN"
 "http://www.w3.org/Graphics/SVG/1.1/DTD/svg11.dtd">
<!-- Generated by graphviz version 2.43.0 (0)
 -->
<!-- Title: /home/bertw/proj/mcu/components&#45;mcu/config_kvs/include/config_kvs/comp_settings.hh Pages: 1 -->
<!--zoomable 285 -->
<svg id="main" version="1.1" xmlns="http://www.w3.org/2000/svg" xmlns:xlink="http://www.w3.org/1999/xlink" xml:space="preserve" onload="init(evt)">
<style type="text/css"><![CDATA[
.edge:hover path { stroke: red; }
.edge:hover polygon { stroke: red; fill: red; }
]]></style>
<script type="text/javascript"><![CDATA[
var edges = document.getElementsByTagName('g');
if (edges && edges.length) {
  for (var i=0;i<edges.length;i++) {
    if (edges[i].id.substr(0,4)=='edge') {
      edges[i].setAttribute('class','edge');
    }
  }
}
]]></script>
        <defs>
                <circle id="rim" cx="0" cy="0" r="7"/>
                <circle id="rim2" cx="0" cy="0" r="3.5"/>
                <g id="zoomPlus">
                        <use xlink:href="#rim" fill="#404040">
                                <set attributeName="fill" to="#808080" begin="zoomplus.mouseover" end="zoomplus.mouseout"/>
                        </use>
                        <path d="M-4,0h8M0,-4v8" fill="none" stroke="white" stroke-width="1.5" pointer-events="none"/>
                </g>
                <g id="zoomMin">
                        <use xlink:href="#rim" fill="#404040">
                                <set attributeName="fill" to="#808080" begin="zoomminus.mouseover" end="zoomminus.mouseout"/>
                        </use>
                        <path d="M-4,0h8" fill="none" stroke="white" stroke-width="1.5" pointer-events="none"/>
                </g>
                <g id="dirArrow">
                        <path fill="none" stroke="white" stroke-width="1.5" d="M0,-3.0v7 M-2.5,-0.5L0,-3.0L2.5,-0.5"/>
                </g>
               <g id="resetDef">
                       <use xlink:href="#rim2" fill="#404040">
                               <set attributeName="fill" to="#808080" begin="reset.mouseover" end="reset.mouseout"/>
                       </use>
               </g>
        </defs>

<script type="text/javascript">
var viewWidth = 1028;
var viewHeight = 285;
var sectionId = 'dynsection-0';
</script>
<script xlink:href="svgpan.js"/>
<svg id="graph" class="graph">
<g id="viewport">
<title>/home/bertw/proj/mcu/components&#45;mcu/config_kvs/include/config_kvs/comp_settings.hh</title>
<!-- Node1 -->
<g id="node1" class="node">
<title>Node1</title>
<g id="a_node1"><a xlink:title="Settings for shared components.">
<polygon fill="#bfbfbf" stroke="black" points="618.5,-224.5 618.5,-276.5 755.5,-276.5 755.5,-224.5 618.5,-224.5"/>
<text text-anchor="start" x="626.5" y="-264.5" font-family="Helvetica,sans-Serif" font-size="10.00">/home/bertw/proj/mcu</text>
<text text-anchor="start" x="626.5" y="-253.5" font-family="Helvetica,sans-Serif" font-size="10.00">/components&#45;mcu/config</text>
<text text-anchor="start" x="626.5" y="-242.5" font-family="Helvetica,sans-Serif" font-size="10.00">_kvs/include/config_kvs</text>
<text text-anchor="middle" x="687" y="-231.5" font-family="Helvetica,sans-Serif" font-size="10.00">/comp_settings.hh</text>
</a>
</g>
</g>
<!-- Node2 -->
<g id="node2" class="node">
<title>Node2</title>
<g id="a_node2"><a xlink:href="settings_8hh.html" target="_top" xlink:title=" ">
<polygon fill="none" stroke="black" points="558.5,-168.5 558.5,-187.5 629.5,-187.5 629.5,-168.5 558.5,-168.5"/>
<text text-anchor="middle" x="594" y="-175.5" font-family="Helvetica,sans-Serif" font-size="10.00">settings.hh</text>
</a>
</g>
</g>
<!-- Node1&#45;&gt;Node2 -->
<g id="edge1" class="edge">
<title>Node1&#45;&gt;Node2</title>
<path fill="none" stroke="midnightblue" d="M653.95,-224.45C640.47,-214.23 625.34,-202.76 613.65,-193.9"/>
<polygon fill="midnightblue" stroke="midnightblue" points="615.55,-190.95 605.47,-187.7 611.33,-196.53 615.55,-190.95"/>
</g>
<!-- Node3 -->
<g id="node3" class="node">
<title>Node3</title>
<g id="a_node3"><a xlink:href="options_8hh.html" target="_top" xlink:title="defines strings used in user interface">
<polygon fill="none" stroke="black" points="303.5,-112.5 303.5,-131.5 426.5,-131.5 426.5,-112.5 303.5,-112.5"/>
<text text-anchor="middle" x="365" y="-119.5" font-family="Helvetica,sans-Serif" font-size="10.00">app_config/options.hh</text>
</a>
</g>
</g>
<!-- Node1&#45;&gt;Node3 -->
<g id="edge28" class="edge">
<title>Node1&#45;&gt;Node3</title>
<path fill="none" stroke="midnightblue" d="M623,-224.36C554.42,-197.42 448.41,-155.77 396.22,-135.26"/>
<polygon fill="midnightblue" stroke="midnightblue" points="397.41,-131.97 386.82,-131.57 394.85,-138.49 397.41,-131.97"/>
</g>
<!-- Node15 -->
<g id="node15" class="node">
<title>Node15</title>
<g id="a_node15"><a xlink:title=" ">
<polygon fill="none" stroke="#bfbfbf" points="964,-56.5 964,-75.5 1020,-75.5 1020,-56.5 964,-56.5"/>
<text text-anchor="middle" x="992" y="-63.5" font-family="Helvetica,sans-Serif" font-size="10.00">assert.h</text>
</a>
</g>
</g>
<!-- Node1&#45;&gt;Node15 -->
<g id="edge32" class="edge">
<title>Node1&#45;&gt;Node15</title>
<path fill="none" stroke="midnightblue" d="M729.09,-224.32C794.32,-185.29 917.63,-111.5 968.82,-80.87"/>
<polygon fill="midnightblue" stroke="midnightblue" points="970.73,-83.81 977.51,-75.67 967.13,-77.8 970.73,-83.81"/>
</g>
<!-- Node18 -->
<g id="node18" class="node">
<title>Node18</title>
<g id="a_node18"><a xlink:href="int__macros_8h.html" target="_top" xlink:title="Basic helper macros for integers.">
<polygon fill="none" stroke="black" points="692,-112.5 692,-131.5 824,-131.5 824,-112.5 692,-112.5"/>
<text text-anchor="middle" x="758" y="-119.5" font-family="Helvetica,sans-Serif" font-size="10.00">utils_misc/int_macros.h</text>
</a>
</g>
</g>
<!-- Node1&#45;&gt;Node18 -->
<g id="edge30" class="edge">
<title>Node1&#45;&gt;Node18</title>
<path fill="none" stroke="midnightblue" d="M701.2,-224.2C715.16,-199.32 736.11,-162 748.28,-140.31"/>
<polygon fill="midnightblue" stroke="midnightblue" points="751.36,-141.98 753.2,-131.55 745.25,-138.56 751.36,-141.98"/>
</g>
<!-- Node19 -->
<g id="node19" class="node">
<title>Node19</title>
<g id="a_node19"><a xlink:href="config_8h.html" target="_top" xlink:title=" ">
<polygon fill="none" stroke="black" points="109.5,-112.5 109.5,-131.5 164.5,-131.5 164.5,-112.5 109.5,-112.5"/>
<text text-anchor="middle" x="137" y="-119.5" font-family="Helvetica,sans-Serif" font-size="10.00">config.h</text>
</a>
</g>
</g>
<!-- Node1&#45;&gt;Node19 -->
<g id="edge31" class="edge">
<title>Node1&#45;&gt;Node19</title>
<path fill="none" stroke="midnightblue" d="M618.45,-233.73C501.17,-206.76 265.8,-152.62 174.45,-131.61"/>
<polygon fill="midnightblue" stroke="midnightblue" points="175.07,-128.17 164.54,-129.34 173.5,-134.99 175.07,-128.17"/>
</g>
<!-- Node22 -->
<g id="node22" class="node">
<title>Node22</title>
<g id="a_node22"><a xlink:href="uo__config_8h_source.html" target="_top" xlink:title=" ">
<polygon fill="none" stroke="black" points="880.5,-168.5 880.5,-187.5 977.5,-187.5 977.5,-168.5 880.5,-168.5"/>
<text text-anchor="middle" x="929" y="-175.5" font-family="Helvetica,sans-Serif" font-size="10.00">uout/uo_config.h</text>
</a>
</g>
</g>
<!-- Node1&#45;&gt;Node22 -->
<g id="edge29" class="edge">
<title>Node1&#45;&gt;Node22</title>
<path fill="none" stroke="midnightblue" d="M755.7,-229.49C799.13,-216.83 853.69,-200.94 889.86,-190.4"/>
<polygon fill="midnightblue" stroke="midnightblue" points="890.93,-193.74 899.55,-187.58 888.97,-187.02 890.93,-193.74"/>
</g>
<!-- Node2&#45;&gt;Node3 -->
<g id="edge2" class="edge">
<title>Node2&#45;&gt;Node3</title>
<path fill="none" stroke="midnightblue" d="M558.22,-168.56C518.54,-159.21 454.42,-144.08 411.03,-133.85"/>
<polygon fill="midnightblue" stroke="midnightblue" points="411.82,-130.45 401.29,-131.56 410.22,-137.26 411.82,-130.45"/>
</g>
<!-- Node6 -->
<g id="node6" class="node">
<title>Node6</title>
<g id="a_node6"><a xlink:href="so__target__desc_8hh.html" target="_top" xlink:title="Provide an output class hierarchy which knows about the required format (text or JSON) and write func...">
<polygon fill="none" stroke="black" points="506,-112.5 506,-131.5 636,-131.5 636,-112.5 506,-112.5"/>
<text text-anchor="middle" x="571" y="-119.5" font-family="Helvetica,sans-Serif" font-size="10.00">uout/so_target_desc.hh</text>
</a>
</g>
</g>
<!-- Node2&#45;&gt;Node6 -->
<g id="edge5" class="edge">
<title>Node2&#45;&gt;Node6</title>
<path fill="none" stroke="midnightblue" d="M590.2,-168.08C587.09,-160.77 582.58,-150.18 578.71,-141.1"/>
<polygon fill="midnightblue" stroke="midnightblue" points="581.87,-139.58 574.73,-131.75 575.43,-142.32 581.87,-139.58"/>
</g>
<!-- Node2&#45;&gt;Node15 -->
<g id="edge27" class="edge">
<title>Node2&#45;&gt;Node15</title>
<path fill="none" stroke="midnightblue" d="M602.91,-168.05C617.95,-153.55 649.97,-125.24 683,-112 793.21,-67.83 833.03,-96.82 953.79,-76"/>
<polygon fill="midnightblue" stroke="midnightblue" points="954.57,-79.41 963.79,-74.19 953.32,-72.52 954.57,-79.41"/>
</g>
<!-- Node2&#45;&gt;Node18 -->
<g id="edge21" class="edge">
<title>Node2&#45;&gt;Node18</title>
<path fill="none" stroke="midnightblue" d="M619.99,-168.44C647.7,-159.32 691.75,-144.81 722.62,-134.65"/>
<polygon fill="midnightblue" stroke="midnightblue" points="723.73,-137.97 732.14,-131.52 721.54,-131.32 723.73,-137.97"/>
</g>
<!-- Node2&#45;&gt;Node19 -->
<g id="edge22" class="edge">
<title>Node2&#45;&gt;Node19</title>
<path fill="none" stroke="midnightblue" d="M558.14,-172.76C473.4,-162.75 261.43,-137.7 174.8,-127.47"/>
<polygon fill="midnightblue" stroke="midnightblue" points="174.97,-123.96 164.63,-126.26 174.15,-130.91 174.97,-123.96"/>
</g>
<!-- Node4 -->
<g id="node4" class="node">
<title>Node4</title>
<g id="a_node4"><a xlink:title=" ">
<polygon fill="none" stroke="#bfbfbf" points="232.5,-0.5 232.5,-19.5 285.5,-19.5 285.5,-0.5 232.5,-0.5"/>
<text text-anchor="middle" x="259" y="-7.5" font-family="Helvetica,sans-Serif" font-size="10.00">stdint.h</text>
</a>
</g>
</g>
<!-- Node3&#45;&gt;Node4 -->
<g id="edge3" class="edge">
<title>Node3&#45;&gt;Node4</title>
<path fill="none" stroke="midnightblue" d="M321.53,-112.49C300.68,-106.07 277.39,-94.98 264,-76 254.63,-62.72 254.2,-43.88 255.63,-29.9"/>
<polygon fill="midnightblue" stroke="midnightblue" points="259.1,-30.33 257.04,-19.93 252.17,-29.35 259.1,-30.33"/>
</g>
<!-- Node5 -->
<g id="node5" class="node">
<title>Node5</title>
<g id="a_node5"><a xlink:title=" ">
<polygon fill="none" stroke="#bfbfbf" points="156,-56.5 156,-75.5 212,-75.5 212,-56.5 156,-56.5"/>
<text text-anchor="middle" x="184" y="-63.5" font-family="Helvetica,sans-Serif" font-size="10.00">stddef.h</text>
</a>
</g>
</g>
<!-- Node3&#45;&gt;Node5 -->
<g id="edge4" class="edge">
<title>Node3&#45;&gt;Node5</title>
<path fill="none" stroke="midnightblue" d="M336.32,-112.44C305.38,-103.21 255.98,-88.48 221.87,-78.3"/>
<polygon fill="midnightblue" stroke="midnightblue" points="222.83,-74.93 212.25,-75.43 220.83,-81.64 222.83,-74.93"/>
</g>
<!-- Node6&#45;&gt;Node4 -->
<g id="edge14" class="edge">
<title>Node6&#45;&gt;Node4</title>
<path fill="none" stroke="midnightblue" d="M505.76,-116.66C435.71,-110.9 330.02,-98.7 297,-76 280.88,-64.92 270.62,-44.57 264.88,-29.59"/>
<polygon fill="midnightblue" stroke="midnightblue" points="268.07,-28.12 261.48,-19.83 261.46,-30.43 268.07,-28.12"/>
</g>
<!-- Node7 -->
<g id="node7" class="node">
<title>Node7</title>
<g id="a_node7"><a xlink:href="so__out_8h.html" target="_top" xlink:title="write formatted output to UoutWriter">
<polygon fill="none" stroke="black" points="599,-56.5 599,-75.5 657,-75.5 657,-56.5 599,-56.5"/>
<text text-anchor="middle" x="628" y="-63.5" font-family="Helvetica,sans-Serif" font-size="10.00">so_out.h</text>
</a>
</g>
</g>
<!-- Node6&#45;&gt;Node7 -->
<g id="edge6" class="edge">
<title>Node6&#45;&gt;Node7</title>
<path fill="none" stroke="midnightblue" d="M580.16,-112.32C588.5,-104.42 601.03,-92.55 611.18,-82.94"/>
<polygon fill="midnightblue" stroke="midnightblue" points="613.82,-85.25 618.68,-75.83 609.01,-80.17 613.82,-85.25"/>
</g>
<!-- Node8 -->
<g id="node8" class="node">
<title>Node8</title>
<g id="a_node8"><a xlink:href="so__target__bits_8h.html" target="_top" xlink:title="flags to select output formats and targets">
<polygon fill="none" stroke="black" points="531.5,-0.5 531.5,-19.5 626.5,-19.5 626.5,-0.5 531.5,-0.5"/>
<text text-anchor="middle" x="579" y="-7.5" font-family="Helvetica,sans-Serif" font-size="10.00">so_target_bits.h</text>
</a>
</g>
</g>
<!-- Node6&#45;&gt;Node8 -->
<g id="edge10" class="edge">
<title>Node6&#45;&gt;Node8</title>
<path fill="none" stroke="midnightblue" d="M571.63,-112.37C572.92,-94.62 575.9,-53.67 577.65,-29.6"/>
<polygon fill="midnightblue" stroke="midnightblue" points="581.14,-29.82 578.38,-19.59 574.16,-29.31 581.14,-29.82"/>
</g>
<!-- Node9 -->
<g id="node9" class="node">
<title>Node9</title>
<g id="a_node9"><a xlink:href="cli__out_8h.html" target="_top" xlink:title="Textual output for console CLI.">
<polygon fill="none" stroke="black" points="485,-56.5 485,-75.5 543,-75.5 543,-56.5 485,-56.5"/>
<text text-anchor="middle" x="514" y="-63.5" font-family="Helvetica,sans-Serif" font-size="10.00">cli_out.h</text>
</a>
</g>
</g>
<!-- Node6&#45;&gt;Node9 -->
<g id="edge8" class="edge">
<title>Node6&#45;&gt;Node9</title>
<path fill="none" stroke="midnightblue" d="M561.84,-112.32C553.5,-104.42 540.97,-92.55 530.82,-82.94"/>
<polygon fill="midnightblue" stroke="midnightblue" points="532.99,-80.17 523.32,-75.83 528.18,-85.25 532.99,-80.17"/>
</g>
<!-- Node10 -->
<g id="node10" class="node">
<title>Node10</title>
<g id="a_node10"><a xlink:href="status__json_8hh.html" target="_top" xlink:title="Create JSON output from key/val pairs.">
<polygon fill="none" stroke="black" points="858.5,-56.5 858.5,-75.5 945.5,-75.5 945.5,-56.5 858.5,-56.5"/>
<text text-anchor="middle" x="902" y="-63.5" font-family="Helvetica,sans-Serif" font-size="10.00">status_json.hh</text>
</a>
</g>
</g>
<!-- Node6&#45;&gt;Node10 -->
<g id="edge11" class="edge">
<title>Node6&#45;&gt;Node10</title>
<path fill="none" stroke="midnightblue" d="M625.04,-112.47C679.12,-103.89 765,-90.16 848.42,-76.25"/>
<polygon fill="midnightblue" stroke="midnightblue" points="849.03,-79.7 858.31,-74.6 847.87,-72.79 849.03,-79.7"/>
</g>
<!-- Node12 -->
<g id="node12" class="node">
<title>Node12</title>
<g id="a_node12"><a xlink:title=" ">
<polygon fill="none" stroke="#bfbfbf" points="722.5,-0.5 722.5,-19.5 787.5,-19.5 787.5,-0.5 722.5,-0.5"/>
<text text-anchor="middle" x="755" y="-7.5" font-family="Helvetica,sans-Serif" font-size="10.00">functional</text>
</a>
</g>
</g>
<!-- Node6&#45;&gt;Node12 -->
<g id="edge19" class="edge">
<title>Node6&#45;&gt;Node12</title>
<path fill="none" stroke="midnightblue" d="M591.96,-112.43C611.61,-104.08 641.53,-90.55 666,-76 691.49,-60.84 718.73,-40.21 736.27,-26.29"/>
<polygon fill="midnightblue" stroke="midnightblue" points="738.89,-28.68 744.49,-19.69 734.5,-23.22 738.89,-28.68"/>
</g>
<!-- Node13 -->
<g id="node13" class="node">
<title>Node13</title>
<g id="a_node13"><a xlink:title=" ">
<polygon fill="none" stroke="#bfbfbf" points="713,-56.5 713,-75.5 769,-75.5 769,-56.5 713,-56.5"/>
<text text-anchor="middle" x="741" y="-63.5" font-family="Helvetica,sans-Serif" font-size="10.00">unistd.h</text>
</a>
</g>
</g>
<!-- Node6&#45;&gt;Node13 -->
<g id="edge15" class="edge">
<title>Node6&#45;&gt;Node13</title>
<path fill="none" stroke="midnightblue" d="M597.94,-112.44C626.66,-103.32 672.33,-88.81 704.32,-78.65"/>
<polygon fill="midnightblue" stroke="midnightblue" points="705.72,-81.88 714.19,-75.52 703.6,-75.21 705.72,-81.88"/>
</g>
<!-- Node14 -->
<g id="node14" class="node">
<title>Node14</title>
<g id="a_node14"><a xlink:title=" ">
<polygon fill="none" stroke="#bfbfbf" points="787.5,-56.5 787.5,-75.5 840.5,-75.5 840.5,-56.5 787.5,-56.5"/>
<text text-anchor="middle" x="814" y="-63.5" font-family="Helvetica,sans-Serif" font-size="10.00">string.h</text>
</a>
</g>
</g>
<!-- Node6&#45;&gt;Node14 -->
<g id="edge16" class="edge">
<title>Node6&#45;&gt;Node14</title>
<path fill="none" stroke="midnightblue" d="M611.93,-112.49C651.71,-104.14 714.06,-90.81 777.51,-76.06"/>
<polygon fill="midnightblue" stroke="midnightblue" points="778.34,-79.46 787.29,-73.78 776.75,-72.64 778.34,-79.46"/>
</g>
<!-- Node6&#45;&gt;Node15 -->
<g id="edge17" class="edge">
<title>Node6&#45;&gt;Node15</title>
<path fill="none" stroke="midnightblue" d="M636.29,-113.56C732.71,-102.54 906.25,-82.6 953.87,-75.79"/>
<polygon fill="midnightblue" stroke="midnightblue" points="954.46,-79.24 963.79,-74.24 953.37,-72.33 954.46,-79.24"/>
</g>
<!-- Node16 -->
<g id="node16" class="node">
<title>Node16</title>
<g id="a_node16"><a xlink:href="itoa_8h_source.html" target="_top" xlink:title=" ">
<polygon fill="none" stroke="black" points="306.5,-56.5 306.5,-75.5 403.5,-75.5 403.5,-56.5 306.5,-56.5"/>
<text text-anchor="middle" x="355" y="-63.5" font-family="Helvetica,sans-Serif" font-size="10.00">utils_misc/itoa.h</text>
</a>
</g>
</g>
<!-- Node6&#45;&gt;Node16 -->
<g id="edge18" class="edge">
<title>Node6&#45;&gt;Node16</title>
<path fill="none" stroke="midnightblue" d="M536.77,-112.44C499.49,-103.12 439.73,-88.18 398.99,-78"/>
<polygon fill="midnightblue" stroke="midnightblue" points="399.62,-74.55 389.07,-75.52 397.92,-81.34 399.62,-74.55"/>
</g>
<!-- Node17 -->
<g id="node17" class="node">
<title>Node17</title>
<g id="a_node17"><a xlink:title=" ">
<polygon fill="none" stroke="#bfbfbf" points="421.5,-56.5 421.5,-75.5 466.5,-75.5 466.5,-56.5 421.5,-56.5"/>
<text text-anchor="middle" x="444" y="-63.5" font-family="Helvetica,sans-Serif" font-size="10.00">utility</text>
</a>
</g>
</g>
<!-- Node6&#45;&gt;Node17 -->
<g id="edge20" class="edge">
<title>Node6&#45;&gt;Node17</title>
<path fill="none" stroke="midnightblue" d="M550.88,-112.44C529.98,-103.56 497.07,-89.56 473.28,-79.45"/>
<polygon fill="midnightblue" stroke="midnightblue" points="474.6,-76.21 464.03,-75.52 471.86,-82.65 474.6,-76.21"/>
</g>
<!-- Node7&#45;&gt;Node8 -->
<g id="edge7" class="edge">
<title>Node7&#45;&gt;Node8</title>
<path fill="none" stroke="midnightblue" d="M619.91,-56.08C612.84,-48.3 602.41,-36.8 593.85,-27.37"/>
<polygon fill="midnightblue" stroke="midnightblue" points="596.25,-24.8 586.94,-19.75 591.07,-29.51 596.25,-24.8"/>
</g>
<!-- Node9&#45;&gt;Node4 -->
<g id="edge9" class="edge">
<title>Node9&#45;&gt;Node4</title>
<path fill="none" stroke="midnightblue" d="M484.63,-58.15C481.38,-57.42 478.12,-56.69 475,-56 412.09,-42.19 338.64,-27.11 295.64,-18.38"/>
<polygon fill="midnightblue" stroke="midnightblue" points="296.14,-14.91 285.64,-16.36 294.75,-21.77 296.14,-14.91"/>
</g>
<!-- Node11 -->
<g id="node11" class="node">
<title>Node11</title>
<g id="a_node11"><a xlink:title=" ">
<polygon fill="none" stroke="#bfbfbf" points="875.5,-0.5 875.5,-19.5 928.5,-19.5 928.5,-0.5 875.5,-0.5"/>
<text text-anchor="middle" x="902" y="-7.5" font-family="Helvetica,sans-Serif" font-size="10.00">stdlib.h</text>
</a>
</g>
</g>
<!-- Node10&#45;&gt;Node11 -->
<g id="edge12" class="edge">
<title>Node10&#45;&gt;Node11</title>
<path fill="none" stroke="midnightblue" d="M902,-56.08C902,-49.01 902,-38.86 902,-29.99"/>
<polygon fill="midnightblue" stroke="midnightblue" points="905.5,-29.75 902,-19.75 898.5,-29.75 905.5,-29.75"/>
</g>
<!-- Node10&#45;&gt;Node12 -->
<g id="edge13" class="edge">
<title>Node10&#45;&gt;Node12</title>
<path fill="none" stroke="midnightblue" d="M878.71,-56.44C854.19,-47.44 815.4,-33.19 787.8,-23.05"/>
<polygon fill="midnightblue" stroke="midnightblue" points="788.78,-19.68 778.18,-19.52 786.36,-26.25 788.78,-19.68"/>
</g>
<!-- Node20 -->
<g id="node20" class="node">
<title>Node20</title>
<g id="a_node20"><a xlink:href="int__types_8h_source.html" target="_top" xlink:title=" ">
<polygon fill="none" stroke="black" points="14.5,-56.5 14.5,-75.5 137.5,-75.5 137.5,-56.5 14.5,-56.5"/>
<text text-anchor="middle" x="76" y="-63.5" font-family="Helvetica,sans-Serif" font-size="10.00">utils_misc/int_types.h</text>
</a>
</g>
</g>
<!-- Node19&#45;&gt;Node20 -->
<g id="edge23" class="edge">
<title>Node19&#45;&gt;Node20</title>
<path fill="none" stroke="midnightblue" d="M127.2,-112.32C118.18,-104.34 104.59,-92.31 93.68,-82.65"/>
<polygon fill="midnightblue" stroke="midnightblue" points="95.79,-79.84 85.98,-75.83 91.15,-85.08 95.79,-79.84"/>
</g>
<!-- Node21 -->
<g id="node21" class="node">
<title>Node21</title>
<g id="a_node21"><a xlink:title=" ">
<polygon fill="none" stroke="#bfbfbf" points="0,-0.5 0,-19.5 62,-19.5 62,-0.5 0,-0.5"/>
<text text-anchor="middle" x="31" y="-7.5" font-family="Helvetica,sans-Serif" font-size="10.00">stdbool.h</text>
</a>
</g>
</g>
<!-- Node19&#45;&gt;Node21 -->
<g id="edge26" class="edge">
<title>Node19&#45;&gt;Node21</title>
<path fill="none" stroke="midnightblue" d="M109.32,-120.43C78.12,-118.12 28.67,-109.08 5,-76 -5.66,-61.1 5.24,-41.22 16.02,-27.38"/>
<polygon fill="midnightblue" stroke="midnightblue" points="18.76,-29.55 22.51,-19.64 13.4,-25.05 18.76,-29.55"/>
</g>
<!-- Node20&#45;&gt;Node4 -->
<g id="edge24" class="edge">
<title>Node20&#45;&gt;Node4</title>
<path fill="none" stroke="midnightblue" d="M105,-56.44C136.83,-47.05 187.99,-31.95 222.52,-21.77"/>
<polygon fill="midnightblue" stroke="midnightblue" points="223.62,-25.09 232.22,-18.9 221.64,-18.37 223.62,-25.09"/>
</g>
<!-- Node20&#45;&gt;Node21 -->
<g id="edge25" class="edge">
<title>Node20&#45;&gt;Node21</title>
<path fill="none" stroke="midnightblue" d="M68.57,-56.08C62.15,-48.38 52.69,-37.03 44.88,-27.65"/>
<polygon fill="midnightblue" stroke="midnightblue" points="47.38,-25.19 38.29,-19.75 42.01,-29.67 47.38,-25.19"/>
</g>
</g>
</svg>
        <g id="navigator" transform="translate(0 0)" fill="#404254">
                <rect fill="#f2f5e9" fill-opacity="0.5" stroke="#606060" stroke-width=".5" x="0" y="0" width="60" height="60"/>
                <use id="zoomplus" xlink:href="#zoomPlus" x="17" y="9" onmousedown="handleZoom(evt,'in')"/>
                <use id="zoomminus" xlink:href="#zoomMin" x="42" y="9" onmousedown="handleZoom(evt,'out')"/>
                <use id="reset" xlink:href="#resetDef" x="30" y="36" onmousedown="handleReset()"/>
                <g id="arrowUp" xlink:href="#dirArrow" transform="translate(30 24)" onmousedown="handlePan(0,-1)">
                  <use xlink:href="#rim" fill="#404040">
                        <set attributeName="fill" to="#808080" begin="arrowUp.mouseover" end="arrowUp.mouseout"/>
                  </use>
                  <path fill="none" stroke="white" stroke-width="1.5" d="M0,-3.0v7 M-2.5,-0.5L0,-3.0L2.5,-0.5"/>
                </g>
                <g id="arrowRight" xlink:href="#dirArrow" transform="rotate(90) translate(36 -43)" onmousedown="handlePan(1,0)">
                  <use xlink:href="#rim" fill="#404040">
                        <set attributeName="fill" to="#808080" begin="arrowRight.mouseover" end="arrowRight.mouseout"/>
                  </use>
                  <path fill="none" stroke="white" stroke-width="1.5" d="M0,-3.0v7 M-2.5,-0.5L0,-3.0L2.5,-0.5"/>
                </g>
                <g id="arrowDown" xlink:href="#dirArrow" transform="rotate(180) translate(-30 -48)" onmousedown="handlePan(0,1)">
                  <use xlink:href="#rim" fill="#404040">
                        <set attributeName="fill" to="#808080" begin="arrowDown.mouseover" end="arrowDown.mouseout"/>
                  </use>
                  <path fill="none" stroke="white" stroke-width="1.5" d="M0,-3.0v7 M-2.5,-0.5L0,-3.0L2.5,-0.5"/>
                </g>
                <g id="arrowLeft" xlink:href="#dirArrow" transform="rotate(270) translate(-36 17)" onmousedown="handlePan(-1,0)">
                  <use xlink:href="#rim" fill="#404040">
                        <set attributeName="fill" to="#808080" begin="arrowLeft.mouseover" end="arrowLeft.mouseout"/>
                  </use>
                  <path fill="none" stroke="white" stroke-width="1.5" d="M0,-3.0v7 M-2.5,-0.5L0,-3.0L2.5,-0.5"/>
                </g>
        </g>
        <svg viewBox="0 0 15 15" width="100%" height="30px" preserveAspectRatio="xMaxYMin meet">
         <g id="arrow_out" transform="scale(0.3 0.3)">
          <a xlink:href="comp__settings_8hh__incl_org.svg" target="_base">
           <rect id="button" ry="5" rx="5" y="6" x="6" height="38" width="38"
                fill="#f2f5e9" fill-opacity="0.5" stroke="#606060" stroke-width="1.0"/>
           <path id="arrow"
             d="M 11.500037,31.436501 C 11.940474,20.09759 22.043105,11.32322 32.158766,21.979434 L 37.068811,17.246167 C 37.068811,17.246167 37.088388,32 37.088388,32 L 22.160133,31.978069 C 22.160133,31.978069 26.997745,27.140456 26.997745,27.140456 C 18.528582,18.264221 13.291696,25.230495 11.500037,31.436501 z"
             style="fill:#404040;"/>
          </a>
         </g>
        </svg>
</svg>
