<?xml version="1.0" encoding="UTF-8" standalone="no"?>
<!DOCTYPE svg PUBLIC "-//W3C//DTD SVG 1.1//EN"
 "http://www.w3.org/Graphics/SVG/1.1/DTD/svg11.dtd">
<!-- Generated by graphviz version 2.43.0 (0)
 -->
<!-- Title: /home/bertw/proj/mcu/components&#45;mcu/config_kvs/include/config_kvs/config.h Pages: 1 -->
<svg width="184pt" height="173pt"
 viewBox="0.00 0.00 183.50 173.00" xmlns="http://www.w3.org/2000/svg" xmlns:xlink="http://www.w3.org/1999/xlink">
<g id="graph0" class="graph" transform="scale(1 1) rotate(0) translate(4 169)">
<title>/home/bertw/proj/mcu/components&#45;mcu/config_kvs/include/config_kvs/config.h</title>
<!-- Node1 -->
<g id="node1" class="node">
<title>Node1</title>
<g id="a_node1"><a xlink:title=" ">
<polygon fill="#bfbfbf" stroke="black" points="38,-112.5 38,-164.5 175,-164.5 175,-112.5 38,-112.5"/>
<text text-anchor="start" x="46" y="-152.5" font-family="Helvetica,sans-Serif" font-size="10.00">/home/bertw/proj/mcu</text>
<text text-anchor="start" x="46" y="-141.5" font-family="Helvetica,sans-Serif" font-size="10.00">/components&#45;mcu/config</text>
<text text-anchor="start" x="46" y="-130.5" font-family="Helvetica,sans-Serif" font-size="10.00">_kvs/include/config_kvs</text>
<text text-anchor="middle" x="106.5" y="-119.5" font-family="Helvetica,sans-Serif" font-size="10.00">/config.h</text>
</a>
</g>
</g>
<!-- Node2 -->
<g id="node2" class="node">
<title>Node2</title>
<g id="a_node2"><a xlink:href="int__types_8h_source.html" target="_top" xlink:title=" ">
<polygon fill="none" stroke="black" points="0,-56.5 0,-75.5 123,-75.5 123,-56.5 0,-56.5"/>
<text text-anchor="middle" x="61.5" y="-63.5" font-family="Helvetica,sans-Serif" font-size="10.00">utils_misc/int_types.h</text>
</a>
</g>
</g>
<!-- Node1&#45;&gt;Node2 -->
<g id="edge1" class="edge">
<title>Node1&#45;&gt;Node2</title>
<path fill="none" stroke="midnightblue" d="M90.51,-112.45C84.56,-103.13 77.95,-92.77 72.54,-84.3"/>
<polygon fill="midnightblue" stroke="midnightblue" points="75.38,-82.24 67.05,-75.7 69.48,-86.01 75.38,-82.24"/>
</g>
<!-- Node4 -->
<g id="node4" class="node">
<title>Node4</title>
<g id="a_node4"><a xlink:title=" ">
<polygon fill="none" stroke="#bfbfbf" points="113.5,-0.5 113.5,-19.5 175.5,-19.5 175.5,-0.5 113.5,-0.5"/>
<text text-anchor="middle" x="144.5" y="-7.5" font-family="Helvetica,sans-Serif" font-size="10.00">stdbool.h</text>
</a>
</g>
</g>
<!-- Node1&#45;&gt;Node4 -->
<g id="edge4" class="edge">
<title>Node1&#45;&gt;Node4</title>
<path fill="none" stroke="midnightblue" d="M118.65,-112.22C123.52,-101.29 128.84,-88.21 132.5,-76 137.09,-60.7 140.23,-42.81 142.15,-29.68"/>
<polygon fill="midnightblue" stroke="midnightblue" points="145.65,-29.93 143.52,-19.55 138.71,-28.99 145.65,-29.93"/>
</g>
<!-- Node3 -->
<g id="node3" class="node">
<title>Node3</title>
<g id="a_node3"><a xlink:title=" ">
<polygon fill="none" stroke="#bfbfbf" points="35,-0.5 35,-19.5 88,-19.5 88,-0.5 35,-0.5"/>
<text text-anchor="middle" x="61.5" y="-7.5" font-family="Helvetica,sans-Serif" font-size="10.00">stdint.h</text>
</a>
</g>
</g>
<!-- Node2&#45;&gt;Node3 -->
<g id="edge2" class="edge">
<title>Node2&#45;&gt;Node3</title>
<path fill="none" stroke="midnightblue" d="M61.5,-56.08C61.5,-49.01 61.5,-38.86 61.5,-29.99"/>
<polygon fill="midnightblue" stroke="midnightblue" points="65,-29.75 61.5,-19.75 58,-29.75 65,-29.75"/>
</g>
<!-- Node2&#45;&gt;Node4 -->
<g id="edge3" class="edge">
<title>Node2&#45;&gt;Node4</title>
<path fill="none" stroke="midnightblue" d="M74.84,-56.32C87.66,-47.98 107.28,-35.21 122.44,-25.35"/>
<polygon fill="midnightblue" stroke="midnightblue" points="124.72,-28.04 131.2,-19.65 120.91,-22.17 124.72,-28.04"/>
</g>
</g>
</svg>
