<?xml version="1.0" encoding="UTF-8" standalone="no"?>
<!DOCTYPE svg PUBLIC "-//W3C//DTD SVG 1.1//EN"
 "http://www.w3.org/Graphics/SVG/1.1/DTD/svg11.dtd">
<!-- Generated by graphviz version 2.43.0 (0)
 -->
<!-- Title: /home/bertw/proj/mcu/components&#45;mcu Pages: 1 -->
<!--zoomable 183 -->
<svg id="main" version="1.1" xmlns="http://www.w3.org/2000/svg" xmlns:xlink="http://www.w3.org/1999/xlink" xml:space="preserve" onload="init(evt)">
<style type="text/css"><![CDATA[
.edge:hover path { stroke: red; }
.edge:hover polygon { stroke: red; fill: red; }
]]></style>
<script type="text/javascript"><![CDATA[
var edges = document.getElementsByTagName('g');
if (edges && edges.length) {
  for (var i=0;i<edges.length;i++) {
    if (edges[i].id.substr(0,4)=='edge') {
      edges[i].setAttribute('class','edge');
    }
  }
}
]]></script>
        <defs>
                <circle id="rim" cx="0" cy="0" r="7"/>
                <circle id="rim2" cx="0" cy="0" r="3.5"/>
                <g id="zoomPlus">
                        <use xlink:href="#rim" fill="#404040">
                                <set attributeName="fill" to="#808080" begin="zoomplus.mouseover" end="zoomplus.mouseout"/>
                        </use>
                        <path d="M-4,0h8M0,-4v8" fill="none" stroke="white" stroke-width="1.5" pointer-events="none"/>
                </g>
                <g id="zoomMin">
                        <use xlink:href="#rim" fill="#404040">
                                <set attributeName="fill" to="#808080" begin="zoomminus.mouseover" end="zoomminus.mouseout"/>
                        </use>
                        <path d="M-4,0h8" fill="none" stroke="white" stroke-width="1.5" pointer-events="none"/>
                </g>
                <g id="dirArrow">
                        <path fill="none" stroke="white" stroke-width="1.5" d="M0,-3.0v7 M-2.5,-0.5L0,-3.0L2.5,-0.5"/>
                </g>
               <g id="resetDef">
                       <use xlink:href="#rim2" fill="#404040">
                               <set attributeName="fill" to="#808080" begin="reset.mouseover" end="reset.mouseout"/>
                       </use>
               </g>
        </defs>

<script type="text/javascript">
var viewWidth = 1434;
var viewHeight = 183;
var sectionId = 'dynsection-0';
</script>
<script xlink:href="svgpan.js"/>
<svg id="graph" class="graph">
<g id="viewport">
<title>/home/bertw/proj/mcu/components&#45;mcu</title>
<g id="clust1" class="cluster">
<title>clusterdir_7efe0b038087fb52f2de8d3344eb58d7</title>
<g id="a_clust1"><a xlink:href="dir_7efe0b038087fb52f2de8d3344eb58d7.html" target="_top" xlink:title="mcu">
<polygon fill="#ddddee" stroke="black" points="8,-8 8,-167 1418,-167 1418,-8 8,-8"/>
<text text-anchor="middle" x="713" y="-155" font-family="Helvetica,sans-Serif" font-size="10.00">mcu</text>
</a>
</g>
</g>
<g id="clust2" class="cluster">
<title>clusterdir_392918f195bdb12205be9304d4cf3357</title>
<g id="a_clust2"><a xlink:href="dir_392918f195bdb12205be9304d4cf3357.html" target="_top">
<polygon fill="#eeeeff" stroke="black" points="16,-16 16,-140 1410,-140 1410,-16 16,-16"/>
</a>
</g>
</g>
<!-- dir_392918f195bdb12205be9304d4cf3357 -->
<g id="node1" class="node">
<title>dir_392918f195bdb12205be9304d4cf3357</title>
<text text-anchor="middle" x="1351" y="-111.5" font-family="Helvetica,sans-Serif" font-size="10.00">components&#45;mcu</text>
</g>
<!-- dir_637f746e9861ed257f7550edf4f819cf -->
<g id="node2" class="node">
<title>dir_637f746e9861ed257f7550edf4f819cf</title>
<g id="a_node2"><a xlink:href="dir_637f746e9861ed257f7550edf4f819cf.html" target="_top" xlink:title="_test_">
<polygon fill="white" stroke="red" points="1314,-60 1260,-60 1260,-24 1314,-24 1314,-60"/>
<text text-anchor="middle" x="1287" y="-39.5" font-family="Helvetica,sans-Serif" font-size="10.00">_test_</text>
</a>
</g>
</g>
<!-- dir_08f332ebc886767714011fde1d289be4 -->
<g id="node3" class="node">
<title>dir_08f332ebc886767714011fde1d289be4</title>
<g id="a_node3"><a xlink:href="dir_08f332ebc886767714011fde1d289be4.html" target="_top" xlink:title="cli">
<polygon fill="white" stroke="red" points="1196,-132 1142,-132 1142,-96 1196,-96 1196,-132"/>
<text text-anchor="middle" x="1169" y="-111.5" font-family="Helvetica,sans-Serif" font-size="10.00">cli</text>
</a>
</g>
</g>
<!-- dir_38c3863c8bda2a7e5a786aad1cd49034 -->
<g id="node15" class="node">
<title>dir_38c3863c8bda2a7e5a786aad1cd49034</title>
<g id="a_node15"><a xlink:href="dir_38c3863c8bda2a7e5a786aad1cd49034.html" target="_top" xlink:title="uout">
<polygon fill="white" stroke="red" points="946,-60 892,-60 892,-24 946,-24 946,-60"/>
<text text-anchor="middle" x="919" y="-39.5" font-family="Helvetica,sans-Serif" font-size="10.00">uout</text>
</a>
</g>
</g>
<!-- dir_08f332ebc886767714011fde1d289be4&#45;&gt;dir_38c3863c8bda2a7e5a786aad1cd49034 -->
<g id="edge2" class="edge">
<title>dir_08f332ebc886767714011fde1d289be4&#45;&gt;dir_38c3863c8bda2a7e5a786aad1cd49034</title>
<path fill="none" stroke="black" d="M1141.72,-99.43C1138.81,-98.19 1135.87,-97.02 1133,-96 1072.54,-74.48 999.47,-58.41 956.25,-49.89"/>
<polygon fill="black" stroke="black" points="956.68,-46.41 946.19,-47.93 955.34,-53.28 956.68,-46.41"/>
<g id="a_edge2&#45;headlabel"><a xlink:href="dir_000010_000051.html" target="_top" xlink:title="1">
<text text-anchor="middle" x="960.75" y="-41.8" font-family="Helvetica,sans-Serif" font-size="10.00">1</text>
</a>
</g>
</g>
<!-- dir_3d34bf840d2c4f9941d3458f3b0b8fa5 -->
<g id="node4" class="node">
<title>dir_3d34bf840d2c4f9941d3458f3b0b8fa5</title>
<g id="a_node4"><a xlink:href="dir_3d34bf840d2c4f9941d3458f3b0b8fa5.html" target="_top" xlink:title="config_kvs">
<polygon fill="white" stroke="red" points="1282,-132 1214,-132 1214,-96 1282,-96 1282,-132"/>
<text text-anchor="middle" x="1248" y="-111.5" font-family="Helvetica,sans-Serif" font-size="10.00">config_kvs</text>
</a>
</g>
</g>
<!-- dir_3d34bf840d2c4f9941d3458f3b0b8fa5&#45;&gt;dir_637f746e9861ed257f7550edf4f819cf -->
<g id="edge5" class="edge">
<title>dir_3d34bf840d2c4f9941d3458f3b0b8fa5&#45;&gt;dir_637f746e9861ed257f7550edf4f819cf</title>
<path fill="none" stroke="black" d="M1257.64,-95.7C1262.13,-87.64 1267.56,-77.89 1272.52,-68.98"/>
<polygon fill="black" stroke="black" points="1275.66,-70.54 1277.47,-60.1 1269.55,-67.14 1275.66,-70.54"/>
<g id="a_edge5&#45;headlabel"><a xlink:href="dir_000016_000005.html" target="_top" xlink:title="2">
<text text-anchor="middle" x="1276.39" y="-72.57" font-family="Helvetica,sans-Serif" font-size="10.00">2</text>
</a>
</g>
</g>
<!-- dir_3d34bf840d2c4f9941d3458f3b0b8fa5&#45;&gt;dir_38c3863c8bda2a7e5a786aad1cd49034 -->
<g id="edge4" class="edge">
<title>dir_3d34bf840d2c4f9941d3458f3b0b8fa5&#45;&gt;dir_38c3863c8bda2a7e5a786aad1cd49034</title>
<path fill="none" stroke="black" d="M1213.94,-98.85C1210.94,-97.81 1207.93,-96.84 1205,-96 1117.46,-70.84 1011.29,-54.82 956.21,-47.56"/>
<polygon fill="black" stroke="black" points="956.58,-44.07 946.22,-46.26 955.68,-51.02 956.58,-44.07"/>
<g id="a_edge4&#45;headlabel"><a xlink:href="dir_000016_000051.html" target="_top" xlink:title="1">
<text text-anchor="middle" x="960.51" y="-39.22" font-family="Helvetica,sans-Serif" font-size="10.00">1</text>
</a>
</g>
</g>
<!-- dir_7bb9eb202d1b51997ecec3798d30fe15 -->
<g id="node17" class="node">
<title>dir_7bb9eb202d1b51997ecec3798d30fe15</title>
<g id="a_node17"><a xlink:href="dir_7bb9eb202d1b51997ecec3798d30fe15.html" target="_top" xlink:title="utils_misc">
<polygon fill="white" stroke="red" points="1242,-60 1176,-60 1176,-24 1242,-24 1242,-60"/>
<text text-anchor="middle" x="1209" y="-39.5" font-family="Helvetica,sans-Serif" font-size="10.00">utils_misc</text>
</a>
</g>
</g>
<!-- dir_3d34bf840d2c4f9941d3458f3b0b8fa5&#45;&gt;dir_7bb9eb202d1b51997ecec3798d30fe15 -->
<g id="edge6" class="edge">
<title>dir_3d34bf840d2c4f9941d3458f3b0b8fa5&#45;&gt;dir_7bb9eb202d1b51997ecec3798d30fe15</title>
<path fill="none" stroke="black" d="M1238.36,-95.7C1233.87,-87.64 1228.44,-77.89 1223.48,-68.98"/>
<polygon fill="black" stroke="black" points="1226.45,-67.14 1218.53,-60.1 1220.34,-70.54 1226.45,-67.14"/>
<g id="a_edge6&#45;headlabel"><a xlink:href="dir_000016_000013.html" target="_top" xlink:title="2">
<text text-anchor="middle" x="1230.68" y="-66.39" font-family="Helvetica,sans-Serif" font-size="10.00">2</text>
</a>
</g>
</g>
<!-- dir_11cf7a439b494d0e9bfd72a78ebdec38 -->
<g id="node5" class="node">
<title>dir_11cf7a439b494d0e9bfd72a78ebdec38</title>
<g id="a_node5"><a xlink:href="dir_11cf7a439b494d0e9bfd72a78ebdec38.html" target="_top" xlink:title="firmware_update">
<polygon fill="white" stroke="red" points="1123.5,-132 1024.5,-132 1024.5,-96 1123.5,-96 1123.5,-132"/>
<text text-anchor="middle" x="1074" y="-111.5" font-family="Helvetica,sans-Serif" font-size="10.00">firmware_update</text>
</a>
</g>
</g>
<!-- dir_0ec99679e839f9005d7ef25c29397c8c -->
<g id="node6" class="node">
<title>dir_0ec99679e839f9005d7ef25c29397c8c</title>
<g id="a_node6"><a xlink:href="dir_0ec99679e839f9005d7ef25c29397c8c.html" target="_top" xlink:title="jsmn">
<polygon fill="white" stroke="red" points="1006,-132 952,-132 952,-96 1006,-96 1006,-132"/>
<text text-anchor="middle" x="979" y="-111.5" font-family="Helvetica,sans-Serif" font-size="10.00">jsmn</text>
</a>
</g>
</g>
<!-- dir_32469de8461cee4c78ee51a64d0665a7 -->
<g id="node7" class="node">
<title>dir_32469de8461cee4c78ee51a64d0665a7</title>
<g id="a_node7"><a xlink:href="dir_32469de8461cee4c78ee51a64d0665a7.html" target="_top" xlink:title="key_value_store">
<polygon fill="white" stroke="red" points="934,-132 838,-132 838,-96 934,-96 934,-132"/>
<text text-anchor="middle" x="886" y="-111.5" font-family="Helvetica,sans-Serif" font-size="10.00">key_value_store</text>
</a>
</g>
</g>
<!-- dir_568f90f0b7f4f071c65d73065d5cb7f1 -->
<g id="node8" class="node">
<title>dir_568f90f0b7f4f071c65d73065d5cb7f1</title>
<g id="a_node8"><a xlink:href="dir_568f90f0b7f4f071c65d73065d5cb7f1.html" target="_top" xlink:title="main_loop">
<polygon fill="white" stroke="red" points="820,-132 752,-132 752,-96 820,-96 820,-132"/>
<text text-anchor="middle" x="786" y="-111.5" font-family="Helvetica,sans-Serif" font-size="10.00">main_loop</text>
</a>
</g>
</g>
<!-- dir_f9e898b80868b95bc702c125aa89fe04 -->
<g id="node9" class="node">
<title>dir_f9e898b80868b95bc702c125aa89fe04</title>
<g id="a_node9"><a xlink:href="dir_f9e898b80868b95bc702c125aa89fe04.html" target="_top" xlink:title="net">
<polygon fill="white" stroke="red" points="734,-132 680,-132 680,-96 734,-96 734,-132"/>
<text text-anchor="middle" x="707" y="-111.5" font-family="Helvetica,sans-Serif" font-size="10.00">net</text>
</a>
</g>
</g>
<!-- dir_f9e898b80868b95bc702c125aa89fe04&#45;&gt;dir_38c3863c8bda2a7e5a786aad1cd49034 -->
<g id="edge1" class="edge">
<title>dir_f9e898b80868b95bc702c125aa89fe04&#45;&gt;dir_38c3863c8bda2a7e5a786aad1cd49034</title>
<path fill="none" stroke="black" d="M734.33,-99.58C737.23,-98.31 740.16,-97.09 743,-96 789.9,-77.98 845.69,-62.08 881.69,-52.5"/>
<polygon fill="black" stroke="black" points="882.97,-55.79 891.75,-49.86 881.18,-49.02 882.97,-55.79"/>
<g id="a_edge1&#45;headlabel"><a xlink:href="dir_000031_000051.html" target="_top" xlink:title="1">
<text text-anchor="middle" x="880.21" y="-56.95" font-family="Helvetica,sans-Serif" font-size="10.00">1</text>
</a>
</g>
</g>
<!-- dir_14ca84d317656cb44f9afc55b57bac09 -->
<g id="node10" class="node">
<title>dir_14ca84d317656cb44f9afc55b57bac09</title>
<g id="a_node10"><a xlink:href="dir_14ca84d317656cb44f9afc55b57bac09.html" target="_top" xlink:title="net_http_server">
<polygon fill="white" stroke="red" points="661.5,-132 568.5,-132 568.5,-96 661.5,-96 661.5,-132"/>
<text text-anchor="middle" x="615" y="-111.5" font-family="Helvetica,sans-Serif" font-size="10.00">net_http_server</text>
</a>
</g>
</g>
<!-- dir_006bca3b254776b738577998940fb32a -->
<g id="node11" class="node">
<title>dir_006bca3b254776b738577998940fb32a</title>
<g id="a_node11"><a xlink:href="dir_006bca3b254776b738577998940fb32a.html" target="_top" xlink:title="net_mqtt">
<polygon fill="white" stroke="red" points="550.5,-132 489.5,-132 489.5,-96 550.5,-96 550.5,-132"/>
<text text-anchor="middle" x="520" y="-111.5" font-family="Helvetica,sans-Serif" font-size="10.00">net_mqtt</text>
</a>
</g>
</g>
<!-- dir_a6b78d01378085d21a95d589e6b06247 -->
<g id="node12" class="node">
<title>dir_a6b78d01378085d21a95d589e6b06247</title>
<g id="a_node12"><a xlink:href="dir_a6b78d01378085d21a95d589e6b06247.html" target="_top" xlink:title="stm32">
<polygon fill="white" stroke="red" points="471,-132 417,-132 417,-96 471,-96 471,-132"/>
<text text-anchor="middle" x="444" y="-111.5" font-family="Helvetica,sans-Serif" font-size="10.00">stm32</text>
</a>
</g>
</g>
<!-- dir_7b82bafc3602f610531fa28448df4afd -->
<g id="node13" class="node">
<title>dir_7b82bafc3602f610531fa28448df4afd</title>
<g id="a_node13"><a xlink:href="dir_7b82bafc3602f610531fa28448df4afd.html" target="_top" xlink:title="storage">
<polygon fill="white" stroke="red" points="399,-132 345,-132 345,-96 399,-96 399,-132"/>
<text text-anchor="middle" x="372" y="-111.5" font-family="Helvetica,sans-Serif" font-size="10.00">storage</text>
</a>
</g>
</g>
<!-- dir_b400a50474be486348fc55640bab5f2a -->
<g id="node14" class="node">
<title>dir_b400a50474be486348fc55640bab5f2a</title>
<g id="a_node14"><a xlink:href="dir_b400a50474be486348fc55640bab5f2a.html" target="_top" xlink:title="txtio">
<polygon fill="white" stroke="red" points="327,-132 273,-132 273,-96 327,-96 327,-132"/>
<text text-anchor="middle" x="300" y="-111.5" font-family="Helvetica,sans-Serif" font-size="10.00">txtio</text>
</a>
</g>
</g>
<!-- dir_b400a50474be486348fc55640bab5f2a&#45;&gt;dir_38c3863c8bda2a7e5a786aad1cd49034 -->
<g id="edge3" class="edge">
<title>dir_b400a50474be486348fc55640bab5f2a&#45;&gt;dir_38c3863c8bda2a7e5a786aad1cd49034</title>
<path fill="none" stroke="black" d="M327.14,-98.98C330.08,-97.83 333.07,-96.8 336,-96 439.66,-67.76 769.76,-50.02 881.56,-44.69"/>
<polygon fill="black" stroke="black" points="881.86,-48.18 891.69,-44.22 881.53,-41.19 881.86,-48.18"/>
<g id="a_edge3&#45;headlabel"><a xlink:href="dir_000048_000051.html" target="_top" xlink:title="1">
<text text-anchor="middle" x="878.41" y="-48.69" font-family="Helvetica,sans-Serif" font-size="10.00">1</text>
</a>
</g>
</g>
<!-- dir_896e859d469fb80f7a64c075bb476f21 -->
<g id="node16" class="node">
<title>dir_896e859d469fb80f7a64c075bb476f21</title>
<g id="a_node16"><a xlink:href="dir_896e859d469fb80f7a64c075bb476f21.html" target="_top" xlink:title="utils_debug">
<polygon fill="white" stroke="red" points="254.5,-132 181.5,-132 181.5,-96 254.5,-96 254.5,-132"/>
<text text-anchor="middle" x="218" y="-111.5" font-family="Helvetica,sans-Serif" font-size="10.00">utils_debug</text>
</a>
</g>
</g>
<!-- dir_c4d663939f8f9e1fc719257f6e58d092 -->
<g id="node18" class="node">
<title>dir_c4d663939f8f9e1fc719257f6e58d092</title>
<g id="a_node18"><a xlink:href="dir_c4d663939f8f9e1fc719257f6e58d092.html" target="_top" xlink:title="utils_time">
<polygon fill="white" stroke="red" points="163.5,-132 98.5,-132 98.5,-96 163.5,-96 163.5,-132"/>
<text text-anchor="middle" x="131" y="-111.5" font-family="Helvetica,sans-Serif" font-size="10.00">utils_time</text>
</a>
</g>
</g>
<!-- dir_7689643107806ccc3dec24feec743e09 -->
<g id="node19" class="node">
<title>dir_7689643107806ccc3dec24feec743e09</title>
<g id="a_node19"><a xlink:href="dir_7689643107806ccc3dec24feec743e09.html" target="_top" xlink:title="weather">
<polygon fill="white" stroke="red" points="80,-132 24,-132 24,-96 80,-96 80,-132"/>
<text text-anchor="middle" x="52" y="-111.5" font-family="Helvetica,sans-Serif" font-size="10.00">weather</text>
</a>
</g>
</g>
</g>
</svg>
        <g id="navigator" transform="translate(0 0)" fill="#404254">
                <rect fill="#f2f5e9" fill-opacity="0.5" stroke="#606060" stroke-width=".5" x="0" y="0" width="60" height="60"/>
                <use id="zoomplus" xlink:href="#zoomPlus" x="17" y="9" onmousedown="handleZoom(evt,'in')"/>
                <use id="zoomminus" xlink:href="#zoomMin" x="42" y="9" onmousedown="handleZoom(evt,'out')"/>
                <use id="reset" xlink:href="#resetDef" x="30" y="36" onmousedown="handleReset()"/>
                <g id="arrowUp" xlink:href="#dirArrow" transform="translate(30 24)" onmousedown="handlePan(0,-1)">
                  <use xlink:href="#rim" fill="#404040">
                        <set attributeName="fill" to="#808080" begin="arrowUp.mouseover" end="arrowUp.mouseout"/>
                  </use>
                  <path fill="none" stroke="white" stroke-width="1.5" d="M0,-3.0v7 M-2.5,-0.5L0,-3.0L2.5,-0.5"/>
                </g>
                <g id="arrowRight" xlink:href="#dirArrow" transform="rotate(90) translate(36 -43)" onmousedown="handlePan(1,0)">
                  <use xlink:href="#rim" fill="#404040">
                        <set attributeName="fill" to="#808080" begin="arrowRight.mouseover" end="arrowRight.mouseout"/>
                  </use>
                  <path fill="none" stroke="white" stroke-width="1.5" d="M0,-3.0v7 M-2.5,-0.5L0,-3.0L2.5,-0.5"/>
                </g>
                <g id="arrowDown" xlink:href="#dirArrow" transform="rotate(180) translate(-30 -48)" onmousedown="handlePan(0,1)">
                  <use xlink:href="#rim" fill="#404040">
                        <set attributeName="fill" to="#808080" begin="arrowDown.mouseover" end="arrowDown.mouseout"/>
                  </use>
                  <path fill="none" stroke="white" stroke-width="1.5" d="M0,-3.0v7 M-2.5,-0.5L0,-3.0L2.5,-0.5"/>
                </g>
                <g id="arrowLeft" xlink:href="#dirArrow" transform="rotate(270) translate(-36 17)" onmousedown="handlePan(-1,0)">
                  <use xlink:href="#rim" fill="#404040">
                        <set attributeName="fill" to="#808080" begin="arrowLeft.mouseover" end="arrowLeft.mouseout"/>
                  </use>
                  <path fill="none" stroke="white" stroke-width="1.5" d="M0,-3.0v7 M-2.5,-0.5L0,-3.0L2.5,-0.5"/>
                </g>
        </g>
        <svg viewBox="0 0 15 15" width="100%" height="30px" preserveAspectRatio="xMaxYMin meet">
         <g id="arrow_out" transform="scale(0.3 0.3)">
          <a xlink:href="dir_392918f195bdb12205be9304d4cf3357_dep_org.svg" target="_base">
           <rect id="button" ry="5" rx="5" y="6" x="6" height="38" width="38"
                fill="#f2f5e9" fill-opacity="0.5" stroke="#606060" stroke-width="1.0"/>
           <path id="arrow"
             d="M 11.500037,31.436501 C 11.940474,20.09759 22.043105,11.32322 32.158766,21.979434 L 37.068811,17.246167 C 37.068811,17.246167 37.088388,32 37.088388,32 L 22.160133,31.978069 C 22.160133,31.978069 26.997745,27.140456 26.997745,27.140456 C 18.528582,18.264221 13.291696,25.230495 11.500037,31.436501 z"
             style="fill:#404040;"/>
          </a>
         </g>
        </svg>
</svg>
