<?xml version="1.0" encoding="UTF-8" standalone="no"?>
<!DOCTYPE svg PUBLIC "-//W3C//DTD SVG 1.1//EN"
 "http://www.w3.org/Graphics/SVG/1.1/DTD/svg11.dtd">
<!-- Generated by graphviz version 2.43.0 (0)
 -->
<!-- Title: /home/bertw/proj/mcu/components&#45;mcu/config_kvs/include/config_kvs/settings.hh Pages: 1 -->
<svg width="1104pt" height="229pt"
 viewBox="0.00 0.00 1104.00 229.00" xmlns="http://www.w3.org/2000/svg" xmlns:xlink="http://www.w3.org/1999/xlink">
<g id="graph0" class="graph" transform="scale(1 1) rotate(0) translate(4 225)">
<title>/home/bertw/proj/mcu/components&#45;mcu/config_kvs/include/config_kvs/settings.hh</title>
<!-- Node1 -->
<g id="node1" class="node">
<title>Node1</title>
<g id="a_node1"><a xlink:title=" ">
<polygon fill="#bfbfbf" stroke="black" points="767.5,-168.5 767.5,-220.5 904.5,-220.5 904.5,-168.5 767.5,-168.5"/>
<text text-anchor="start" x="775.5" y="-208.5" font-family="Helvetica,sans-Serif" font-size="10.00">/home/bertw/proj/mcu</text>
<text text-anchor="start" x="775.5" y="-197.5" font-family="Helvetica,sans-Serif" font-size="10.00">/components&#45;mcu/config</text>
<text text-anchor="start" x="775.5" y="-186.5" font-family="Helvetica,sans-Serif" font-size="10.00">_kvs/include/config_kvs</text>
<text text-anchor="middle" x="836" y="-175.5" font-family="Helvetica,sans-Serif" font-size="10.00">/settings.hh</text>
</a>
</g>
</g>
<!-- Node2 -->
<g id="node2" class="node">
<title>Node2</title>
<g id="a_node2"><a xlink:href="options_8hh.html" target="_top" xlink:title="defines strings used in user interface">
<polygon fill="none" stroke="black" points="166.5,-112.5 166.5,-131.5 289.5,-131.5 289.5,-112.5 166.5,-112.5"/>
<text text-anchor="middle" x="228" y="-119.5" font-family="Helvetica,sans-Serif" font-size="10.00">app_config/options.hh</text>
</a>
</g>
</g>
<!-- Node1&#45;&gt;Node2 -->
<g id="edge1" class="edge">
<title>Node1&#45;&gt;Node2</title>
<path fill="none" stroke="midnightblue" d="M767.44,-185.55C651.56,-172.11 418.09,-145.04 299.96,-131.34"/>
<polygon fill="midnightblue" stroke="midnightblue" points="300.26,-127.86 289.93,-130.18 299.46,-134.81 300.26,-127.86"/>
</g>
<!-- Node5 -->
<g id="node5" class="node">
<title>Node5</title>
<g id="a_node5"><a xlink:href="so__target__desc_8hh.html" target="_top" xlink:title="Provide an output class hierarchy which knows about the required format (text or JSON) and write func...">
<polygon fill="none" stroke="black" points="499,-112.5 499,-131.5 629,-131.5 629,-112.5 499,-112.5"/>
<text text-anchor="middle" x="564" y="-119.5" font-family="Helvetica,sans-Serif" font-size="10.00">uout/so_target_desc.hh</text>
</a>
</g>
</g>
<!-- Node1&#45;&gt;Node5 -->
<g id="edge4" class="edge">
<title>Node1&#45;&gt;Node5</title>
<path fill="none" stroke="midnightblue" d="M767.36,-175.71C716.95,-162.64 650.02,-145.3 606.97,-134.14"/>
<polygon fill="midnightblue" stroke="midnightblue" points="607.66,-130.7 597.1,-131.58 605.9,-137.48 607.66,-130.7"/>
</g>
<!-- Node14 -->
<g id="node14" class="node">
<title>Node14</title>
<g id="a_node14"><a xlink:title=" ">
<polygon fill="none" stroke="#bfbfbf" points="808,-56.5 808,-75.5 864,-75.5 864,-56.5 808,-56.5"/>
<text text-anchor="middle" x="836" y="-63.5" font-family="Helvetica,sans-Serif" font-size="10.00">assert.h</text>
</a>
</g>
</g>
<!-- Node1&#45;&gt;Node14 -->
<g id="edge26" class="edge">
<title>Node1&#45;&gt;Node14</title>
<path fill="none" stroke="midnightblue" d="M836,-168.2C836,-143.88 836,-107.67 836,-85.8"/>
<polygon fill="midnightblue" stroke="midnightblue" points="839.5,-85.55 836,-75.55 832.5,-85.55 839.5,-85.55"/>
</g>
<!-- Node17 -->
<g id="node17" class="node">
<title>Node17</title>
<g id="a_node17"><a xlink:href="int__macros_8h.html" target="_top" xlink:title="Basic helper macros for integers.">
<polygon fill="none" stroke="black" points="964,-112.5 964,-131.5 1096,-131.5 1096,-112.5 964,-112.5"/>
<text text-anchor="middle" x="1030" y="-119.5" font-family="Helvetica,sans-Serif" font-size="10.00">utils_misc/int_macros.h</text>
</a>
</g>
</g>
<!-- Node1&#45;&gt;Node17 -->
<g id="edge20" class="edge">
<title>Node1&#45;&gt;Node17</title>
<path fill="none" stroke="midnightblue" d="M904.67,-168.55C936.04,-157.15 971.74,-144.17 997,-134.99"/>
<polygon fill="midnightblue" stroke="midnightblue" points="998.26,-138.26 1006.47,-131.55 995.87,-131.68 998.26,-138.26"/>
</g>
<!-- Node18 -->
<g id="node18" class="node">
<title>Node18</title>
<g id="a_node18"><a xlink:href="config_8h.html" target="_top" xlink:title=" ">
<polygon fill="none" stroke="black" points="890.5,-112.5 890.5,-131.5 945.5,-131.5 945.5,-112.5 890.5,-112.5"/>
<text text-anchor="middle" x="918" y="-119.5" font-family="Helvetica,sans-Serif" font-size="10.00">config.h</text>
</a>
</g>
</g>
<!-- Node1&#45;&gt;Node18 -->
<g id="edge21" class="edge">
<title>Node1&#45;&gt;Node18</title>
<path fill="none" stroke="midnightblue" d="M865.14,-168.45C876.79,-158.43 889.84,-147.21 900.06,-138.42"/>
<polygon fill="midnightblue" stroke="midnightblue" points="902.59,-140.87 907.89,-131.7 898.02,-135.56 902.59,-140.87"/>
</g>
<!-- Node3 -->
<g id="node3" class="node">
<title>Node3</title>
<g id="a_node3"><a xlink:title=" ">
<polygon fill="none" stroke="#bfbfbf" points="574.5,-0.5 574.5,-19.5 627.5,-19.5 627.5,-0.5 574.5,-0.5"/>
<text text-anchor="middle" x="601" y="-7.5" font-family="Helvetica,sans-Serif" font-size="10.00">stdint.h</text>
</a>
</g>
</g>
<!-- Node2&#45;&gt;Node3 -->
<g id="edge2" class="edge">
<title>Node2&#45;&gt;Node3</title>
<path fill="none" stroke="midnightblue" d="M227.75,-112.26C227.87,-98.08 230.37,-70.19 247,-56 294.07,-15.83 483.27,-10.95 564.09,-10.75"/>
<polygon fill="midnightblue" stroke="midnightblue" points="564.3,-14.25 574.3,-10.74 564.3,-7.25 564.3,-14.25"/>
</g>
<!-- Node4 -->
<g id="node4" class="node">
<title>Node4</title>
<g id="a_node4"><a xlink:title=" ">
<polygon fill="none" stroke="#bfbfbf" points="0,-56.5 0,-75.5 56,-75.5 56,-56.5 0,-56.5"/>
<text text-anchor="middle" x="28" y="-63.5" font-family="Helvetica,sans-Serif" font-size="10.00">stddef.h</text>
</a>
</g>
</g>
<!-- Node2&#45;&gt;Node4 -->
<g id="edge3" class="edge">
<title>Node2&#45;&gt;Node4</title>
<path fill="none" stroke="midnightblue" d="M196.31,-112.44C161.07,-102.93 104.16,-87.56 66.41,-77.37"/>
<polygon fill="midnightblue" stroke="midnightblue" points="66.88,-73.87 56.31,-74.64 65.05,-80.63 66.88,-73.87"/>
</g>
<!-- Node5&#45;&gt;Node3 -->
<g id="edge13" class="edge">
<title>Node5&#45;&gt;Node3</title>
<path fill="none" stroke="midnightblue" d="M566.9,-112.37C572.9,-94.54 586.77,-53.3 594.85,-29.27"/>
<polygon fill="midnightblue" stroke="midnightblue" points="598.24,-30.19 598.11,-19.59 591.6,-27.95 598.24,-30.19"/>
</g>
<!-- Node6 -->
<g id="node6" class="node">
<title>Node6</title>
<g id="a_node6"><a xlink:href="so__out_8h.html" target="_top" xlink:title="write formatted output to UoutWriter">
<polygon fill="none" stroke="black" points="732,-56.5 732,-75.5 790,-75.5 790,-56.5 732,-56.5"/>
<text text-anchor="middle" x="761" y="-63.5" font-family="Helvetica,sans-Serif" font-size="10.00">so_out.h</text>
</a>
</g>
</g>
<!-- Node5&#45;&gt;Node6 -->
<g id="edge5" class="edge">
<title>Node5&#45;&gt;Node6</title>
<path fill="none" stroke="midnightblue" d="M595.22,-112.44C629.53,-103.04 684.71,-87.91 721.88,-77.72"/>
<polygon fill="midnightblue" stroke="midnightblue" points="723.14,-81.01 731.86,-74.99 721.29,-74.26 723.14,-81.01"/>
</g>
<!-- Node7 -->
<g id="node7" class="node">
<title>Node7</title>
<g id="a_node7"><a xlink:href="so__target__bits_8h.html" target="_top" xlink:title="flags to select output formats and targets">
<polygon fill="none" stroke="black" points="684.5,-0.5 684.5,-19.5 779.5,-19.5 779.5,-0.5 684.5,-0.5"/>
<text text-anchor="middle" x="732" y="-7.5" font-family="Helvetica,sans-Serif" font-size="10.00">so_target_bits.h</text>
</a>
</g>
</g>
<!-- Node5&#45;&gt;Node7 -->
<g id="edge9" class="edge">
<title>Node5&#45;&gt;Node7</title>
<path fill="none" stroke="midnightblue" d="M603.96,-112.47C629.07,-105.66 661.1,-94.19 685,-76 701.57,-63.39 714.81,-43.34 722.97,-28.84"/>
<polygon fill="midnightblue" stroke="midnightblue" points="726.15,-30.32 727.78,-19.85 719.97,-27.02 726.15,-30.32"/>
</g>
<!-- Node8 -->
<g id="node8" class="node">
<title>Node8</title>
<g id="a_node8"><a xlink:href="cli__out_8h.html" target="_top" xlink:title="Textual output for console CLI.">
<polygon fill="none" stroke="black" points="618,-56.5 618,-75.5 676,-75.5 676,-56.5 618,-56.5"/>
<text text-anchor="middle" x="647" y="-63.5" font-family="Helvetica,sans-Serif" font-size="10.00">cli_out.h</text>
</a>
</g>
</g>
<!-- Node5&#45;&gt;Node8 -->
<g id="edge7" class="edge">
<title>Node5&#45;&gt;Node8</title>
<path fill="none" stroke="midnightblue" d="M577.34,-112.32C590.16,-103.98 609.78,-91.21 624.94,-81.35"/>
<polygon fill="midnightblue" stroke="midnightblue" points="627.22,-84.04 633.7,-75.65 623.41,-78.17 627.22,-84.04"/>
</g>
<!-- Node9 -->
<g id="node9" class="node">
<title>Node9</title>
<g id="a_node9"><a xlink:href="status__json_8hh.html" target="_top" xlink:title="Create JSON output from key/val pairs.">
<polygon fill="none" stroke="black" points="112.5,-56.5 112.5,-75.5 199.5,-75.5 199.5,-56.5 112.5,-56.5"/>
<text text-anchor="middle" x="156" y="-63.5" font-family="Helvetica,sans-Serif" font-size="10.00">status_json.hh</text>
</a>
</g>
</g>
<!-- Node5&#45;&gt;Node9 -->
<g id="edge10" class="edge">
<title>Node5&#45;&gt;Node9</title>
<path fill="none" stroke="midnightblue" d="M499.35,-112.44C419.3,-101.85 284.42,-84 209.77,-74.12"/>
<polygon fill="midnightblue" stroke="midnightblue" points="210.02,-70.62 199.65,-72.78 209.1,-77.56 210.02,-70.62"/>
</g>
<!-- Node11 -->
<g id="node11" class="node">
<title>Node11</title>
<g id="a_node11"><a xlink:title=" ">
<polygon fill="none" stroke="#bfbfbf" points="51.5,-0.5 51.5,-19.5 116.5,-19.5 116.5,-0.5 51.5,-0.5"/>
<text text-anchor="middle" x="84" y="-7.5" font-family="Helvetica,sans-Serif" font-size="10.00">functional</text>
</a>
</g>
</g>
<!-- Node5&#45;&gt;Node11 -->
<g id="edge18" class="edge">
<title>Node5&#45;&gt;Node11</title>
<path fill="none" stroke="midnightblue" d="M498.95,-118.64C379.09,-113.73 132.84,-100.72 103,-76 89.58,-64.88 85.33,-44.85 84.13,-29.95"/>
<polygon fill="midnightblue" stroke="midnightblue" points="87.62,-29.64 83.71,-19.79 80.63,-29.93 87.62,-29.64"/>
</g>
<!-- Node12 -->
<g id="node12" class="node">
<title>Node12</title>
<g id="a_node12"><a xlink:title=" ">
<polygon fill="none" stroke="#bfbfbf" points="256,-56.5 256,-75.5 312,-75.5 312,-56.5 256,-56.5"/>
<text text-anchor="middle" x="284" y="-63.5" font-family="Helvetica,sans-Serif" font-size="10.00">unistd.h</text>
</a>
</g>
</g>
<!-- Node5&#45;&gt;Node12 -->
<g id="edge14" class="edge">
<title>Node5&#45;&gt;Node12</title>
<path fill="none" stroke="midnightblue" d="M513.11,-112.42C466.04,-104.3 393.92,-91.37 322.34,-76.2"/>
<polygon fill="midnightblue" stroke="midnightblue" points="322.76,-72.71 312.24,-74.04 321.29,-79.55 322.76,-72.71"/>
</g>
<!-- Node13 -->
<g id="node13" class="node">
<title>Node13</title>
<g id="a_node13"><a xlink:title=" ">
<polygon fill="none" stroke="#bfbfbf" points="330.5,-56.5 330.5,-75.5 383.5,-75.5 383.5,-56.5 330.5,-56.5"/>
<text text-anchor="middle" x="357" y="-63.5" font-family="Helvetica,sans-Serif" font-size="10.00">string.h</text>
</a>
</g>
</g>
<!-- Node5&#45;&gt;Node13 -->
<g id="edge15" class="edge">
<title>Node5&#45;&gt;Node13</title>
<path fill="none" stroke="midnightblue" d="M531.2,-112.44C493.74,-102.67 432.6,-86.72 393.61,-76.55"/>
<polygon fill="midnightblue" stroke="midnightblue" points="394.28,-73.11 383.72,-73.97 392.51,-79.88 394.28,-73.11"/>
</g>
<!-- Node5&#45;&gt;Node14 -->
<g id="edge16" class="edge">
<title>Node5&#45;&gt;Node14</title>
<path fill="none" stroke="midnightblue" d="M612.3,-112.47C657.77,-104.28 728,-91.22 797.89,-76.16"/>
<polygon fill="midnightblue" stroke="midnightblue" points="798.72,-79.56 807.75,-74.02 797.24,-72.72 798.72,-79.56"/>
</g>
<!-- Node15 -->
<g id="node15" class="node">
<title>Node15</title>
<g id="a_node15"><a xlink:href="itoa_8h_source.html" target="_top" xlink:title=" ">
<polygon fill="none" stroke="black" points="401.5,-56.5 401.5,-75.5 498.5,-75.5 498.5,-56.5 401.5,-56.5"/>
<text text-anchor="middle" x="450" y="-63.5" font-family="Helvetica,sans-Serif" font-size="10.00">utils_misc/itoa.h</text>
</a>
</g>
</g>
<!-- Node5&#45;&gt;Node15 -->
<g id="edge17" class="edge">
<title>Node5&#45;&gt;Node15</title>
<path fill="none" stroke="midnightblue" d="M545.94,-112.44C527.43,-103.68 498.42,-89.94 477.14,-79.86"/>
<polygon fill="midnightblue" stroke="midnightblue" points="478.51,-76.63 467.98,-75.52 475.52,-82.96 478.51,-76.63"/>
</g>
<!-- Node16 -->
<g id="node16" class="node">
<title>Node16</title>
<g id="a_node16"><a xlink:title=" ">
<polygon fill="none" stroke="#bfbfbf" points="516.5,-56.5 516.5,-75.5 561.5,-75.5 561.5,-56.5 516.5,-56.5"/>
<text text-anchor="middle" x="539" y="-63.5" font-family="Helvetica,sans-Serif" font-size="10.00">utility</text>
</a>
</g>
</g>
<!-- Node5&#45;&gt;Node16 -->
<g id="edge19" class="edge">
<title>Node5&#45;&gt;Node16</title>
<path fill="none" stroke="midnightblue" d="M559.87,-112.08C556.49,-104.77 551.58,-94.18 547.38,-85.1"/>
<polygon fill="midnightblue" stroke="midnightblue" points="550.43,-83.36 543.05,-75.75 544.08,-86.3 550.43,-83.36"/>
</g>
<!-- Node6&#45;&gt;Node7 -->
<g id="edge6" class="edge">
<title>Node6&#45;&gt;Node7</title>
<path fill="none" stroke="midnightblue" d="M756.21,-56.08C752.24,-48.69 746.47,-37.95 741.57,-28.81"/>
<polygon fill="midnightblue" stroke="midnightblue" points="744.51,-26.91 736.7,-19.75 738.35,-30.22 744.51,-26.91"/>
</g>
<!-- Node8&#45;&gt;Node3 -->
<g id="edge8" class="edge">
<title>Node8&#45;&gt;Node3</title>
<path fill="none" stroke="midnightblue" d="M639.4,-56.08C632.77,-48.3 622.98,-36.8 614.94,-27.37"/>
<polygon fill="midnightblue" stroke="midnightblue" points="617.6,-25.09 608.45,-19.75 612.27,-29.63 617.6,-25.09"/>
</g>
<!-- Node10 -->
<g id="node10" class="node">
<title>Node10</title>
<g id="a_node10"><a xlink:title=" ">
<polygon fill="none" stroke="#bfbfbf" points="134.5,-0.5 134.5,-19.5 187.5,-19.5 187.5,-0.5 134.5,-0.5"/>
<text text-anchor="middle" x="161" y="-7.5" font-family="Helvetica,sans-Serif" font-size="10.00">stdlib.h</text>
</a>
</g>
</g>
<!-- Node9&#45;&gt;Node10 -->
<g id="edge11" class="edge">
<title>Node9&#45;&gt;Node10</title>
<path fill="none" stroke="midnightblue" d="M156.83,-56.08C157.48,-49.01 158.42,-38.86 159.24,-29.99"/>
<polygon fill="midnightblue" stroke="midnightblue" points="162.75,-30.03 160.19,-19.75 155.78,-29.39 162.75,-30.03"/>
</g>
<!-- Node9&#45;&gt;Node11 -->
<g id="edge12" class="edge">
<title>Node9&#45;&gt;Node11</title>
<path fill="none" stroke="midnightblue" d="M144.43,-56.32C133.58,-48.18 117.12,-35.84 104.12,-26.09"/>
<polygon fill="midnightblue" stroke="midnightblue" points="105.88,-23.03 95.78,-19.83 101.68,-28.63 105.88,-23.03"/>
</g>
<!-- Node19 -->
<g id="node19" class="node">
<title>Node19</title>
<g id="a_node19"><a xlink:href="int__types_8h_source.html" target="_top" xlink:title=" ">
<polygon fill="none" stroke="black" points="882.5,-56.5 882.5,-75.5 1005.5,-75.5 1005.5,-56.5 882.5,-56.5"/>
<text text-anchor="middle" x="944" y="-63.5" font-family="Helvetica,sans-Serif" font-size="10.00">utils_misc/int_types.h</text>
</a>
</g>
</g>
<!-- Node18&#45;&gt;Node19 -->
<g id="edge22" class="edge">
<title>Node18&#45;&gt;Node19</title>
<path fill="none" stroke="midnightblue" d="M922.29,-112.08C925.85,-104.69 931.02,-93.95 935.42,-84.81"/>
<polygon fill="midnightblue" stroke="midnightblue" points="938.6,-86.28 939.79,-75.75 932.29,-83.24 938.6,-86.28"/>
</g>
<!-- Node20 -->
<g id="node20" class="node">
<title>Node20</title>
<g id="a_node20"><a xlink:title=" ">
<polygon fill="none" stroke="#bfbfbf" points="958,-0.5 958,-19.5 1020,-19.5 1020,-0.5 958,-0.5"/>
<text text-anchor="middle" x="989" y="-7.5" font-family="Helvetica,sans-Serif" font-size="10.00">stdbool.h</text>
</a>
</g>
</g>
<!-- Node18&#45;&gt;Node20 -->
<g id="edge25" class="edge">
<title>Node18&#45;&gt;Node20</title>
<path fill="none" stroke="midnightblue" d="M944.36,-112.38C970.21,-103.33 1006.91,-88.67 1015,-76 1024.66,-60.87 1014.52,-41.57 1004.22,-27.94"/>
<polygon fill="midnightblue" stroke="midnightblue" points="1006.68,-25.42 997.63,-19.91 1001.26,-29.86 1006.68,-25.42"/>
</g>
<!-- Node19&#45;&gt;Node3 -->
<g id="edge23" class="edge">
<title>Node19&#45;&gt;Node3</title>
<path fill="none" stroke="midnightblue" d="M889.65,-56.44C819.26,-45.36 698.44,-26.34 637.87,-16.81"/>
<polygon fill="midnightblue" stroke="midnightblue" points="638.06,-13.29 627.64,-15.19 636.98,-20.21 638.06,-13.29"/>
</g>
<!-- Node19&#45;&gt;Node20 -->
<g id="edge24" class="edge">
<title>Node19&#45;&gt;Node20</title>
<path fill="none" stroke="midnightblue" d="M951.43,-56.08C957.85,-48.38 967.31,-37.03 975.12,-27.65"/>
<polygon fill="midnightblue" stroke="midnightblue" points="977.99,-29.67 981.71,-19.75 972.62,-25.19 977.99,-29.67"/>
</g>
</g>
</svg>
