<?xml version="1.0" encoding="UTF-8" standalone="no"?>
<!DOCTYPE svg PUBLIC "-//W3C//DTD SVG 1.1//EN"
 "http://www.w3.org/Graphics/SVG/1.1/DTD/svg11.dtd">
<!-- Generated by graphviz version 2.43.0 (0)
 -->
<!-- Title: /home/bertw/proj/mcu/components&#45;mcu/uout/include/uout/status_json.hh Pages: 1 -->
<svg width="161pt" height="106pt"
 viewBox="0.00 0.00 161.00 106.00" xmlns="http://www.w3.org/2000/svg" xmlns:xlink="http://www.w3.org/1999/xlink">
<g id="graph0" class="graph" transform="scale(1 1) rotate(0) translate(4 102)">
<title>/home/bertw/proj/mcu/components&#45;mcu/uout/include/uout/status_json.hh</title>
<!-- Node1 -->
<g id="node1" class="node">
<title>Node1</title>
<g id="a_node1"><a xlink:title="Create JSON output from key/val pairs.">
<polygon fill="#bfbfbf" stroke="black" points="0,-56.5 0,-97.5 153,-97.5 153,-56.5 0,-56.5"/>
<text text-anchor="start" x="8" y="-85.5" font-family="Helvetica,sans-Serif" font-size="10.00">/home/bertw/proj/mcu</text>
<text text-anchor="start" x="8" y="-74.5" font-family="Helvetica,sans-Serif" font-size="10.00">/components&#45;mcu/uout</text>
<text text-anchor="middle" x="76.5" y="-63.5" font-family="Helvetica,sans-Serif" font-size="10.00">/include/uout/status_json.hh</text>
</a>
</g>
</g>
<!-- Node2 -->
<g id="node2" class="node">
<title>Node2</title>
<g id="a_node2"><a xlink:title=" ">
<polygon fill="none" stroke="#bfbfbf" points="12,-0.5 12,-19.5 65,-19.5 65,-0.5 12,-0.5"/>
<text text-anchor="middle" x="38.5" y="-7.5" font-family="Helvetica,sans-Serif" font-size="10.00">stdlib.h</text>
</a>
</g>
</g>
<!-- Node1&#45;&gt;Node2 -->
<g id="edge1" class="edge">
<title>Node1&#45;&gt;Node2</title>
<path fill="none" stroke="midnightblue" d="M65.1,-56.5C59.89,-47.59 53.77,-37.11 48.71,-28.46"/>
<polygon fill="midnightblue" stroke="midnightblue" points="51.63,-26.52 43.56,-19.65 45.58,-30.05 51.63,-26.52"/>
</g>
<!-- Node3 -->
<g id="node3" class="node">
<title>Node3</title>
<g id="a_node3"><a xlink:title=" ">
<polygon fill="none" stroke="#bfbfbf" points="83,-0.5 83,-19.5 148,-19.5 148,-0.5 83,-0.5"/>
<text text-anchor="middle" x="115.5" y="-7.5" font-family="Helvetica,sans-Serif" font-size="10.00">functional</text>
</a>
</g>
</g>
<!-- Node1&#45;&gt;Node3 -->
<g id="edge2" class="edge">
<title>Node1&#45;&gt;Node3</title>
<path fill="none" stroke="midnightblue" d="M88.2,-56.5C93.55,-47.59 99.83,-37.11 105.02,-28.46"/>
<polygon fill="midnightblue" stroke="midnightblue" points="108.16,-30.03 110.31,-19.65 102.16,-26.43 108.16,-30.03"/>
</g>
</g>
</svg>
