<?xml version="1.0" encoding="UTF-8" standalone="no"?>
<!DOCTYPE svg PUBLIC "-//W3C//DTD SVG 1.1//EN"
 "http://www.w3.org/Graphics/SVG/1.1/DTD/svg11.dtd">
<!-- Generated by graphviz version 2.43.0 (0)
 -->
<!-- Title: SettingsData Pages: 1 -->
<svg width="588pt" height="639pt"
 viewBox="0.00 0.00 587.50 639.00" xmlns="http://www.w3.org/2000/svg" xmlns:xlink="http://www.w3.org/1999/xlink">
<g id="graph0" class="graph" transform="scale(1 1) rotate(0) translate(4 635)">
<title>SettingsData</title>
<!-- Node1 -->
<g id="node1" class="node">
<title>Node1</title>
<g id="a_node1"><a xlink:title=" ">
<polygon fill="#bfbfbf" stroke="black" points="249,-0.5 249,-101.5 329,-101.5 329,-0.5 249,-0.5"/>
<text text-anchor="middle" x="289" y="-89.5" font-family="Helvetica,sans-Serif" font-size="10.00">SettingsData</text>
<polyline fill="none" stroke="black" points="249,-82.5 329,-82.5 "/>
<text text-anchor="start" x="257" y="-70.5" font-family="Helvetica,sans-Serif" font-size="10.00">+ kvs_key</text>
<text text-anchor="start" x="257" y="-59.5" font-family="Helvetica,sans-Serif" font-size="10.00">+ opt_key</text>
<text text-anchor="start" x="257" y="-48.5" font-family="Helvetica,sans-Serif" font-size="10.00">+ kvs_type</text>
<text text-anchor="start" x="257" y="-37.5" font-family="Helvetica,sans-Serif" font-size="10.00">+ store_fun</text>
<text text-anchor="start" x="257" y="-26.5" font-family="Helvetica,sans-Serif" font-size="10.00">+ id_bit</text>
<polyline fill="none" stroke="black" points="249,-19.5 329,-19.5 "/>
<text text-anchor="middle" x="289" y="-7.5" font-family="Helvetica,sans-Serif" font-size="10.00"> </text>
</a>
</g>
</g>
<!-- Node2 -->
<g id="node2" class="node">
<title>Node2</title>
<g id="a_node2"><a xlink:href="classUoutWriter.html" target="_top" xlink:title="Abstract class which contains various data builders.">
<polygon fill="none" stroke="black" points="241.5,-149.5 241.5,-283.5 336.5,-283.5 336.5,-149.5 241.5,-149.5"/>
<text text-anchor="middle" x="289" y="-271.5" font-family="Helvetica,sans-Serif" font-size="10.00">UoutWriter</text>
<polyline fill="none" stroke="black" points="241.5,-264.5 336.5,-264.5 "/>
<text text-anchor="start" x="249.5" y="-252.5" font-family="Helvetica,sans-Serif" font-size="10.00"># myTgt</text>
<polyline fill="none" stroke="black" points="241.5,-245.5 336.5,-245.5 "/>
<text text-anchor="start" x="249.5" y="-233.5" font-family="Helvetica,sans-Serif" font-size="10.00">+ UoutWriter()</text>
<text text-anchor="start" x="249.5" y="-222.5" font-family="Helvetica,sans-Serif" font-size="10.00">+ UoutWriter()</text>
<text text-anchor="start" x="249.5" y="-211.5" font-family="Helvetica,sans-Serif" font-size="10.00">+ operator=()</text>
<text text-anchor="start" x="249.5" y="-200.5" font-family="Helvetica,sans-Serif" font-size="10.00">+ tgt()</text>
<text text-anchor="start" x="249.5" y="-189.5" font-family="Helvetica,sans-Serif" font-size="10.00">+ add_tgt_flag()</text>
<text text-anchor="start" x="249.5" y="-178.5" font-family="Helvetica,sans-Serif" font-size="10.00">+ sj()</text>
<text text-anchor="start" x="249.5" y="-167.5" font-family="Helvetica,sans-Serif" font-size="10.00">+ st()</text>
<text text-anchor="start" x="249.5" y="-156.5" font-family="Helvetica,sans-Serif" font-size="10.00">+ so()</text>
</a>
</g>
</g>
<!-- Node2&#45;&gt;Node1 -->
<g id="edge1" class="edge">
<title>Node2&#45;&gt;Node1</title>
<path fill="none" stroke="#404040" d="M289,-149.47C289,-137.75 289,-125.59 289,-113.99"/>
<polygon fill="none" stroke="#404040" points="289,-113.68 285,-107.68 289,-101.68 293,-107.68 289,-113.68"/>
<text text-anchor="middle" x="321" y="-123" font-family="Helvetica,sans-Serif" font-size="10.00"> +so_cfg_fun</text>
</g>
<!-- Node3 -->
<g id="node3" class="node">
<title>Node3</title>
<g id="a_node3"><a xlink:href="classUoutRawWriter.html" target="_top" xlink:title="Abstract class which implements public write methods and operators which then call an abstract privat...">
<polygon fill="none" stroke="black" points="0,-436 0,-526 118,-526 118,-436 0,-436"/>
<text text-anchor="middle" x="59" y="-514" font-family="Helvetica,sans-Serif" font-size="10.00">UoutRawWriter</text>
<polyline fill="none" stroke="black" points="0,-507 118,-507 "/>
<text text-anchor="middle" x="59" y="-495" font-family="Helvetica,sans-Serif" font-size="10.00"> </text>
<polyline fill="none" stroke="black" points="0,-488 118,-488 "/>
<text text-anchor="start" x="8" y="-476" font-family="Helvetica,sans-Serif" font-size="10.00">+ write()</text>
<text text-anchor="start" x="8" y="-465" font-family="Helvetica,sans-Serif" font-size="10.00">+ writeln()</text>
<text text-anchor="start" x="8" y="-454" font-family="Helvetica,sans-Serif" font-size="10.00">+ write()</text>
<text text-anchor="start" x="8" y="-443" font-family="Helvetica,sans-Serif" font-size="10.00"># ~UoutRawWriter()</text>
</a>
</g>
</g>
<!-- Node3&#45;&gt;Node2 -->
<g id="edge2" class="edge">
<title>Node3&#45;&gt;Node2</title>
<path fill="none" stroke="midnightblue" d="M75.63,-426.26C86.81,-396.04 103.78,-358.91 127,-331 158.63,-292.98 205.93,-261.82 241.27,-241.84"/>
<polygon fill="none" stroke="midnightblue" points="72.28,-425.21 72.2,-435.81 78.87,-427.58 72.28,-425.21"/>
</g>
<!-- Node4 -->
<g id="node4" class="node">
<title>Node4</title>
<g id="a_node4"><a xlink:href="classUoutBuilderPlaintext.html" target="_top" xlink:title="Print key value pairs as text lines with limited length.">
<polygon fill="none" stroke="black" points="136,-436 136,-526 276,-526 276,-436 136,-436"/>
<text text-anchor="middle" x="206" y="-514" font-family="Helvetica,sans-Serif" font-size="10.00">UoutBuilderPlaintext</text>
<polyline fill="none" stroke="black" points="136,-507 276,-507 "/>
<text text-anchor="middle" x="206" y="-495" font-family="Helvetica,sans-Serif" font-size="10.00"> </text>
<polyline fill="none" stroke="black" points="136,-488 276,-488 "/>
<text text-anchor="start" x="144" y="-476" font-family="Helvetica,sans-Serif" font-size="10.00">+ UoutBuilderPlaintext()</text>
<text text-anchor="start" x="144" y="-465" font-family="Helvetica,sans-Serif" font-size="10.00">+ cli_out_set_x()</text>
<text text-anchor="start" x="144" y="-454" font-family="Helvetica,sans-Serif" font-size="10.00">+ cli_out_x_reply_entry()</text>
<text text-anchor="start" x="144" y="-443" font-family="Helvetica,sans-Serif" font-size="10.00">+ cli_out_close()</text>
</a>
</g>
</g>
<!-- Node4&#45;&gt;Node2 -->
<g id="edge3" class="edge">
<title>Node4&#45;&gt;Node2</title>
<path fill="none" stroke="#404040" d="M219.99,-435.77C232.1,-397.46 249.9,-341.15 264.39,-295.32"/>
<polygon fill="none" stroke="#404040" points="264.48,-295.05 262.47,-288.13 268.1,-283.61 270.1,-290.54 264.48,-295.05"/>
<text text-anchor="middle" x="286.5" y="-305" font-family="Helvetica,sans-Serif" font-size="10.00"> #myStxt</text>
</g>
<!-- Node5 -->
<g id="node5" class="node">
<title>Node5</title>
<g id="a_node5"><a xlink:href="classUoutBuilderJson.html" target="_top" xlink:title="Build JSON output gradually by calling member functions (with key/value parameters).">
<polygon fill="none" stroke="black" points="294,-331.5 294,-630.5 450,-630.5 450,-331.5 294,-331.5"/>
<text text-anchor="middle" x="372" y="-618.5" font-family="Helvetica,sans-Serif" font-size="10.00">UoutBuilderJson</text>
<polyline fill="none" stroke="black" points="294,-611.5 450,-611.5 "/>
<text text-anchor="middle" x="372" y="-599.5" font-family="Helvetica,sans-Serif" font-size="10.00"> </text>
<polyline fill="none" stroke="black" points="294,-592.5 450,-592.5 "/>
<text text-anchor="start" x="302" y="-580.5" font-family="Helvetica,sans-Serif" font-size="10.00">+ UoutBuilderJson()</text>
<text text-anchor="start" x="302" y="-569.5" font-family="Helvetica,sans-Serif" font-size="10.00">+ UoutBuilderJson()</text>
<text text-anchor="start" x="302" y="-558.5" font-family="Helvetica,sans-Serif" font-size="10.00">+ ~UoutBuilderJson()</text>
<text text-anchor="start" x="302" y="-547.5" font-family="Helvetica,sans-Serif" font-size="10.00">+ open_root_object()</text>
<text text-anchor="start" x="302" y="-536.5" font-family="Helvetica,sans-Serif" font-size="10.00">+ close_root_object()</text>
<text text-anchor="start" x="302" y="-525.5" font-family="Helvetica,sans-Serif" font-size="10.00">+ add_object()</text>
<text text-anchor="start" x="302" y="-514.5" font-family="Helvetica,sans-Serif" font-size="10.00">+ add_object()</text>
<text text-anchor="start" x="302" y="-503.5" font-family="Helvetica,sans-Serif" font-size="10.00">+ close_object()</text>
<text text-anchor="start" x="302" y="-492.5" font-family="Helvetica,sans-Serif" font-size="10.00">+ add_key_value_pair_s()</text>
<text text-anchor="start" x="302" y="-481.5" font-family="Helvetica,sans-Serif" font-size="10.00">+ add_key_value_pair_d()</text>
<text text-anchor="start" x="302" y="-470.5" font-family="Helvetica,sans-Serif" font-size="10.00">+ add_key_value_pair_f()</text>
<text text-anchor="start" x="302" y="-459.5" font-family="Helvetica,sans-Serif" font-size="10.00">+ add_array()</text>
<text text-anchor="start" x="302" y="-448.5" font-family="Helvetica,sans-Serif" font-size="10.00">+ close_array()</text>
<text text-anchor="start" x="302" y="-437.5" font-family="Helvetica,sans-Serif" font-size="10.00">+ add_value_d()</text>
<text text-anchor="start" x="302" y="-426.5" font-family="Helvetica,sans-Serif" font-size="10.00">+ add_value_s()</text>
<text text-anchor="start" x="302" y="-415.5" font-family="Helvetica,sans-Serif" font-size="10.00">+ read_json_from_function()</text>
<text text-anchor="start" x="302" y="-404.5" font-family="Helvetica,sans-Serif" font-size="10.00">+ copy_to_buf()</text>
<text text-anchor="start" x="302" y="-393.5" font-family="Helvetica,sans-Serif" font-size="10.00">+ cat_to_buf()</text>
<text text-anchor="start" x="302" y="-382.5" font-family="Helvetica,sans-Serif" font-size="10.00">+ get_json()</text>
<text text-anchor="start" x="302" y="-371.5" font-family="Helvetica,sans-Serif" font-size="10.00">+ writeln_json()</text>
<text text-anchor="start" x="302" y="-360.5" font-family="Helvetica,sans-Serif" font-size="10.00">+ write_json()</text>
<text text-anchor="start" x="302" y="-349.5" font-family="Helvetica,sans-Serif" font-size="10.00">+ write_some_json()</text>
<text text-anchor="start" x="302" y="-338.5" font-family="Helvetica,sans-Serif" font-size="10.00">+ free_buffer()</text>
</a>
</g>
</g>
<!-- Node5&#45;&gt;Node2 -->
<g id="edge4" class="edge">
<title>Node5&#45;&gt;Node2</title>
<path fill="none" stroke="#404040" d="M325.04,-331.49C321.12,-319.09 317.27,-306.9 313.62,-295.38"/>
<polygon fill="none" stroke="#404040" points="313.53,-295.06 307.9,-290.55 309.91,-283.62 315.53,-288.14 313.53,-295.06"/>
<text text-anchor="middle" x="337.5" y="-305" font-family="Helvetica,sans-Serif" font-size="10.00"> #mySj</text>
</g>
<!-- Node6 -->
<g id="node6" class="node">
<title>Node6</title>
<g id="a_node6"><a xlink:href="classUoutPrinter.html" target="_top" xlink:title="Format and print output using the help of UoutWriter.">
<polygon fill="none" stroke="black" points="468.5,-381 468.5,-581 579.5,-581 579.5,-381 468.5,-381"/>
<text text-anchor="middle" x="524" y="-569" font-family="Helvetica,sans-Serif" font-size="10.00">UoutPrinter</text>
<polyline fill="none" stroke="black" points="468.5,-562 579.5,-562 "/>
<text text-anchor="middle" x="524" y="-550" font-family="Helvetica,sans-Serif" font-size="10.00"> </text>
<polyline fill="none" stroke="black" points="468.5,-543 579.5,-543 "/>
<text text-anchor="start" x="476.5" y="-531" font-family="Helvetica,sans-Serif" font-size="10.00">+ UoutPrinter()</text>
<text text-anchor="start" x="476.5" y="-520" font-family="Helvetica,sans-Serif" font-size="10.00">+ print()</text>
<text text-anchor="start" x="476.5" y="-509" font-family="Helvetica,sans-Serif" font-size="10.00">+ print()</text>
<text text-anchor="start" x="476.5" y="-498" font-family="Helvetica,sans-Serif" font-size="10.00">+ print()</text>
<text text-anchor="start" x="476.5" y="-487" font-family="Helvetica,sans-Serif" font-size="10.00">+ print()</text>
<text text-anchor="start" x="476.5" y="-476" font-family="Helvetica,sans-Serif" font-size="10.00">+ print()</text>
<text text-anchor="start" x="476.5" y="-465" font-family="Helvetica,sans-Serif" font-size="10.00">+ print()</text>
<text text-anchor="start" x="476.5" y="-454" font-family="Helvetica,sans-Serif" font-size="10.00">+ print()</text>
<text text-anchor="start" x="476.5" y="-443" font-family="Helvetica,sans-Serif" font-size="10.00">+ x_open()</text>
<text text-anchor="start" x="476.5" y="-432" font-family="Helvetica,sans-Serif" font-size="10.00">+ x_close()</text>
<text text-anchor="start" x="476.5" y="-421" font-family="Helvetica,sans-Serif" font-size="10.00">+ root_open()</text>
<text text-anchor="start" x="476.5" y="-410" font-family="Helvetica,sans-Serif" font-size="10.00">+ root_close()</text>
<text text-anchor="start" x="476.5" y="-399" font-family="Helvetica,sans-Serif" font-size="10.00">+ hasOutput_text()</text>
<text text-anchor="start" x="476.5" y="-388" font-family="Helvetica,sans-Serif" font-size="10.00">+ hasOutput_json()</text>
</a>
</g>
</g>
<!-- Node6&#45;&gt;Node2 -->
<g id="edge5" class="edge">
<title>Node6&#45;&gt;Node2</title>
<path fill="none" stroke="#404040" d="M490.25,-380.77C481.67,-363.13 471.32,-345.72 459,-331 428.56,-294.62 383.56,-265.29 347.5,-245.56"/>
<polygon fill="none" stroke="#404040" points="347.21,-245.4 340.03,-246.1 336.63,-239.75 343.8,-239.05 347.21,-245.4"/>
<text text-anchor="middle" x="460" y="-305" font-family="Helvetica,sans-Serif" font-size="10.00"> #mySo</text>
</g>
</g>
</svg>
