<?xml version="1.0" encoding="UTF-8" standalone="no"?>
<!DOCTYPE svg PUBLIC "-//W3C//DTD SVG 1.1//EN"
 "http://www.w3.org/Graphics/SVG/1.1/DTD/svg11.dtd">
<!-- Generated by graphviz version 2.43.0 (0)
 -->
<!-- Title: /home/bertw/proj/mcu/components&#45;mcu/net/include/net/tcp_cli_server_setup.hh Pages: 1 -->
<!--zoomable 330 -->
<svg id="main" version="1.1" xmlns="http://www.w3.org/2000/svg" xmlns:xlink="http://www.w3.org/1999/xlink" xml:space="preserve" onload="init(evt)">
<style type="text/css"><![CDATA[
.edge:hover path { stroke: red; }
.edge:hover polygon { stroke: red; fill: red; }
]]></style>
<script type="text/javascript"><![CDATA[
var edges = document.getElementsByTagName('g');
if (edges && edges.length) {
  for (var i=0;i<edges.length;i++) {
    if (edges[i].id.substr(0,4)=='edge') {
      edges[i].setAttribute('class','edge');
    }
  }
}
]]></script>
        <defs>
                <circle id="rim" cx="0" cy="0" r="7"/>
                <circle id="rim2" cx="0" cy="0" r="3.5"/>
                <g id="zoomPlus">
                        <use xlink:href="#rim" fill="#404040">
                                <set attributeName="fill" to="#808080" begin="zoomplus.mouseover" end="zoomplus.mouseout"/>
                        </use>
                        <path d="M-4,0h8M0,-4v8" fill="none" stroke="white" stroke-width="1.5" pointer-events="none"/>
                </g>
                <g id="zoomMin">
                        <use xlink:href="#rim" fill="#404040">
                                <set attributeName="fill" to="#808080" begin="zoomminus.mouseover" end="zoomminus.mouseout"/>
                        </use>
                        <path d="M-4,0h8" fill="none" stroke="white" stroke-width="1.5" pointer-events="none"/>
                </g>
                <g id="dirArrow">
                        <path fill="none" stroke="white" stroke-width="1.5" d="M0,-3.0v7 M-2.5,-0.5L0,-3.0L2.5,-0.5"/>
                </g>
               <g id="resetDef">
                       <use xlink:href="#rim2" fill="#404040">
                               <set attributeName="fill" to="#808080" begin="reset.mouseover" end="reset.mouseout"/>
                       </use>
               </g>
        </defs>

<script type="text/javascript">
var viewWidth = 812;
var viewHeight = 330;
var sectionId = 'dynsection-0';
</script>
<script xlink:href="svgpan.js"/>
<svg id="graph" class="graph">
<g id="viewport">
<title>/home/bertw/proj/mcu/components&#45;mcu/net/include/net/tcp_cli_server_setup.hh</title>
<!-- Node1 -->
<g id="node1" class="node">
<title>Node1</title>
<g id="a_node1"><a xlink:title="Create TCP server for interactive and non&#45;interactive CLI clients.">
<polygon fill="#bfbfbf" stroke="black" points="314,-280.5 314,-321.5 475,-321.5 475,-280.5 314,-280.5"/>
<text text-anchor="start" x="322" y="-309.5" font-family="Helvetica,sans-Serif" font-size="10.00">/home/bertw/proj/mcu</text>
<text text-anchor="start" x="322" y="-298.5" font-family="Helvetica,sans-Serif" font-size="10.00">/components&#45;mcu/net/include</text>
<text text-anchor="middle" x="394.5" y="-287.5" font-family="Helvetica,sans-Serif" font-size="10.00">/net/tcp_cli_server_setup.hh</text>
</a>
</g>
</g>
<!-- Node2 -->
<g id="node2" class="node">
<title>Node2</title>
<g id="a_node2"><a xlink:href="tcp__cli__server_8h.html" target="_top" xlink:title="TCP server for interactive and non&#45;interactive CLI clients.">
<polygon fill="none" stroke="black" points="288.5,-224.5 288.5,-243.5 380.5,-243.5 380.5,-224.5 288.5,-224.5"/>
<text text-anchor="middle" x="334.5" y="-231.5" font-family="Helvetica,sans-Serif" font-size="10.00">tcp_cli_server.h</text>
</a>
</g>
</g>
<!-- Node1&#45;&gt;Node2 -->
<g id="edge1" class="edge">
<title>Node1&#45;&gt;Node2</title>
<path fill="none" stroke="midnightblue" d="M376.5,-280.5C367.83,-271.11 357.56,-259.98 349.35,-251.08"/>
<polygon fill="midnightblue" stroke="midnightblue" points="351.84,-248.63 342.49,-243.65 346.7,-253.37 351.84,-248.63"/>
</g>
<!-- Node4 -->
<g id="node4" class="node">
<title>Node4</title>
<g id="a_node4"><a xlink:href="uo__callbacks_8h.html" target="_top" xlink:title="pub/sub interface to publish asynchronously to MQTT servers, HTTP&#45;client web&#45;sockets,...">
<polygon fill="none" stroke="black" points="415,-224.5 415,-243.5 528,-243.5 528,-224.5 415,-224.5"/>
<text text-anchor="middle" x="471.5" y="-231.5" font-family="Helvetica,sans-Serif" font-size="10.00">uout/uo_callbacks.h</text>
</a>
</g>
</g>
<!-- Node1&#45;&gt;Node4 -->
<g id="edge3" class="edge">
<title>Node1&#45;&gt;Node4</title>
<path fill="none" stroke="midnightblue" d="M417.6,-280.5C429.07,-270.82 442.71,-259.3 453.41,-250.27"/>
<polygon fill="midnightblue" stroke="midnightblue" points="455.87,-252.78 461.25,-243.65 451.35,-247.43 455.87,-252.78"/>
</g>
<!-- Node3 -->
<g id="node3" class="node">
<title>Node3</title>
<g id="a_node3"><a xlink:title=" ">
<polygon fill="none" stroke="#bfbfbf" points="272.5,-168.5 272.5,-187.5 334.5,-187.5 334.5,-168.5 272.5,-168.5"/>
<text text-anchor="middle" x="303.5" y="-175.5" font-family="Helvetica,sans-Serif" font-size="10.00">stdbool.h</text>
</a>
</g>
</g>
<!-- Node2&#45;&gt;Node3 -->
<g id="edge2" class="edge">
<title>Node2&#45;&gt;Node3</title>
<path fill="none" stroke="midnightblue" d="M329.38,-224.08C325.09,-216.61 318.84,-205.72 313.56,-196.52"/>
<polygon fill="midnightblue" stroke="midnightblue" points="316.54,-194.68 308.52,-187.75 310.47,-198.17 316.54,-194.68"/>
</g>
<!-- Node5 -->
<g id="node5" class="node">
<title>Node5</title>
<g id="a_node5"><a xlink:title=" ">
<polygon fill="none" stroke="#bfbfbf" points="682,-0.5 682,-19.5 735,-19.5 735,-0.5 682,-0.5"/>
<text text-anchor="middle" x="708.5" y="-7.5" font-family="Helvetica,sans-Serif" font-size="10.00">stdint.h</text>
</a>
</g>
</g>
<!-- Node4&#45;&gt;Node5 -->
<g id="edge4" class="edge">
<title>Node4&#45;&gt;Node5</title>
<path fill="none" stroke="midnightblue" d="M512.56,-224.43C568.93,-211.29 671.8,-182.24 746.5,-132 780.26,-109.3 818.81,-90.65 797.5,-56 785.99,-37.29 764.03,-26.07 744.8,-19.51"/>
<polygon fill="midnightblue" stroke="midnightblue" points="745.65,-16.11 735.06,-16.5 743.58,-22.8 745.65,-16.11"/>
</g>
<!-- Node6 -->
<g id="node6" class="node">
<title>Node6</title>
<g id="a_node6"><a xlink:href="uo__types_8h.html" target="_top" xlink:title="API parameter and return types.">
<polygon fill="none" stroke="black" points="440,-168.5 440,-187.5 535,-187.5 535,-168.5 440,-168.5"/>
<text text-anchor="middle" x="487.5" y="-175.5" font-family="Helvetica,sans-Serif" font-size="10.00">uout/uo_types.h</text>
</a>
</g>
</g>
<!-- Node4&#45;&gt;Node6 -->
<g id="edge5" class="edge">
<title>Node4&#45;&gt;Node6</title>
<path fill="none" stroke="midnightblue" d="M474.14,-224.08C476.29,-216.85 479.38,-206.41 482.05,-197.4"/>
<polygon fill="midnightblue" stroke="midnightblue" points="485.42,-198.33 484.91,-187.75 478.71,-196.34 485.42,-198.33"/>
</g>
<!-- Node19 -->
<g id="node19" class="node">
<title>Node19</title>
<g id="a_node19"><a xlink:title=" ">
<polygon fill="none" stroke="#bfbfbf" points="353,-168.5 353,-187.5 422,-187.5 422,-168.5 353,-168.5"/>
<text text-anchor="middle" x="387.5" y="-175.5" font-family="Helvetica,sans-Serif" font-size="10.00">type_traits</text>
</a>
</g>
</g>
<!-- Node4&#45;&gt;Node19 -->
<g id="edge28" class="edge">
<title>Node4&#45;&gt;Node19</title>
<path fill="none" stroke="midnightblue" d="M458,-224.32C444.9,-215.9 424.79,-202.97 409.39,-193.07"/>
<polygon fill="midnightblue" stroke="midnightblue" points="411.27,-190.12 400.96,-187.65 407.48,-196.01 411.27,-190.12"/>
</g>
<!-- Node6&#45;&gt;Node5 -->
<g id="edge25" class="edge">
<title>Node6&#45;&gt;Node5</title>
<path fill="none" stroke="midnightblue" d="M535.2,-176.68C603.26,-173.32 726.11,-155.81 781.5,-76 796.32,-54.64 767.27,-35.57 741.54,-23.7"/>
<polygon fill="midnightblue" stroke="midnightblue" points="742.86,-20.46 732.3,-19.66 740.06,-26.87 742.86,-20.46"/>
</g>
<!-- Node7 -->
<g id="node7" class="node">
<title>Node7</title>
<g id="a_node7"><a xlink:href="so__target__bits_8h.html" target="_top" xlink:title="flags to select output formats and targets">
<polygon fill="none" stroke="black" points="0,-0.5 0,-19.5 95,-19.5 95,-0.5 0,-0.5"/>
<text text-anchor="middle" x="47.5" y="-7.5" font-family="Helvetica,sans-Serif" font-size="10.00">so_target_bits.h</text>
</a>
</g>
</g>
<!-- Node6&#45;&gt;Node7 -->
<g id="edge6" class="edge">
<title>Node6&#45;&gt;Node7</title>
<path fill="none" stroke="midnightblue" d="M439.99,-169.44C367.68,-157.9 236.09,-136.71 214.5,-132 122.23,-111.85 66.81,-151.07 9.5,-76 -2.61,-60.13 13.25,-40.06 28.02,-26.45"/>
<polygon fill="midnightblue" stroke="midnightblue" points="30.65,-28.81 35.93,-19.63 26.07,-23.51 30.65,-28.81"/>
</g>
<!-- Node8 -->
<g id="node8" class="node">
<title>Node8</title>
<g id="a_node8"><a xlink:href="so__target__desc_8hh.html" target="_top" xlink:title="Provide an output class hierarchy which knows about the required format (text or JSON) and write func...">
<polygon fill="none" stroke="black" points="358,-112.5 358,-131.5 463,-131.5 463,-112.5 358,-112.5"/>
<text text-anchor="middle" x="410.5" y="-119.5" font-family="Helvetica,sans-Serif" font-size="10.00">so_target_desc.hh</text>
</a>
</g>
</g>
<!-- Node6&#45;&gt;Node8 -->
<g id="edge7" class="edge">
<title>Node6&#45;&gt;Node8</title>
<path fill="none" stroke="midnightblue" d="M475.13,-168.32C463.34,-160.06 445.37,-147.45 431.36,-137.63"/>
<polygon fill="midnightblue" stroke="midnightblue" points="433.04,-134.53 422.84,-131.65 429.02,-140.26 433.04,-134.53"/>
</g>
<!-- Node9 -->
<g id="node9" class="node">
<title>Node9</title>
<g id="a_node9"><a xlink:href="so__out_8h.html" target="_top" xlink:title="write formatted output to UoutWriter">
<polygon fill="none" stroke="black" points="18.5,-56.5 18.5,-75.5 76.5,-75.5 76.5,-56.5 18.5,-56.5"/>
<text text-anchor="middle" x="47.5" y="-63.5" font-family="Helvetica,sans-Serif" font-size="10.00">so_out.h</text>
</a>
</g>
</g>
<!-- Node6&#45;&gt;Node9 -->
<g id="edge23" class="edge">
<title>Node6&#45;&gt;Node9</title>
<path fill="none" stroke="midnightblue" d="M448.93,-168.49C409.53,-159.7 346.62,-145.42 292.5,-132 219.53,-113.9 134.83,-91.01 86.57,-77.78"/>
<polygon fill="midnightblue" stroke="midnightblue" points="87.41,-74.39 76.84,-75.11 85.55,-81.14 87.41,-74.39"/>
</g>
<!-- Node11 -->
<g id="node11" class="node">
<title>Node11</title>
<g id="a_node11"><a xlink:href="status__json_8hh.html" target="_top" xlink:title="Create JSON output from key/val pairs.">
<polygon fill="none" stroke="black" points="133,-56.5 133,-75.5 220,-75.5 220,-56.5 133,-56.5"/>
<text text-anchor="middle" x="176.5" y="-63.5" font-family="Helvetica,sans-Serif" font-size="10.00">status_json.hh</text>
</a>
</g>
</g>
<!-- Node6&#45;&gt;Node11 -->
<g id="edge24" class="edge">
<title>Node6&#45;&gt;Node11</title>
<path fill="none" stroke="midnightblue" d="M459.68,-168.43C431.52,-159.65 386.8,-145.43 348.5,-132 298.87,-114.6 241.89,-92.68 207.57,-79.26"/>
<polygon fill="midnightblue" stroke="midnightblue" points="208.69,-75.94 198.1,-75.55 206.13,-82.45 208.69,-75.94"/>
</g>
<!-- Node14 -->
<g id="node14" class="node">
<title>Node14</title>
<g id="a_node14"><a xlink:title=" ">
<polygon fill="none" stroke="#bfbfbf" points="644.5,-56.5 644.5,-75.5 700.5,-75.5 700.5,-56.5 644.5,-56.5"/>
<text text-anchor="middle" x="672.5" y="-63.5" font-family="Helvetica,sans-Serif" font-size="10.00">unistd.h</text>
</a>
</g>
</g>
<!-- Node6&#45;&gt;Node14 -->
<g id="edge26" class="edge">
<title>Node6&#45;&gt;Node14</title>
<path fill="none" stroke="midnightblue" d="M502.02,-168.37C533.9,-149.41 610.27,-104 649.05,-80.94"/>
<polygon fill="midnightblue" stroke="midnightblue" points="651.24,-83.71 658.05,-75.59 647.67,-77.69 651.24,-83.71"/>
</g>
<!-- Node15 -->
<g id="node15" class="node">
<title>Node15</title>
<g id="a_node15"><a xlink:title=" ">
<polygon fill="none" stroke="#bfbfbf" points="719,-56.5 719,-75.5 772,-75.5 772,-56.5 719,-56.5"/>
<text text-anchor="middle" x="745.5" y="-63.5" font-family="Helvetica,sans-Serif" font-size="10.00">string.h</text>
</a>
</g>
</g>
<!-- Node6&#45;&gt;Node15 -->
<g id="edge27" class="edge">
<title>Node6&#45;&gt;Node15</title>
<path fill="none" stroke="midnightblue" d="M508.03,-168.42C529.59,-159.41 564.46,-144.78 594.5,-132 636.92,-113.95 685.92,-92.8 716.31,-79.65"/>
<polygon fill="midnightblue" stroke="midnightblue" points="717.71,-82.86 725.49,-75.68 714.93,-76.44 717.71,-82.86"/>
</g>
<!-- Node8&#45;&gt;Node5 -->
<g id="edge16" class="edge">
<title>Node8&#45;&gt;Node5</title>
<path fill="none" stroke="midnightblue" d="M463.06,-112.48C501.02,-105.33 553.02,-93.45 596.5,-76 614.42,-68.81 658.71,-42.01 685.91,-25.15"/>
<polygon fill="midnightblue" stroke="midnightblue" points="688.11,-27.9 694.76,-19.65 684.42,-21.96 688.11,-27.9"/>
</g>
<!-- Node8&#45;&gt;Node7 -->
<g id="edge12" class="edge">
<title>Node8&#45;&gt;Node7</title>
<path fill="none" stroke="midnightblue" d="M357.76,-121.22C298.24,-119.59 199.78,-111.12 123.5,-76 98.75,-64.6 75.78,-42.75 61.72,-27.55"/>
<polygon fill="midnightblue" stroke="midnightblue" points="64.14,-25.01 54.86,-19.89 58.92,-29.68 64.14,-25.01"/>
</g>
<!-- Node8&#45;&gt;Node9 -->
<g id="edge8" class="edge">
<title>Node8&#45;&gt;Node9</title>
<path fill="none" stroke="midnightblue" d="M357.95,-114.7C294.41,-106.83 184.31,-92.39 90.5,-76 89.23,-75.78 87.94,-75.55 86.65,-75.31"/>
<polygon fill="midnightblue" stroke="midnightblue" points="87.08,-71.83 76.59,-73.36 85.75,-78.7 87.08,-71.83"/>
</g>
<!-- Node10 -->
<g id="node10" class="node">
<title>Node10</title>
<g id="a_node10"><a xlink:href="cli__out_8h.html" target="_top" xlink:title="Textual output for console CLI.">
<polygon fill="none" stroke="black" points="276.5,-56.5 276.5,-75.5 334.5,-75.5 334.5,-56.5 276.5,-56.5"/>
<text text-anchor="middle" x="305.5" y="-63.5" font-family="Helvetica,sans-Serif" font-size="10.00">cli_out.h</text>
</a>
</g>
</g>
<!-- Node8&#45;&gt;Node10 -->
<g id="edge10" class="edge">
<title>Node8&#45;&gt;Node10</title>
<path fill="none" stroke="midnightblue" d="M393.63,-112.32C376.79,-103.66 350.69,-90.24 331.26,-80.25"/>
<polygon fill="midnightblue" stroke="midnightblue" points="332.82,-77.12 322.33,-75.65 329.62,-83.34 332.82,-77.12"/>
</g>
<!-- Node8&#45;&gt;Node11 -->
<g id="edge13" class="edge">
<title>Node8&#45;&gt;Node11</title>
<path fill="none" stroke="midnightblue" d="M373.42,-112.44C332.77,-103.06 267.47,-87.99 223.32,-77.8"/>
<polygon fill="midnightblue" stroke="midnightblue" points="223.94,-74.35 213.4,-75.52 222.36,-81.18 223.94,-74.35"/>
</g>
<!-- Node13 -->
<g id="node13" class="node">
<title>Node13</title>
<g id="a_node13"><a xlink:title=" ">
<polygon fill="none" stroke="#bfbfbf" points="216,-0.5 216,-19.5 281,-19.5 281,-0.5 216,-0.5"/>
<text text-anchor="middle" x="248.5" y="-7.5" font-family="Helvetica,sans-Serif" font-size="10.00">functional</text>
</a>
</g>
</g>
<!-- Node8&#45;&gt;Node13 -->
<g id="edge21" class="edge">
<title>Node8&#45;&gt;Node13</title>
<path fill="none" stroke="midnightblue" d="M357.88,-116.59C327.68,-111.4 291.18,-100.17 267.5,-76 255.55,-63.81 251.05,-44.54 249.38,-30.14"/>
<polygon fill="midnightblue" stroke="midnightblue" points="252.85,-29.56 248.57,-19.87 245.87,-30.11 252.85,-29.56"/>
</g>
<!-- Node8&#45;&gt;Node14 -->
<g id="edge17" class="edge">
<title>Node8&#45;&gt;Node14</title>
<path fill="none" stroke="midnightblue" d="M452.7,-112.49C497.01,-103.53 568.68,-88.94 630.5,-76 631.77,-75.73 633.07,-75.46 634.37,-75.19"/>
<polygon fill="midnightblue" stroke="midnightblue" points="635.44,-78.54 644.49,-73.04 633.98,-71.69 635.44,-78.54"/>
</g>
<!-- Node8&#45;&gt;Node15 -->
<g id="edge18" class="edge">
<title>Node8&#45;&gt;Node15</title>
<path fill="none" stroke="midnightblue" d="M463.16,-114.62C520.98,-107.28 616.76,-94.09 708.79,-75.97"/>
<polygon fill="midnightblue" stroke="midnightblue" points="709.7,-79.36 718.83,-73.97 708.34,-72.49 709.7,-79.36"/>
</g>
<!-- Node16 -->
<g id="node16" class="node">
<title>Node16</title>
<g id="a_node16"><a xlink:title=" ">
<polygon fill="none" stroke="#bfbfbf" points="416.5,-56.5 416.5,-75.5 472.5,-75.5 472.5,-56.5 416.5,-56.5"/>
<text text-anchor="middle" x="444.5" y="-63.5" font-family="Helvetica,sans-Serif" font-size="10.00">assert.h</text>
</a>
</g>
</g>
<!-- Node8&#45;&gt;Node16 -->
<g id="edge19" class="edge">
<title>Node8&#45;&gt;Node16</title>
<path fill="none" stroke="midnightblue" d="M416.11,-112.08C420.87,-104.53 427.82,-93.49 433.65,-84.23"/>
<polygon fill="midnightblue" stroke="midnightblue" points="436.62,-86.08 438.99,-75.75 430.7,-82.35 436.62,-86.08"/>
</g>
<!-- Node17 -->
<g id="node17" class="node">
<title>Node17</title>
<g id="a_node17"><a xlink:href="itoa_8h_source.html" target="_top" xlink:title=" ">
<polygon fill="none" stroke="black" points="491,-56.5 491,-75.5 588,-75.5 588,-56.5 491,-56.5"/>
<text text-anchor="middle" x="539.5" y="-63.5" font-family="Helvetica,sans-Serif" font-size="10.00">utils_misc/itoa.h</text>
</a>
</g>
</g>
<!-- Node8&#45;&gt;Node17 -->
<g id="edge20" class="edge">
<title>Node8&#45;&gt;Node17</title>
<path fill="none" stroke="midnightblue" d="M430.94,-112.44C452.17,-103.56 485.6,-89.56 509.75,-79.45"/>
<polygon fill="midnightblue" stroke="midnightblue" points="511.28,-82.61 519.16,-75.52 508.58,-76.15 511.28,-82.61"/>
</g>
<!-- Node18 -->
<g id="node18" class="node">
<title>Node18</title>
<g id="a_node18"><a xlink:title=" ">
<polygon fill="none" stroke="#bfbfbf" points="353,-56.5 353,-75.5 398,-75.5 398,-56.5 353,-56.5"/>
<text text-anchor="middle" x="375.5" y="-63.5" font-family="Helvetica,sans-Serif" font-size="10.00">utility</text>
</a>
</g>
</g>
<!-- Node8&#45;&gt;Node18 -->
<g id="edge22" class="edge">
<title>Node8&#45;&gt;Node18</title>
<path fill="none" stroke="midnightblue" d="M404.72,-112.08C399.83,-104.53 392.67,-93.49 386.67,-84.23"/>
<polygon fill="midnightblue" stroke="midnightblue" points="389.55,-82.24 381.17,-75.75 383.67,-86.05 389.55,-82.24"/>
</g>
<!-- Node9&#45;&gt;Node7 -->
<g id="edge9" class="edge">
<title>Node9&#45;&gt;Node7</title>
<path fill="none" stroke="midnightblue" d="M47.5,-56.08C47.5,-49.01 47.5,-38.86 47.5,-29.99"/>
<polygon fill="midnightblue" stroke="midnightblue" points="51,-29.75 47.5,-19.75 44,-29.75 51,-29.75"/>
</g>
<!-- Node10&#45;&gt;Node5 -->
<g id="edge11" class="edge">
<title>Node10&#45;&gt;Node5</title>
<path fill="none" stroke="midnightblue" d="M334.89,-57.7C337.79,-57.08 340.7,-56.5 343.5,-56 462.56,-34.63 605.3,-20.24 671.47,-14.21"/>
<polygon fill="midnightblue" stroke="midnightblue" points="672.14,-17.66 681.79,-13.28 671.51,-10.69 672.14,-17.66"/>
</g>
<!-- Node12 -->
<g id="node12" class="node">
<title>Node12</title>
<g id="a_node12"><a xlink:title=" ">
<polygon fill="none" stroke="#bfbfbf" points="145,-0.5 145,-19.5 198,-19.5 198,-0.5 145,-0.5"/>
<text text-anchor="middle" x="171.5" y="-7.5" font-family="Helvetica,sans-Serif" font-size="10.00">stdlib.h</text>
</a>
</g>
</g>
<!-- Node11&#45;&gt;Node12 -->
<g id="edge14" class="edge">
<title>Node11&#45;&gt;Node12</title>
<path fill="none" stroke="midnightblue" d="M175.67,-56.08C175.02,-49.01 174.08,-38.86 173.26,-29.99"/>
<polygon fill="midnightblue" stroke="midnightblue" points="176.72,-29.39 172.31,-19.75 169.75,-30.03 176.72,-29.39"/>
</g>
<!-- Node11&#45;&gt;Node13 -->
<g id="edge15" class="edge">
<title>Node11&#45;&gt;Node13</title>
<path fill="none" stroke="midnightblue" d="M188.07,-56.32C198.92,-48.18 215.38,-35.84 228.38,-26.09"/>
<polygon fill="midnightblue" stroke="midnightblue" points="230.82,-28.63 236.72,-19.83 226.62,-23.03 230.82,-28.63"/>
</g>
</g>
</svg>
        <g id="navigator" transform="translate(0 0)" fill="#404254">
                <rect fill="#f2f5e9" fill-opacity="0.5" stroke="#606060" stroke-width=".5" x="0" y="0" width="60" height="60"/>
                <use id="zoomplus" xlink:href="#zoomPlus" x="17" y="9" onmousedown="handleZoom(evt,'in')"/>
                <use id="zoomminus" xlink:href="#zoomMin" x="42" y="9" onmousedown="handleZoom(evt,'out')"/>
                <use id="reset" xlink:href="#resetDef" x="30" y="36" onmousedown="handleReset()"/>
                <g id="arrowUp" xlink:href="#dirArrow" transform="translate(30 24)" onmousedown="handlePan(0,-1)">
                  <use xlink:href="#rim" fill="#404040">
                        <set attributeName="fill" to="#808080" begin="arrowUp.mouseover" end="arrowUp.mouseout"/>
                  </use>
                  <path fill="none" stroke="white" stroke-width="1.5" d="M0,-3.0v7 M-2.5,-0.5L0,-3.0L2.5,-0.5"/>
                </g>
                <g id="arrowRight" xlink:href="#dirArrow" transform="rotate(90) translate(36 -43)" onmousedown="handlePan(1,0)">
                  <use xlink:href="#rim" fill="#404040">
                        <set attributeName="fill" to="#808080" begin="arrowRight.mouseover" end="arrowRight.mouseout"/>
                  </use>
                  <path fill="none" stroke="white" stroke-width="1.5" d="M0,-3.0v7 M-2.5,-0.5L0,-3.0L2.5,-0.5"/>
                </g>
                <g id="arrowDown" xlink:href="#dirArrow" transform="rotate(180) translate(-30 -48)" onmousedown="handlePan(0,1)">
                  <use xlink:href="#rim" fill="#404040">
                        <set attributeName="fill" to="#808080" begin="arrowDown.mouseover" end="arrowDown.mouseout"/>
                  </use>
                  <path fill="none" stroke="white" stroke-width="1.5" d="M0,-3.0v7 M-2.5,-0.5L0,-3.0L2.5,-0.5"/>
                </g>
                <g id="arrowLeft" xlink:href="#dirArrow" transform="rotate(270) translate(-36 17)" onmousedown="handlePan(-1,0)">
                  <use xlink:href="#rim" fill="#404040">
                        <set attributeName="fill" to="#808080" begin="arrowLeft.mouseover" end="arrowLeft.mouseout"/>
                  </use>
                  <path fill="none" stroke="white" stroke-width="1.5" d="M0,-3.0v7 M-2.5,-0.5L0,-3.0L2.5,-0.5"/>
                </g>
        </g>
        <svg viewBox="0 0 15 15" width="100%" height="30px" preserveAspectRatio="xMaxYMin meet">
         <g id="arrow_out" transform="scale(0.3 0.3)">
          <a xlink:href="tcp__cli__server__setup_8hh__incl_org.svg" target="_base">
           <rect id="button" ry="5" rx="5" y="6" x="6" height="38" width="38"
                fill="#f2f5e9" fill-opacity="0.5" stroke="#606060" stroke-width="1.0"/>
           <path id="arrow"
             d="M 11.500037,31.436501 C 11.940474,20.09759 22.043105,11.32322 32.158766,21.979434 L 37.068811,17.246167 C 37.068811,17.246167 37.088388,32 37.088388,32 L 22.160133,31.978069 C 22.160133,31.978069 26.997745,27.140456 26.997745,27.140456 C 18.528582,18.264221 13.291696,25.230495 11.500037,31.436501 z"
             style="fill:#404040;"/>
          </a>
         </g>
        </svg>
</svg>
