<?xml version="1.0" encoding="UTF-8" standalone="no"?>
<!DOCTYPE svg PUBLIC "-//W3C//DTD SVG 1.1//EN"
 "http://www.w3.org/Graphics/SVG/1.1/DTD/svg11.dtd">
<!-- Generated by graphviz version 2.43.0 (0)
 -->
<!-- Title: /home/bertw/proj/mcu/components&#45;mcu/uout/include/uout/uo_types.h Pages: 1 -->
<svg width="424pt" height="206pt"
 viewBox="0.00 0.00 424.00 206.00" xmlns="http://www.w3.org/2000/svg" xmlns:xlink="http://www.w3.org/1999/xlink">
<g id="graph0" class="graph" transform="scale(1 1) rotate(0) translate(4 202)">
<title>/home/bertw/proj/mcu/components&#45;mcu/uout/include/uout/uo_types.h</title>
<!-- Node1 -->
<g id="node1" class="node">
<title>Node1</title>
<g id="a_node1"><a xlink:title="API parameter and return types.">
<polygon fill="#bfbfbf" stroke="black" points="97.5,-156.5 97.5,-197.5 233.5,-197.5 233.5,-156.5 97.5,-156.5"/>
<text text-anchor="start" x="105.5" y="-185.5" font-family="Helvetica,sans-Serif" font-size="10.00">/home/bertw/proj/mcu</text>
<text text-anchor="start" x="105.5" y="-174.5" font-family="Helvetica,sans-Serif" font-size="10.00">/components&#45;mcu/uout</text>
<text text-anchor="middle" x="165.5" y="-163.5" font-family="Helvetica,sans-Serif" font-size="10.00">/include/uout/uo_types.h</text>
</a>
</g>
</g>
<!-- Node2 -->
<g id="node2" class="node">
<title>Node2</title>
<g id="a_node2"><a xlink:href="cli_8h.html" target="_top" xlink:title="cli framework">
<polygon fill="none" stroke="black" points="0,-78.5 0,-119.5 157,-119.5 157,-78.5 0,-78.5"/>
<text text-anchor="start" x="8" y="-107.5" font-family="Helvetica,sans-Serif" font-size="10.00">/home/bertw/proj/mcu</text>
<text text-anchor="start" x="8" y="-96.5" font-family="Helvetica,sans-Serif" font-size="10.00">/components&#45;mcu/cli/include</text>
<text text-anchor="middle" x="78.5" y="-85.5" font-family="Helvetica,sans-Serif" font-size="10.00">/cli/cli.h</text>
</a>
</g>
</g>
<!-- Node1&#45;&gt;Node2 -->
<g id="edge1" class="edge">
<title>Node1&#45;&gt;Node2</title>
<path fill="none" stroke="midnightblue" d="M135.48,-149.78C124.11,-139.84 111.37,-128.72 100.83,-119.51"/>
<polygon fill="midnightblue" stroke="midnightblue" points="133.26,-152.49 143.1,-156.43 137.87,-147.21 133.26,-152.49"/>
</g>
<!-- Node3 -->
<g id="node3" class="node">
<title>Node3</title>
<g id="a_node3"><a xlink:href="uo__callbacks_8h.html" target="_top" xlink:title="pub/sub interface to publish asynchronously to MQTT servers, HTTP&#45;client web&#45;sockets,...">
<polygon fill="none" stroke="black" points="175,-78.5 175,-119.5 330,-119.5 330,-78.5 175,-78.5"/>
<text text-anchor="start" x="183" y="-107.5" font-family="Helvetica,sans-Serif" font-size="10.00">/home/bertw/proj/mcu</text>
<text text-anchor="start" x="183" y="-96.5" font-family="Helvetica,sans-Serif" font-size="10.00">/components&#45;mcu/uout</text>
<text text-anchor="middle" x="252.5" y="-85.5" font-family="Helvetica,sans-Serif" font-size="10.00">/include/uout/uo_callbacks.h</text>
</a>
</g>
</g>
<!-- Node1&#45;&gt;Node3 -->
<g id="edge2" class="edge">
<title>Node1&#45;&gt;Node3</title>
<path fill="none" stroke="midnightblue" d="M195.52,-149.78C206.89,-139.84 219.63,-128.72 230.17,-119.51"/>
<polygon fill="midnightblue" stroke="midnightblue" points="193.13,-147.21 187.9,-156.43 197.74,-152.49 193.13,-147.21"/>
</g>
<!-- Node4 -->
<g id="node4" class="node">
<title>Node4</title>
<g id="a_node4"><a xlink:href="tcp__cli__server__setup_8hh.html" target="_top" xlink:title="Create TCP server for interactive and non&#45;interactive CLI clients.">
<polygon fill="none" stroke="black" points="84,-0.5 84,-41.5 245,-41.5 245,-0.5 84,-0.5"/>
<text text-anchor="start" x="92" y="-29.5" font-family="Helvetica,sans-Serif" font-size="10.00">/home/bertw/proj/mcu</text>
<text text-anchor="start" x="92" y="-18.5" font-family="Helvetica,sans-Serif" font-size="10.00">/components&#45;mcu/net/include</text>
<text text-anchor="middle" x="164.5" y="-7.5" font-family="Helvetica,sans-Serif" font-size="10.00">/net/tcp_cli_server_setup.hh</text>
</a>
</g>
</g>
<!-- Node3&#45;&gt;Node4 -->
<g id="edge3" class="edge">
<title>Node3&#45;&gt;Node4</title>
<path fill="none" stroke="midnightblue" d="M222.14,-71.78C210.63,-61.84 197.75,-50.72 187.09,-41.51"/>
<polygon fill="midnightblue" stroke="midnightblue" points="219.98,-74.54 229.84,-78.43 224.56,-69.24 219.98,-74.54"/>
</g>
<!-- Node5 -->
<g id="node5" class="node">
<title>Node5</title>
<g id="a_node5"><a xlink:href="txtio__setup_8hh_source.html" target="_top" xlink:title=" ">
<polygon fill="none" stroke="black" points="263,-0.5 263,-41.5 416,-41.5 416,-0.5 263,-0.5"/>
<text text-anchor="start" x="271" y="-29.5" font-family="Helvetica,sans-Serif" font-size="10.00">/home/bertw/proj/mcu</text>
<text text-anchor="start" x="271" y="-18.5" font-family="Helvetica,sans-Serif" font-size="10.00">/components&#45;mcu/txtio</text>
<text text-anchor="middle" x="339.5" y="-7.5" font-family="Helvetica,sans-Serif" font-size="10.00">/include/txtio/txtio_setup.hh</text>
</a>
</g>
</g>
<!-- Node3&#45;&gt;Node5 -->
<g id="edge4" class="edge">
<title>Node3&#45;&gt;Node5</title>
<path fill="none" stroke="midnightblue" d="M282.52,-71.78C293.89,-61.84 306.63,-50.72 317.17,-41.51"/>
<polygon fill="midnightblue" stroke="midnightblue" points="280.13,-69.21 274.9,-78.43 284.74,-74.49 280.13,-69.21"/>
</g>
</g>
</svg>
