<?xml version="1.0" encoding="UTF-8" standalone="no"?>
<!DOCTYPE svg PUBLIC "-//W3C//DTD SVG 1.1//EN"
 "http://www.w3.org/Graphics/SVG/1.1/DTD/svg11.dtd">
<!-- Generated by graphviz version 2.43.0 (0)
 -->
<!-- Title: /home/bertw/proj/mcu/components&#45;mcu/uout/include/uout/uo_callbacks.h Pages: 1 -->
<svg width="340pt" height="128pt"
 viewBox="0.00 0.00 340.00 128.00" xmlns="http://www.w3.org/2000/svg" xmlns:xlink="http://www.w3.org/1999/xlink">
<g id="graph0" class="graph" transform="scale(1 1) rotate(0) translate(4 124)">
<title>/home/bertw/proj/mcu/components&#45;mcu/uout/include/uout/uo_callbacks.h</title>
<!-- Node1 -->
<g id="node1" class="node">
<title>Node1</title>
<g id="a_node1"><a xlink:title="pub/sub interface to publish asynchronously to MQTT servers, HTTP&#45;client web&#45;sockets,...">
<polygon fill="#bfbfbf" stroke="black" points="90,-78.5 90,-119.5 245,-119.5 245,-78.5 90,-78.5"/>
<text text-anchor="start" x="98" y="-107.5" font-family="Helvetica,sans-Serif" font-size="10.00">/home/bertw/proj/mcu</text>
<text text-anchor="start" x="98" y="-96.5" font-family="Helvetica,sans-Serif" font-size="10.00">/components&#45;mcu/uout</text>
<text text-anchor="middle" x="167.5" y="-85.5" font-family="Helvetica,sans-Serif" font-size="10.00">/include/uout/uo_callbacks.h</text>
</a>
</g>
</g>
<!-- Node2 -->
<g id="node2" class="node">
<title>Node2</title>
<g id="a_node2"><a xlink:href="tcp__cli__server__setup_8hh.html" target="_top" xlink:title="Create TCP server for interactive and non&#45;interactive CLI clients.">
<polygon fill="none" stroke="black" points="0,-0.5 0,-41.5 161,-41.5 161,-0.5 0,-0.5"/>
<text text-anchor="start" x="8" y="-29.5" font-family="Helvetica,sans-Serif" font-size="10.00">/home/bertw/proj/mcu</text>
<text text-anchor="start" x="8" y="-18.5" font-family="Helvetica,sans-Serif" font-size="10.00">/components&#45;mcu/net/include</text>
<text text-anchor="middle" x="80.5" y="-7.5" font-family="Helvetica,sans-Serif" font-size="10.00">/net/tcp_cli_server_setup.hh</text>
</a>
</g>
</g>
<!-- Node1&#45;&gt;Node2 -->
<g id="edge1" class="edge">
<title>Node1&#45;&gt;Node2</title>
<path fill="none" stroke="midnightblue" d="M137.48,-71.78C126.11,-61.84 113.37,-50.72 102.83,-41.51"/>
<polygon fill="midnightblue" stroke="midnightblue" points="135.26,-74.49 145.1,-78.43 139.87,-69.21 135.26,-74.49"/>
</g>
<!-- Node3 -->
<g id="node3" class="node">
<title>Node3</title>
<g id="a_node3"><a xlink:href="txtio__setup_8hh_source.html" target="_top" xlink:title=" ">
<polygon fill="none" stroke="black" points="179,-0.5 179,-41.5 332,-41.5 332,-0.5 179,-0.5"/>
<text text-anchor="start" x="187" y="-29.5" font-family="Helvetica,sans-Serif" font-size="10.00">/home/bertw/proj/mcu</text>
<text text-anchor="start" x="187" y="-18.5" font-family="Helvetica,sans-Serif" font-size="10.00">/components&#45;mcu/txtio</text>
<text text-anchor="middle" x="255.5" y="-7.5" font-family="Helvetica,sans-Serif" font-size="10.00">/include/txtio/txtio_setup.hh</text>
</a>
</g>
</g>
<!-- Node1&#45;&gt;Node3 -->
<g id="edge2" class="edge">
<title>Node1&#45;&gt;Node3</title>
<path fill="none" stroke="midnightblue" d="M197.86,-71.78C209.37,-61.84 222.25,-50.72 232.91,-41.51"/>
<polygon fill="midnightblue" stroke="midnightblue" points="195.44,-69.24 190.16,-78.43 200.02,-74.54 195.44,-69.24"/>
</g>
</g>
</svg>
